<?xml version="1.0" encoding="utf-8"?>
<!-- Generator: Adobe Illustrator 23.0.1, SVG Export Plug-In . SVG Version: 6.00 Build 0)  -->
<svg version="1.1" id="Layer_1" xmlns="http://www.w3.org/2000/svg" xmlns:xlink="http://www.w3.org/1999/xlink" x="0px" y="0px"
	 viewBox="0 0 595.28 595.28" style="enable-background:new 0 0 595.28 595.28;" xml:space="preserve">
<style type="text/css">
	.st0{enable-background:new    ;}
	.st1{clip-path:url(#SVGID_2_);enable-background:new    ;}
	.st2{fill:none;stroke:#000000;stroke-width:0.25;stroke-miterlimit:10;}
	.st3{clip-path:url(#SVGID_2_);fill:none;stroke:#000000;stroke-width:0.25;stroke-miterlimit:10;}
	.st4{clip-path:url(#SVGID_4_);enable-background:new    ;}
	.st5{clip-path:url(#SVGID_4_);fill:none;stroke:#000000;stroke-width:0.25;stroke-miterlimit:10;}
	.st6{clip-path:url(#SVGID_6_);enable-background:new    ;}
	.st7{clip-path:url(#SVGID_6_);fill:none;stroke:#000000;stroke-width:0.25;stroke-miterlimit:10;}
	.st8{clip-path:url(#SVGID_8_);enable-background:new    ;}
	.st9{clip-path:url(#SVGID_8_);fill:none;stroke:#000000;stroke-width:0.25;stroke-miterlimit:10;}
	.st10{clip-path:url(#SVGID_10_);enable-background:new    ;}
	.st11{clip-path:url(#SVGID_10_);fill:none;stroke:#000000;stroke-width:0.25;stroke-miterlimit:10;}
	.st12{clip-path:url(#SVGID_12_);enable-background:new    ;}
	.st13{clip-path:url(#SVGID_12_);fill:none;stroke:#000000;stroke-width:0.25;stroke-miterlimit:10;}
</style>
<g>
	<g>
		<g class="st0">
			<g class="st0">
				<defs>
					<path id="SVGID_1_" class="st0" d="M188.43,560.65c44.55,18.51,94.92,24.47,146.61,14.53
						C283.35,585.12,232.97,579.16,188.43,560.65c-7.09-3.02-16.4-7.39-23.26-10.91c-5.49-2.82-12.62-6.96-17.87-10.21
						c-12.56-7.76-24.86-16.79-36.57-26.86c-7.75-6.67-19.55-17.64-31.71-32.06c-4.47-5.3-10.15-12.61-14.19-18.25
						c-3.87-5.39-8.55-12.91-12.15-18.48c-3.78-5.85-8.07-14.11-11.16-20.35c-3.11-6.27-6.9-14.8-9.5-21.29
						c-5.08-12.74-9.95-30.44-13.41-43.71c-1.82-6.98-2.95-16.58-4.2-23.69c-0.04-0.25-0.09-0.59-0.11-0.84
						c-1.3-13.84-2.41-32.39-2.32-46.29c0.05-7.08,0.63-16.55,1.72-23.55c1.03-6.66,2.14-15.59,3.45-22.21
						c1.36-6.86,3.27-16.02,5.43-22.67c2.05-6.31,4.54-14.8,6.85-21.01c2.44-6.56,6.02-15.18,8.97-21.53
						c10.31-22.14,21.2-37.88,22.41-39.6c3.7-5.27,8.65-12.3,12.68-17.33c4.66-5.83,11.12-13.42,16.26-18.84
						c4.3-4.53,10.16-10.47,14.81-14.64c6.25-5.6,14.97-12.63,21.51-17.91c4.44-3.58,10.77-7.84,15.57-10.94
						c5.67-3.65,13.41-8.23,19.29-11.54c3.75-2.11,8.86-4.73,12.75-6.56c5.43-2.55,12.72-5.85,18.3-8.05
						c17.14-6.76,32.48-10.8,40.09-12.6c3.57-0.85,10.21-2.42,20.26-4.04c9.87-1.59,18.22-2.34,20.55-2.54
						c2.51-0.21,5.35-0.44,8.93-0.63c1.68-0.09,5.63-0.3,10.17-0.38c11.71-0.21,19.69,0.28,20.03,0.31
						c2.63,0.17,6.13,0.35,8.75,0.58c3.71,0.33,8.65,0.79,12.34,1.28c7.51,1,17.48,2.69,24.89,4.27c9.77,2.08,22.68,5.54,32.05,8.98
						c5.99,2.2,13.99,5.12,19.85,7.66c6.54,2.84,15.19,6.82,21.43,10.27c10.77,5.97,21.92,12.14,37.24,23.61
						c15.08,11.29,26.53,22.16,33.48,29.3c6.82,7.01,17.22,18.2,28.72,34.36c7.72,10.85,16.48,26.36,22.81,38.07
						c3.33,6.16,6.93,14.82,9.52,21.32c2.53,6.33,5.29,15.01,7.55,21.44c2.37,6.75,4.75,16.03,6.06,23.07
						c2.15,11.56,4.97,27.04,5.73,38.78c0.45,6.93,0.91,16.18,0.89,23.12c-0.02,7.11-0.36,16.59-1.04,23.67
						c-1.2,12.52-2.89,26.49-7.61,45.23c-4.98,19.76-11.22,35.11-14.62,43c-2.83,6.56-6.77,15.28-10.35,21.47
						c-6.48,11.21-15.79,25.77-23.14,36.43c-4.19,6.07-10.67,13.52-15.53,19.06c-4.15,4.73-10.01,10.76-14.5,15.17
						c-5.82,5.72-14.04,12.85-20.36,18.01c-5.26,4.29-12.5,9.74-18.18,13.46c-7.87,5.16-18.58,11.75-26.87,16.2
						c-4.02,2.16-9.48,4.83-13.61,6.76c-3.46,1.62-8.14,3.61-11.67,5.05c-4.35,1.77-10.23,3.94-14.67,5.47
						c-4.26,1.47-10,3.26-14.32,4.55c-3.98,1.19-9.35,2.6-13.39,3.58c-3.55,0.87-8.31,1.9-11.9,2.6c-2.12,0.42-6.6,1.25-12.86,2.17
						c-6.21,0.91-12.15,1.5-12.21,1.51c-2.55,0.24-5.95,0.54-8.5,0.74c-1.39,0.11-3.25,0.22-4.64,0.29
						c-3.35,0.17-8.95,0.45-15.93,0.44c-15.41-0.03-25.83-1.15-32.05-1.82c-4.7-0.51-10.94-1.45-15.61-2.22
						c-3.79-0.63-8.81-1.69-12.58-2.44c-9.79-1.96-22.53-5.98-32.05-8.98C200.02,565.38,193.44,562.56,188.43,560.65z"/>
				</defs>
				<clipPath id="SVGID_2_">
					<use xlink:href="#SVGID_1_"  style="overflow:visible;"/>
				</clipPath>
				<g class="st1">
					<g>
						<path class="st2" d="M335.04,575.18c-147.92,28.45-285.06-73.3-305.71-226.82c50.08,20.81,210.78,14.58,358.94-13.91
							C408.91,487.96,385.03,595.96,335.04,575.18z"/>
						<path class="st2" d="M194.62,563.13c25.26,10.49,106.3,7.35,181.02-7.02"/>
						<path class="st2" d="M84.89,481.72c43.23,17.96,181.96,12.59,309.87-12.01"/>
						<path class="st2" d="M335.04,575.18c-102.49,35.05-202.67-61.33-223.32-214.84"/>
						<path class="st2" d="M335.04,575.18c-31.49,32.3-73.9-66.32-94.55-219.83"/>
					</g>
					<g>
						<path class="st2" d="M335.04,575.18c50,20.77,73.88-87.22,53.23-240.73c148.16-28.49,227.67-68.46,177.59-89.27
							C586.51,398.69,482.95,546.73,335.04,575.18z"/>
						<path class="st2" d="M375.65,556.12c74.72-14.37,114.82-34.53,89.56-45.02"/>
						<path class="st2" d="M394.75,469.71c127.9-24.6,196.54-59.1,153.31-77.06"/>
						<path class="st2" d="M335.04,575.18c117.83,3.58,196.9-118.4,176.25-271.91"/>
						<path class="st2" d="M335.04,575.18C487.99,561.1,595.65,424.75,575,271.24"/>
					</g>
					<g>
						<path class="st2" d="M335.04,575.18c147.92-28.45,251.47-176.49,230.83-330c-50.08-20.81-210.78-14.58-358.94,13.91
							C227.56,412.61,285.04,554.41,335.04,575.18z"/>
						<path class="st2" d="M465.21,511.1c-25.26-10.49-106.3-7.35-181.02,7.02"/>
						<path class="st2" d="M548.06,392.64c-43.23-17.96-181.96-12.59-309.87,12.01"/>
						<path class="st2" d="M335.04,575.18c102.49-35.05,169.08-188.46,148.43-341.97"/>
						<path class="st2" d="M335.04,575.18c31.49-32.3,40.31-183.47,19.66-336.98"/>
					</g>
					<g>
						<path class="st2" d="M335.04,575.18c-50-20.77-107.47-162.57-128.12-316.08C58.76,287.59-20.75,327.56,29.33,348.37
							C49.97,501.88,187.12,603.63,335.04,575.18z"/>
						<path class="st2" d="M284.19,518.11c-74.72,14.37-114.82,34.53-89.56,45.02"/>
						<path class="st2" d="M238.2,404.66c-127.9,24.6-196.54,59.1-153.31,77.06"/>
						<path class="st2" d="M335.04,575.18C217.21,571.6,104.54,443.79,83.9,290.28"/>
						<path class="st2" d="M335.04,575.18c-152.96,14.08-294.2-99.36-314.85-252.87"/>
					</g>
					<g>
						<path class="st2" d="M29.33,348.37C8.68,194.86,112.23,46.82,260.15,18.38c50,20.77,107.47,162.56,128.12,316.07
							C240.11,362.94,79.41,369.17,29.33,348.37z"/>
						<path class="st2" d="M47.12,200.91c43.23,17.96,181.96,12.59,309.87-12.01"/>
						<path class="st2" d="M129.98,82.46c25.26,10.49,106.3,7.35,181.02-7.02"/>
						<path class="st2" d="M111.72,360.34C91.07,206.83,157.66,53.43,260.15,18.38"/>
						<path class="st2" d="M240.49,355.35c-20.64-153.51-11.82-304.67,19.66-336.97"/>
					</g>
					<g>
						<path class="st2" d="M388.27,334.45c-20.64-153.51-78.12-295.3-128.12-316.07c147.92-28.45,285.06,73.3,305.71,226.81
							C615.94,265.99,536.43,305.96,388.27,334.45z"/>
						<path class="st2" d="M356.99,188.9c127.9-24.6,196.54-59.1,153.31-77.06"/>
						<path class="st2" d="M311,75.44c74.72-14.37,114.82-34.53,89.56-45.02"/>
						<path class="st2" d="M511.29,303.27C490.64,149.76,377.98,21.96,260.15,18.38"/>
						<path class="st2" d="M575,271.24C554.36,117.73,413.11,4.3,260.15,18.38"/>
					</g>
					<g>
						<path class="st2" d="M565.86,245.18C545.22,91.67,408.07-10.07,260.15,18.38c-50-20.77-73.88,87.21-53.24,240.72
							C355.08,230.61,515.78,224.38,565.86,245.18z"/>
						<path class="st2" d="M510.3,111.83c-43.23-17.96-181.96-12.59-309.87,12.01"/>
						<path class="st2" d="M400.57,30.42c-25.26-10.49-106.3-7.35-181.02,7.02"/>
						<path class="st2" d="M483.47,233.21C462.82,79.7,362.64-16.67,260.15,18.38"/>
						<path class="st2" d="M354.7,238.2C334.05,84.69,291.64-13.92,260.15,18.38"/>
					</g>
					<g>
						<path class="st2" d="M206.92,259.1c-20.64-153.51,3.24-261.5,53.24-240.72C112.23,46.82,8.68,194.86,29.33,348.37
							C-20.75,327.56,58.76,287.59,206.92,259.1z"/>
						<path class="st2" d="M200.43,123.85c-127.9,24.6-196.54,59.1-153.31,77.06"/>
						<path class="st2" d="M219.54,37.44c-74.72,14.37-114.82,34.53-89.56,45.02"/>
						<path class="st2" d="M83.9,290.28C63.25,136.77,142.32,14.8,260.15,18.38"/>
						<path class="st2" d="M20.19,322.31C-0.46,168.8,107.19,32.45,260.15,18.38"/>
					</g>
				</g>
				<path class="st3" d="M188.43,560.65c44.55,18.51,94.92,24.47,146.61,14.53C283.35,585.12,232.97,579.16,188.43,560.65
					c-7.09-3.02-16.4-7.39-23.26-10.91c-5.49-2.82-12.62-6.96-17.87-10.21c-12.56-7.76-24.86-16.79-36.57-26.86
					c-7.75-6.67-19.55-17.64-31.71-32.06c-4.47-5.3-10.15-12.61-14.19-18.25c-3.87-5.39-8.55-12.91-12.15-18.48
					c-3.78-5.85-8.07-14.11-11.16-20.35c-3.11-6.27-6.9-14.8-9.5-21.29c-5.08-12.74-9.95-30.44-13.41-43.71
					c-1.82-6.98-2.95-16.58-4.2-23.69c-0.04-0.25-0.09-0.59-0.11-0.84c-1.3-13.84-2.41-32.39-2.32-46.29
					c0.05-7.08,0.63-16.55,1.72-23.55c1.03-6.66,2.14-15.59,3.45-22.21c1.36-6.86,3.27-16.02,5.43-22.67
					c2.05-6.31,4.54-14.8,6.85-21.01c2.44-6.56,6.02-15.18,8.97-21.53c10.31-22.14,21.2-37.88,22.41-39.6
					c3.7-5.27,8.65-12.3,12.68-17.33c4.66-5.83,11.12-13.42,16.26-18.84c4.3-4.53,10.16-10.47,14.81-14.64
					c6.25-5.6,14.97-12.63,21.51-17.91c4.44-3.58,10.77-7.84,15.57-10.94c5.67-3.65,13.41-8.23,19.29-11.54
					c3.75-2.11,8.86-4.73,12.75-6.56c5.43-2.55,12.72-5.85,18.3-8.05c17.14-6.76,32.48-10.8,40.09-12.6
					c3.57-0.85,10.21-2.42,20.26-4.04c9.87-1.59,18.22-2.34,20.55-2.54c2.51-0.21,5.35-0.44,8.93-0.63
					c1.68-0.09,5.63-0.3,10.17-0.38c11.71-0.21,19.69,0.28,20.03,0.31c2.63,0.17,6.13,0.35,8.75,0.58
					c3.71,0.33,8.65,0.79,12.34,1.28c7.51,1,17.48,2.69,24.89,4.27c9.77,2.08,22.68,5.54,32.05,8.98c5.99,2.2,13.99,5.12,19.85,7.66
					c6.54,2.84,15.19,6.82,21.43,10.27c10.77,5.97,21.92,12.14,37.24,23.61c15.08,11.29,26.53,22.16,33.48,29.3
					c6.82,7.01,17.22,18.2,28.72,34.36c7.72,10.85,16.48,26.36,22.81,38.07c3.33,6.16,6.93,14.82,9.52,21.32
					c2.53,6.33,5.29,15.01,7.55,21.44c2.37,6.75,4.75,16.03,6.06,23.07c2.15,11.56,4.97,27.04,5.73,38.78
					c0.45,6.93,0.91,16.18,0.89,23.12c-0.02,7.11-0.36,16.59-1.04,23.67c-1.2,12.52-2.89,26.49-7.61,45.23
					c-4.98,19.76-11.22,35.11-14.62,43c-2.83,6.56-6.77,15.28-10.35,21.47c-6.48,11.21-15.79,25.77-23.14,36.43
					c-4.19,6.07-10.67,13.52-15.53,19.06c-4.15,4.73-10.01,10.76-14.5,15.17c-5.82,5.72-14.04,12.85-20.36,18.01
					c-5.26,4.29-12.5,9.74-18.18,13.46c-7.87,5.16-18.58,11.75-26.87,16.2c-4.02,2.16-9.48,4.83-13.61,6.76
					c-3.46,1.62-8.14,3.61-11.67,5.05c-4.35,1.77-10.23,3.94-14.67,5.47c-4.26,1.47-10,3.26-14.32,4.55
					c-3.98,1.19-9.35,2.6-13.39,3.58c-3.55,0.87-8.31,1.9-11.9,2.6c-2.12,0.42-6.6,1.25-12.86,2.17c-6.21,0.91-12.15,1.5-12.21,1.51
					c-2.55,0.24-5.95,0.54-8.5,0.74c-1.39,0.11-3.25,0.22-4.64,0.29c-3.35,0.17-8.95,0.45-15.93,0.44
					c-15.41-0.03-25.83-1.15-32.05-1.82c-4.7-0.51-10.94-1.45-15.61-2.22c-3.79-0.63-8.81-1.69-12.58-2.44
					c-9.79-1.96-22.53-5.98-32.05-8.98C200.02,565.38,193.44,562.56,188.43,560.65z"/>
			</g>
			<g class="st0">
				<defs>
					<path id="SVGID_3_" class="st0" d="M351.57,577.3c-14.19,2.73-28.23,4.34-42.92,4.93c-5.71,0.23-10.93,0.22-10.98,0.22
						c-4.03-0.02-9.4-0.17-13.43-0.31c-6.34-0.23-14.21-1.03-18-1.42c-10.41-1.06-21.06-3.14-25.61-4.03
						c-6.13-1.2-14.17-3.36-20.21-4.92c-9.84-2.54-22.51-7.49-32-11.12C105.49,526.2,42.76,448.23,29.33,348.37
						C8.68,194.86,112.23,46.82,260.15,18.38C112.23,46.82,8.68,194.86,29.33,348.37c13.43,99.87,76.17,177.83,159.1,212.29
						c0,0,0,0,0,0c-5.57-2.55-13.11-5.7-18.56-8.5c-6.9-3.54-15.97-8.54-22.57-12.62c-18.67-11.53-32.14-23.07-36.57-26.86
						c-7.57-6.49-19.21-17.31-31.71-32.06c-8.54-10.08-18.55-24.66-25.74-35.75c-3.82-5.9-8.19-14.22-11.34-20.5
						c-3.03-6.03-6.73-14.23-9.25-20.49c-2.65-6.58-5.84-15.51-7.95-22.28c-2.05-6.59-4.16-15.56-5.93-22.24
						c-0.07-0.25-0.14-0.58-0.18-0.83c-1.27-7.1-3.5-16.5-4.2-23.69c-1.34-13.85-2.76-32.4-2.45-46.31
						c0.18-8.21,1.07-25.07,5.03-45.72c4.11-21.43,9.91-37.52,12.09-43.57c3.36-9.32,9.31-23.94,18.6-40.7
						c3.34-6.03,8.14-13.87,11.94-19.62c3.55-5.38,8.78-12.21,12.56-17.43c4.06-5.62,10.25-12.52,14.91-17.64
						C91.31,99.22,97.19,93.3,101.73,89c5.05-4.79,12.11-10.84,17.51-15.24c4.45-3.62,10.68-8.08,15.32-11.46
						c5.65-4.12,13.65-8.92,19.64-12.53c3.73-2.25,8.86-4.97,12.72-6.97c10.64-5.52,21.8-10.39,33.16-14.48
						c8.75-3.15,22.61-7.64,38.97-11.13c8.83-1.89,17.35-3.09,17.44-3.1c4.96-0.69,6.31-0.87,12.2-1.51
						c1.59-0.17,5.86-0.56,8.51-0.74c2.78-0.19,11.23-0.76,20.34-0.73c10.64,0.03,16.35,0.44,22.4,0.87
						c2.97,0.21,6.93,0.6,9.89,0.95c3.67,0.43,8.56,1.12,12.22,1.66c4.82,0.71,11.21,1.92,15.97,3c10.22,2.31,23.74,5.96,33.59,9.51
						c4.59,1.65,10.7,3.88,15.18,5.8c6.49,2.79,15.17,6.51,21.36,9.92c5.51,3.04,12.94,6.97,18.29,10.29
						c6.31,3.91,14.56,9.41,20.54,13.8c5.21,3.83,11.97,9.19,16.86,13.42c5.37,4.64,12.42,10.99,17.3,16.14
						c9.51,10.02,17.72,18.68,29.06,34.49c7.76,10.81,16.57,26.29,22.93,37.98c3.37,6.19,7.02,14.89,9.66,21.43
						c2.55,6.32,5.34,14.98,7.62,21.41c2.4,6.76,4.79,16.05,6.14,23.1c1.36,7.13,3.25,16.64,4.23,23.84
						c0.94,6.95,1.7,16.28,2.18,23.28c0.78,11.49,0.48,26.92-0.57,38.39c-0.62,6.74-1.66,15.72-2.76,22.4
						c-1.13,6.87-3.01,15.97-4.68,22.72c-1.6,6.45-4.08,14.98-6.2,21.28c-2.19,6.54-5.45,15.15-8.15,21.49
						c-2.72,6.39-6.49,14.89-9.94,20.93c-6.42,11.25-15.21,26.18-22.9,36.61c-4.11,5.57-9.89,12.78-14.4,18.02
						c-4.11,4.78-10.03,10.75-14.33,15.36c-4.75,5.09-11.67,11.32-17.09,15.7c-4.57,3.69-10.61,8.69-15.37,12.14
						c-5.63,4.09-13.39,9.2-19.24,12.98c-7.78,5.03-18.77,10.78-27.13,14.78c-2.92,1.4-6.87,3.15-9.84,4.44
						c-2.17,0.94-5.11,2.1-7.3,2.98c-4.34,1.74-10.21,3.84-14.65,5.3C382.92,569.3,368.43,574.06,351.57,577.3z"/>
				</defs>
				<clipPath id="SVGID_4_">
					<use xlink:href="#SVGID_3_"  style="overflow:visible;"/>
				</clipPath>
				<g class="st4">
					<g>
						<path class="st2" d="M335.04,575.18c-147.92,28.45-285.06-73.3-305.71-226.82c50.08,20.81,210.78,14.58,358.94-13.91
							C408.91,487.96,385.03,595.96,335.04,575.18z"/>
						<path class="st2" d="M194.62,563.13c25.26,10.49,106.3,7.35,181.02-7.02"/>
						<path class="st2" d="M84.89,481.72c43.23,17.96,181.96,12.59,309.87-12.01"/>
						<path class="st2" d="M335.04,575.18c-102.49,35.05-202.67-61.33-223.32-214.84"/>
						<path class="st2" d="M335.04,575.18c-31.49,32.3-73.9-66.32-94.55-219.83"/>
					</g>
					<g>
						<path class="st2" d="M335.04,575.18c50,20.77,73.88-87.22,53.23-240.73c148.16-28.49,227.67-68.46,177.59-89.27
							C586.51,398.69,482.95,546.73,335.04,575.18z"/>
						<path class="st2" d="M375.65,556.12c74.72-14.37,114.82-34.53,89.56-45.02"/>
						<path class="st2" d="M394.75,469.71c127.9-24.6,196.54-59.1,153.31-77.06"/>
						<path class="st2" d="M335.04,575.18c117.83,3.58,196.9-118.4,176.25-271.91"/>
						<path class="st2" d="M335.04,575.18C487.99,561.1,595.65,424.75,575,271.24"/>
					</g>
					<g>
						<path class="st2" d="M335.04,575.18c147.92-28.45,251.47-176.49,230.83-330c-50.08-20.81-210.78-14.58-358.94,13.91
							C227.56,412.61,285.04,554.41,335.04,575.18z"/>
						<path class="st2" d="M465.21,511.1c-25.26-10.49-106.3-7.35-181.02,7.02"/>
						<path class="st2" d="M548.06,392.64c-43.23-17.96-181.96-12.59-309.87,12.01"/>
						<path class="st2" d="M335.04,575.18c102.49-35.05,169.08-188.46,148.43-341.97"/>
						<path class="st2" d="M335.04,575.18c31.49-32.3,40.31-183.47,19.66-336.98"/>
					</g>
					<g>
						<path class="st2" d="M335.04,575.18c-50-20.77-107.47-162.57-128.12-316.08C58.76,287.59-20.75,327.56,29.33,348.37
							C49.97,501.88,187.12,603.63,335.04,575.18z"/>
						<path class="st2" d="M284.19,518.11c-74.72,14.37-114.82,34.53-89.56,45.02"/>
						<path class="st2" d="M238.2,404.66c-127.9,24.6-196.54,59.1-153.31,77.06"/>
						<path class="st2" d="M335.04,575.18C217.21,571.6,104.54,443.79,83.9,290.28"/>
						<path class="st2" d="M335.04,575.18c-152.96,14.08-294.2-99.36-314.85-252.87"/>
					</g>
					<g>
						<path class="st2" d="M29.33,348.37C8.68,194.86,112.23,46.82,260.15,18.38c50,20.77,107.47,162.56,128.12,316.07
							C240.11,362.94,79.41,369.17,29.33,348.37z"/>
						<path class="st2" d="M47.12,200.91c43.23,17.96,181.96,12.59,309.87-12.01"/>
						<path class="st2" d="M129.98,82.46c25.26,10.49,106.3,7.35,181.02-7.02"/>
						<path class="st2" d="M111.72,360.34C91.07,206.83,157.66,53.43,260.15,18.38"/>
						<path class="st2" d="M240.49,355.35c-20.64-153.51-11.82-304.67,19.66-336.97"/>
					</g>
					<g>
						<path class="st2" d="M388.27,334.45c-20.64-153.51-78.12-295.3-128.12-316.07c147.92-28.45,285.06,73.3,305.71,226.81
							C615.94,265.99,536.43,305.96,388.27,334.45z"/>
						<path class="st2" d="M356.99,188.9c127.9-24.6,196.54-59.1,153.31-77.06"/>
						<path class="st2" d="M311,75.44c74.72-14.37,114.82-34.53,89.56-45.02"/>
						<path class="st2" d="M511.29,303.27C490.64,149.76,377.98,21.96,260.15,18.38"/>
						<path class="st2" d="M575,271.24C554.36,117.73,413.11,4.3,260.15,18.38"/>
					</g>
					<g>
						<path class="st2" d="M565.86,245.18C545.22,91.67,408.07-10.07,260.15,18.38c-50-20.77-73.88,87.21-53.24,240.72
							C355.08,230.61,515.78,224.38,565.86,245.18z"/>
						<path class="st2" d="M510.3,111.83c-43.23-17.96-181.96-12.59-309.87,12.01"/>
						<path class="st2" d="M400.57,30.42c-25.26-10.49-106.3-7.35-181.02,7.02"/>
						<path class="st2" d="M483.47,233.21C462.82,79.7,362.64-16.67,260.15,18.38"/>
						<path class="st2" d="M354.7,238.2C334.05,84.69,291.64-13.92,260.15,18.38"/>
					</g>
					<g>
						<path class="st2" d="M206.92,259.1c-20.64-153.51,3.24-261.5,53.24-240.72C112.23,46.82,8.68,194.86,29.33,348.37
							C-20.75,327.56,58.76,287.59,206.92,259.1z"/>
						<path class="st2" d="M200.43,123.85c-127.9,24.6-196.54,59.1-153.31,77.06"/>
						<path class="st2" d="M219.54,37.44c-74.72,14.37-114.82,34.53-89.56,45.02"/>
						<path class="st2" d="M83.9,290.28C63.25,136.77,142.32,14.8,260.15,18.38"/>
						<path class="st2" d="M20.19,322.31C-0.46,168.8,107.19,32.45,260.15,18.38"/>
					</g>
				</g>
				<path class="st5" d="M351.57,577.3c-14.19,2.73-28.23,4.34-42.92,4.93c-5.71,0.23-10.93,0.22-10.98,0.22
					c-4.03-0.02-9.4-0.17-13.43-0.31c-6.34-0.23-14.21-1.03-18-1.42c-10.41-1.06-21.06-3.14-25.61-4.03
					c-6.13-1.2-14.17-3.36-20.21-4.92c-9.84-2.54-22.51-7.49-32-11.12C105.49,526.2,42.76,448.23,29.33,348.37
					C8.68,194.86,112.23,46.82,260.15,18.38C112.23,46.82,8.68,194.86,29.33,348.37c13.43,99.87,76.17,177.83,159.1,212.29
					c0,0,0,0,0,0c-5.57-2.55-13.11-5.7-18.56-8.5c-6.9-3.54-15.97-8.54-22.57-12.62c-18.67-11.53-32.14-23.07-36.57-26.86
					c-7.57-6.49-19.21-17.31-31.71-32.06c-8.54-10.08-18.55-24.66-25.74-35.75c-3.82-5.9-8.19-14.22-11.34-20.5
					c-3.03-6.03-6.73-14.23-9.25-20.49c-2.65-6.58-5.84-15.51-7.95-22.28c-2.05-6.59-4.16-15.56-5.93-22.24
					c-0.07-0.25-0.14-0.58-0.18-0.83c-1.27-7.1-3.5-16.5-4.2-23.69c-1.34-13.85-2.76-32.4-2.45-46.31
					c0.18-8.21,1.07-25.07,5.03-45.72c4.11-21.43,9.91-37.52,12.09-43.57c3.36-9.32,9.31-23.94,18.6-40.7
					c3.34-6.03,8.14-13.87,11.94-19.62c3.55-5.38,8.78-12.21,12.56-17.43c4.06-5.62,10.25-12.52,14.91-17.64
					C91.31,99.22,97.19,93.3,101.73,89c5.05-4.79,12.11-10.84,17.51-15.24c4.45-3.62,10.68-8.08,15.32-11.46
					c5.65-4.12,13.65-8.92,19.64-12.53c3.73-2.25,8.86-4.97,12.72-6.97c10.64-5.52,21.8-10.39,33.16-14.48
					c8.75-3.15,22.61-7.64,38.97-11.13c8.83-1.89,17.35-3.09,17.44-3.1c4.96-0.69,6.31-0.87,12.2-1.51
					c1.59-0.17,5.86-0.56,8.51-0.74c2.78-0.19,11.23-0.76,20.34-0.73c10.64,0.03,16.35,0.44,22.4,0.87c2.97,0.21,6.93,0.6,9.89,0.95
					c3.67,0.43,8.56,1.12,12.22,1.66c4.82,0.71,11.21,1.92,15.97,3c10.22,2.31,23.74,5.96,33.59,9.51c4.59,1.65,10.7,3.88,15.18,5.8
					c6.49,2.79,15.17,6.51,21.36,9.92c5.51,3.04,12.94,6.97,18.29,10.29c6.31,3.91,14.56,9.41,20.54,13.8
					c5.21,3.83,11.97,9.19,16.86,13.42c5.37,4.64,12.42,10.99,17.3,16.14c9.51,10.02,17.72,18.68,29.06,34.49
					c7.76,10.81,16.57,26.29,22.93,37.98c3.37,6.19,7.02,14.89,9.66,21.43c2.55,6.32,5.34,14.98,7.62,21.41
					c2.4,6.76,4.79,16.05,6.14,23.1c1.36,7.13,3.25,16.64,4.23,23.84c0.94,6.95,1.7,16.28,2.18,23.28
					c0.78,11.49,0.48,26.92-0.57,38.39c-0.62,6.74-1.66,15.72-2.76,22.4c-1.13,6.87-3.01,15.97-4.68,22.72
					c-1.6,6.45-4.08,14.98-6.2,21.28c-2.19,6.54-5.45,15.15-8.15,21.49c-2.72,6.39-6.49,14.89-9.94,20.93
					c-6.42,11.25-15.21,26.18-22.9,36.61c-4.11,5.57-9.89,12.78-14.4,18.02c-4.11,4.78-10.03,10.75-14.33,15.36
					c-4.75,5.09-11.67,11.32-17.09,15.7c-4.57,3.69-10.61,8.69-15.37,12.14c-5.63,4.09-13.39,9.2-19.24,12.98
					c-7.78,5.03-18.77,10.78-27.13,14.78c-2.92,1.4-6.87,3.15-9.84,4.44c-2.17,0.94-5.11,2.1-7.3,2.98
					c-4.34,1.74-10.21,3.84-14.65,5.3C382.92,569.3,368.43,574.06,351.57,577.3z"/>
			</g>
			<g class="st0">
				<defs>
					<path id="SVGID_5_" class="st0" d="M407.53,30.86c6.33,2.66,14.6,6.59,20.76,9.61c3.37,1.65,7.78,4.03,11,5.94
						c12.83,7.6,12.83,7.6,20.24,12.62c5.54,3.76,12.72,9.08,17.95,13.26c2.8,2.24,6.53,5.25,9.19,7.66
						c2.57,2.32,6.05,5.37,8.57,7.75c2.57,2.42,5.99,5.67,8.41,8.24c2.36,2.5,5.55,5.8,7.86,8.35c2.34,2.59,5.39,6.11,7.63,8.79
						c8.18,9.82,13.91,18.13,13.96,18.2c1.91,2.82,4.51,6.55,6.36,9.41c1.87,2.9,4.29,6.81,6.04,9.78
						c3.84,6.5,7.48,13.27,10.8,20.09c3.31,6.79,6.39,13.83,9.17,20.92c2.5,6.38,5.36,15.06,7.46,21.57
						c0.03,0.09,3.04,9.69,5.8,22.44c1.47,6.8,2.94,15.96,4,22.84c1.23,7.94,2.6,24.95,2.6,34.78c0,10.71-0.01,14.17-0.58,22.99
						c-0.5,7.62-1.3,15.2-2.4,22.75c-1.13,7.7-2.46,14.82-4.21,22.42c-0.77,3.35-1.89,7.8-2.79,11.12c-0.9,3.29-2.24,7.63-3.2,10.89
						c-0.03,0.09-2.92,9.61-7.77,21.52c-1.31,3.21-3.14,7.46-4.57,10.62c-1.42,3.12-3.46,7.22-4.94,10.31
						c-1.51,3.15-3.7,7.28-5.46,10.31c-3.48,5.98-8.19,13.91-12,19.68c-1.85,2.81-6.91,10.29-13.82,19.05
						c-2.24,2.83-5.29,6.55-7.64,9.29c-2.26,2.64-5.4,6.05-7.71,8.65c-2.41,2.69-5.81,6.11-8.37,8.65c-2.44,2.42-5.81,5.54-8.3,7.91
						c-2.64,2.51-6.31,5.69-9.12,8c-2.62,2.16-6.12,5.04-8.81,7.12c-2.93,2.26-6.89,5.21-9.91,7.35c-2.72,1.93-6.39,4.43-9.18,6.24
						c-3.2,2.07-7.53,4.72-10.78,6.69c-2.73,1.66-6.46,3.74-9.28,5.25c-3.53,1.89-8.29,4.28-11.87,6.07
						c-4.47,2.23-10.58,4.89-15.2,6.79c-26.15,10.74-47.26,14.91-55.2,16.48c-2.15,0.42-6.71,1.28-13.15,2.22
						c-6.23,0.92-12.34,1.53-12.4,1.53c-2.66,0.25-8.19,0.78-13.28,1.04c-3.53,0.18-8.87,0.45-15.99,0.45
						c-6.82,0-11.96-0.23-13.85-0.33c-4.75-0.24-11.07-0.76-15.81-1.19c-3.89-0.35-15.87-1.92-22.05-3.15
						c-5.94-1.18-13.84-2.93-19.73-4.34c-3.2-0.77-7.41-2.01-10.56-2.94c-3.2-0.95-7.45-2.28-10.59-3.4
						c-5.17-1.84-12.02-4.43-17.12-6.47c45.91,19.08,96.68,24.24,147.64,14.44c-50.96,9.8-101.73,4.64-147.64-14.44c0,0,0,0,0,0
						c-6.15-2.7-14.34-6.32-20.32-9.39c-2.72-1.39-10.98-5.63-20.69-11.65c-5.94-3.68-13.68-8.89-19.32-13.03
						c-2.93-2.15-6.78-5.1-9.62-7.37c-2.73-2.18-6.26-5.21-8.94-7.44c-6.78-5.65-19.42-18.05-25.08-24.55
						c-2.29-2.63-5.39-6.11-7.63-8.79c-2.19-2.63-5.04-6.19-7.12-8.9c-6.62-8.62-11.18-15.61-13.2-18.71
						c-5.62-8.66-13.93-22.65-21.61-40.18c-3.06-6.99-5.84-14.08-8.34-21.31c-1.13-3.27-2.55-7.66-3.55-10.98
						c-0.99-3.29-2.17-7.73-3.09-11.04c-2.3-8.22-5.71-25.67-6.7-34.23c-0.79-6.91-1.8-16.14-2.18-23.08
						c-0.19-3.48-0.35-8.12-0.4-11.6c-0.05-3.44,0.02-8.03,0.06-11.47c0-0.1,0.14-10.05,1.49-22.87c0.79-7.53,1.91-15.13,3.3-22.59
						c1.39-7.44,3.11-14.92,5.1-22.22c0.9-3.32,2.2-7.73,3.24-11.01c1.03-3.25,2.54-7.53,3.64-10.75c0.03-0.09,3.34-9.57,8.63-21.22
						c1.44-3.17,3.45-7.36,5.02-10.47c1.55-3.07,3.75-7.09,5.36-10.12c1.65-3.11,4.07-7.13,5.9-10.13c1.8-2.96,4.34-6.81,6.2-9.73
						c1.92-3.01,4.73-6.84,6.79-9.76c5.82-8.27,17.25-22.01,23.6-28.54c10.6-10.88,10.6-10.88,16.84-16.52
						c2.54-2.29,5.97-5.28,8.6-7.47c2.82-2.35,6.65-5.39,9.56-7.63c2.66-2.06,6.29-4.71,9.04-6.64c3.07-2.15,7.26-4.9,10.39-6.98
						c3.38-2.25,8.03-5.04,11.56-7.02c5.38-3.02,12.62-6.94,18.18-9.6c3.79-1.81,8.9-4.1,12.76-5.78c2.4-1.04,5.64-2.33,8.07-3.28
						c9.19-3.57,17.2-6.22,27.65-9.13c4.84-1.35,14.75-3.93,26.73-6.04c7.08-1.25,12.66-1.95,12.71-1.95
						c7.5-0.93,9.68-1.15,16.86-1.71c6.03-0.46,12.44-0.62,14.85-0.69c3.44-0.09,4.1-0.08,12.13,0c5.21,0.05,11.53,0.48,15.31,0.74
						c3.31,0.22,7.71,0.65,11.01,1.04c11.64,1.38,18.93,2.71,28.32,4.68c6.38,1.34,14.83,3.48,21.05,5.44
						c3.18,1,7.45,2.28,10.59,3.4C395.59,26.23,402.47,28.73,407.53,30.86z"/>
				</defs>
				<clipPath id="SVGID_6_">
					<use xlink:href="#SVGID_5_"  style="overflow:visible;"/>
				</clipPath>
				<g class="st6">
					<g>
						<path class="st2" d="M259.89,16.42C187.73,30.3,123.81,72.51,79.91,135.27c35.66,14.82,150.09,10.38,255.58-9.91
							C311.13,65.25,284.28,26.56,259.89,16.42z"/>
						<path class="st2" d="M190.91,39.46c13.12,5.45,55.2,3.82,94-3.64"/>
						<path class="st2" d="M130.05,79.65c25.17,10.46,105.96,7.33,180.44-6.99"/>
						<path class="st2" d="M259.89,16.42c-50,17.1-93.08,62.34-121.31,127.38"/>
						<path class="st2" d="M259.89,16.42c-15.36,15.75-25.88,59.73-29.62,123.82"/>
					</g>
					<g>
						<path class="st2" d="M259.89,16.42c24.39,10.13,51.24,48.83,75.61,108.94C441,105.07,497.61,76.62,461.95,61.8
							C403.81,18.66,332.05,2.54,259.89,16.42z"/>
						<path class="st2" d="M284.92,35.81c38.8-7.46,59.62-17.93,46.51-23.38"/>
						<path class="st2" d="M310.49,72.65c74.48-14.32,114.45-34.41,89.27-44.87"/>
						<path class="st2" d="M259.89,16.42c57.48,1.75,115.44,32.56,163.2,86.74"/>
						<path class="st2" d="M259.89,16.42c74.62-6.87,148.69,15.84,208.57,63.94"/>
					</g>
					<g>
						<path class="st2" d="M259.89,16.42c72.16-13.88,143.92,2.24,202.06,45.38c-35.66-14.82-150.09-10.38-255.58,9.91
							C216.49,25.93,235.5,6.29,259.89,16.42z"/>
						<path class="st2" d="M331.43,12.43c-13.12-5.45-55.2-3.82-94,3.64"/>
						<path class="st2" d="M399.76,27.78c-25.17-10.46-105.96-7.33-180.44,6.99"/>
						<path class="st2" d="M259.89,16.42c50-17.1,100.92-4,143.4,36.85"/>
						<path class="st2" d="M259.89,16.42c15.36-15.75,33.72-1.4,51.7,40.41"/>
					</g>
					<g>
						<path class="st2" d="M259.89,16.42c-24.39-10.13-43.4,9.5-53.52,55.29C100.87,92,44.26,120.45,79.91,135.27
							C123.81,72.51,187.73,30.3,259.89,16.42z"/>
						<path class="st2" d="M237.42,16.08c-38.8,7.46-59.62,17.93-46.51,23.38"/>
						<path class="st2" d="M219.32,34.77c-74.48,14.32-114.45,34.41-89.27,44.87"/>
						<path class="st2" d="M259.89,16.42c-57.48-1.75-107.6,25.78-141.12,77.49"/>
						<path class="st2" d="M259.89,16.42c-74.62,6.87-140.85,42.49-186.48,100.29"/>
					</g>
					<g>
						<path class="st2" d="M79.91,135.27c-43.91,62.77-62.54,138.57-52.46,213.46c50.43,20.95,212.26,14.68,361.45-14.01
							c-10.07-74.89-29.03-149.23-53.4-209.35C230,145.65,115.57,150.09,79.91,135.27z"/>
						<path class="st2" d="M44.56,201.87c43.72,18.17,184.03,12.73,313.38-12.15"/>
						<path class="st2" d="M26.82,274.05c48.72,20.24,205.05,14.18,349.18-13.54"/>
						<path class="st2" d="M138.58,143.8c-28.23,65.05-38.23,142.1-28.16,216.99"/>
						<path class="st2" d="M230.27,140.24c-3.74,64.1-0.25,140.63,9.82,215.51"/>
					</g>
					<g>
						<path class="st2" d="M335.5,125.36c24.37,60.12,43.33,134.46,53.4,209.35c149.2-28.69,229.26-68.94,178.83-89.89
							C557.67,169.94,520.1,104.94,461.95,61.8C497.61,76.62,441,105.07,335.5,125.36z"/>
						<path class="st2" d="M357.94,189.72c129.35-24.88,198.77-59.77,155.05-77.94"/>
						<path class="st2" d="M376,260.52c144.13-27.72,221.48-66.6,172.76-86.84"/>
						<path class="st2" d="M423.1,103.16c47.77,54.19,79.62,125.27,89.69,200.15"/>
						<path class="st2" d="M468.46,80.36c59.89,48.1,98.41,115.82,108.48,190.71"/>
					</g>
					<g>
						<path class="st2" d="M461.95,61.8c58.15,43.14,95.71,108.14,105.78,183.02c-50.43-20.95-212.26-14.68-361.45,14.01
							c-10.07-74.89-10.04-141.34,0.08-187.13C311.87,51.42,426.29,46.98,461.95,61.8z"/>
						<path class="st2" d="M512.98,111.78c-43.72-18.17-184.03-12.73-313.38,12.15"/>
						<path class="st2" d="M548.76,173.68c-48.72-20.24-205.05-14.18-349.18,13.54"/>
						<path class="st2" d="M403.29,53.28c42.48,40.87,71.41,104.6,81.48,179.49"/>
						<path class="st2" d="M311.59,56.83c17.98,41.82,33.43,106.08,43.5,180.96"/>
					</g>
					<g>
						<path class="st2" d="M206.37,71.71c-10.13,45.79-10.16,112.24-0.08,187.13c-149.2,28.69-229.26,68.94-178.83,89.89
							c-10.07-74.89,8.56-150.69,52.46-213.46C44.26,120.45,100.87,92,206.37,71.71z"/>
						<path class="st2" d="M199.61,123.93C70.26,148.81,0.84,183.7,44.56,201.87"/>
						<path class="st2" d="M199.58,187.21C55.45,214.93-21.9,253.81,26.82,274.05"/>
						<path class="st2" d="M118.77,93.91C85.25,145.63,72.33,215.35,82.4,290.24"/>
						<path class="st2" d="M73.41,116.72C27.76,174.53,8.18,247.6,18.25,322.48"/>
					</g>
					<g>
						<path class="st2" d="M27.45,348.73c10.07,74.89,47.64,139.89,105.78,183.02c35.66,14.82,150.09,10.38,255.58-9.91
							c10.13-45.78,10.16-112.24,0.08-187.13C239.71,363.41,77.88,369.68,27.45,348.73z"/>
						<path class="st2" d="M46.43,419.87c48.72,20.24,205.05,14.18,349.18-13.54"/>
						<path class="st2" d="M82.2,481.77c43.72,18.17,184.03,12.73,313.38-12.15"/>
						<path class="st2" d="M110.42,360.78c10.07,74.89,39.01,138.63,81.48,179.49"/>
						<path class="st2" d="M240.09,355.76c10.07,74.89,25.52,139.16,43.5,180.96"/>
					</g>
					<g>
						<path class="st2" d="M388.9,334.71c10.07,74.89,10.04,141.35-0.08,187.13c105.5-20.29,162.11-48.75,126.45-63.56
							c43.91-62.76,62.54-138.57,52.46-213.46C618.17,265.78,538.1,306.02,388.9,334.71z"/>
						<path class="st2" d="M395.61,406.34c144.13-27.72,221.48-66.6,172.76-86.84"/>
						<path class="st2" d="M395.58,469.62c129.35-24.88,198.77-59.77,155.05-77.94"/>
						<path class="st2" d="M512.78,303.31c10.07,74.89-2.84,144.61-36.37,196.32"/>
						<path class="st2" d="M576.94,271.06c10.07,74.89-9.51,147.96-55.16,205.77"/>
					</g>
					<g>
						<path class="st2" d="M567.74,244.82c10.07,74.89-8.56,150.69-52.46,213.46c-35.66-14.82-150.09-10.38-255.58,9.91
							c-24.37-60.11-43.33-134.46-53.4-209.35C355.48,230.14,517.31,223.87,567.74,244.82z"/>
						<path class="st2" d="M568.37,319.5c-48.72-20.24-205.05-14.18-349.18,13.54"/>
						<path class="st2" d="M550.63,391.69c-43.72-18.17-184.03-12.73-313.38,12.15"/>
						<path class="st2" d="M484.77,232.77c10.07,74.89,0.07,151.95-28.16,216.99"/>
						<path class="st2" d="M355.1,237.79c10.07,74.89,13.56,151.43,9.82,215.51"/>
					</g>
					<g>
						<path class="st2" d="M206.28,258.83c10.07,74.89,29.04,149.24,53.4,209.35c-105.5,20.29-162.11,48.75-126.45,63.56
							C75.09,488.61,37.52,423.61,27.45,348.73C-22.98,327.77,57.09,287.53,206.28,258.83z"/>
						<path class="st2" d="M219.19,333.04C75.06,360.75-2.29,399.63,46.43,419.87"/>
						<path class="st2" d="M237.25,403.83C107.9,428.71,38.48,463.6,82.2,481.77"/>
						<path class="st2" d="M82.4,290.24c10.07,74.89,41.92,145.97,89.69,200.15"/>
						<path class="st2" d="M18.25,322.48c10.07,74.89,48.59,142.62,108.48,190.71"/>
					</g>
					<g>
						<path class="st2" d="M133.23,531.75c58.14,43.14,129.9,59.26,202.06,45.38c24.39,10.13,43.4-9.5,53.52-55.29
							C283.32,542.13,168.89,546.57,133.23,531.75z"/>
						<path class="st2" d="M195.43,565.77c25.17,10.46,105.96,7.33,180.44-6.99"/>
						<path class="st2" d="M263.76,581.12c13.12,5.45,55.2,3.82,94-3.64"/>
						<path class="st2" d="M191.9,540.27c42.47,40.86,93.4,53.95,143.4,36.85"/>
						<path class="st2" d="M283.59,536.72c17.98,41.81,36.34,56.16,51.7,40.41"/>
					</g>
					<g>
						<path class="st2" d="M388.82,521.84c-10.12,45.78-29.13,65.42-53.52,55.29c72.16-13.88,136.08-56.09,179.98-118.85
							C550.93,473.09,494.32,501.55,388.82,521.84z"/>
						<path class="st2" d="M375.86,558.77c74.48-14.32,114.45-34.41,89.27-44.87"/>
						<path class="st2" d="M357.76,577.47c38.8-7.46,59.62-17.93,46.51-23.38"/>
						<path class="st2" d="M476.42,499.64c-33.52,51.71-83.64,79.24-141.12,77.49"/>
						<path class="st2" d="M521.78,476.83c-45.64,57.8-111.87,93.43-186.48,100.29"/>
					</g>
					<g>
						<path class="st2" d="M515.27,458.28c-43.9,62.76-107.82,104.97-179.98,118.85c-24.39-10.13-51.24-48.83-75.61-108.94
							C365.19,447.9,479.61,443.46,515.27,458.28z"/>
						<path class="st2" d="M465.14,513.9c-25.17-10.46-105.96-7.33-180.44,6.99"/>
						<path class="st2" d="M404.27,554.09c-13.12-5.45-55.2-3.82-94,3.64"/>
						<path class="st2" d="M456.61,449.75c-28.23,65.04-71.31,110.28-121.31,127.38"/>
						<path class="st2" d="M364.91,453.31c-3.74,64.09-14.26,108.07-29.62,123.82"/>
					</g>
					<g>
						<path class="st2" d="M259.69,468.19c24.37,60.11,51.22,98.81,75.61,108.94c-72.16,13.88-143.92-2.24-202.06-45.38
							C97.58,516.93,154.19,488.47,259.69,468.19z"/>
						<path class="st2" d="M284.7,520.9c-74.48,14.32-114.45,34.41-89.27,44.87"/>
						<path class="st2" d="M310.27,557.74c-38.8,7.46-59.62,17.93-46.51,23.38"/>
						<path class="st2" d="M172.09,490.39c47.76,54.18,105.72,84.99,163.2,86.74"/>
						<path class="st2" d="M126.73,513.19c59.88,48.09,133.95,70.8,208.57,63.94"/>
					</g>
				</g>
				<path class="st7" d="M407.53,30.86c6.33,2.66,14.6,6.59,20.76,9.61c3.37,1.65,7.78,4.03,11,5.94
					c12.83,7.6,12.83,7.6,20.24,12.62c5.54,3.76,12.72,9.08,17.95,13.26c2.8,2.24,6.53,5.25,9.19,7.66
					c2.57,2.32,6.05,5.37,8.57,7.75c2.57,2.42,5.99,5.67,8.41,8.24c2.36,2.5,5.55,5.8,7.86,8.35c2.34,2.59,5.39,6.11,7.63,8.79
					c8.18,9.82,13.91,18.13,13.96,18.2c1.91,2.82,4.51,6.55,6.36,9.41c1.87,2.9,4.29,6.81,6.04,9.78c3.84,6.5,7.48,13.27,10.8,20.09
					c3.31,6.79,6.39,13.83,9.17,20.92c2.5,6.38,5.36,15.06,7.46,21.57c0.03,0.09,3.04,9.69,5.8,22.44c1.47,6.8,2.94,15.96,4,22.84
					c1.23,7.94,2.6,24.95,2.6,34.78c0,10.71-0.01,14.17-0.58,22.99c-0.5,7.62-1.3,15.2-2.4,22.75c-1.13,7.7-2.46,14.82-4.21,22.42
					c-0.77,3.35-1.89,7.8-2.79,11.12c-0.9,3.29-2.24,7.63-3.2,10.89c-0.03,0.09-2.92,9.61-7.77,21.52
					c-1.31,3.21-3.14,7.46-4.57,10.62c-1.42,3.12-3.46,7.22-4.94,10.31c-1.51,3.15-3.7,7.28-5.46,10.31
					c-3.48,5.98-8.19,13.91-12,19.68c-1.85,2.81-6.91,10.29-13.82,19.05c-2.24,2.83-5.29,6.55-7.64,9.29
					c-2.26,2.64-5.4,6.05-7.71,8.65c-2.41,2.69-5.81,6.11-8.37,8.65c-2.44,2.42-5.81,5.54-8.3,7.91c-2.64,2.51-6.31,5.69-9.12,8
					c-2.62,2.16-6.12,5.04-8.81,7.12c-2.93,2.26-6.89,5.21-9.91,7.35c-2.72,1.93-6.39,4.43-9.18,6.24
					c-3.2,2.07-7.53,4.72-10.78,6.69c-2.73,1.66-6.46,3.74-9.28,5.25c-3.53,1.89-8.29,4.28-11.87,6.07
					c-4.47,2.23-10.58,4.89-15.2,6.79c-26.15,10.74-47.26,14.91-55.2,16.48c-2.15,0.42-6.71,1.28-13.15,2.22
					c-6.23,0.92-12.34,1.53-12.4,1.53c-2.66,0.25-8.19,0.78-13.28,1.04c-3.53,0.18-8.87,0.45-15.99,0.45
					c-6.82,0-11.96-0.23-13.85-0.33c-4.75-0.24-11.07-0.76-15.81-1.19c-3.89-0.35-15.87-1.92-22.05-3.15
					c-5.94-1.18-13.84-2.93-19.73-4.34c-3.2-0.77-7.41-2.01-10.56-2.94c-3.2-0.95-7.45-2.28-10.59-3.4
					c-5.17-1.84-12.02-4.43-17.12-6.47c45.91,19.08,96.68,24.24,147.64,14.44c-50.96,9.8-101.73,4.64-147.64-14.44c0,0,0,0,0,0
					c-6.15-2.7-14.34-6.32-20.32-9.39c-2.72-1.39-10.98-5.63-20.69-11.65c-5.94-3.68-13.68-8.89-19.32-13.03
					c-2.93-2.15-6.78-5.1-9.62-7.37c-2.73-2.18-6.26-5.21-8.94-7.44c-6.78-5.65-19.42-18.05-25.08-24.55
					c-2.29-2.63-5.39-6.11-7.63-8.79c-2.19-2.63-5.04-6.19-7.12-8.9c-6.62-8.62-11.18-15.61-13.2-18.71
					c-5.62-8.66-13.93-22.65-21.61-40.18c-3.06-6.99-5.84-14.08-8.34-21.31c-1.13-3.27-2.55-7.66-3.55-10.98
					c-0.99-3.29-2.17-7.73-3.09-11.04c-2.3-8.22-5.71-25.67-6.7-34.23c-0.79-6.91-1.8-16.14-2.18-23.08
					c-0.19-3.48-0.35-8.12-0.4-11.6c-0.05-3.44,0.02-8.03,0.06-11.47c0-0.1,0.14-10.05,1.49-22.87c0.79-7.53,1.91-15.13,3.3-22.59
					c1.39-7.44,3.11-14.92,5.1-22.22c0.9-3.32,2.2-7.73,3.24-11.01c1.03-3.25,2.54-7.53,3.64-10.75c0.03-0.09,3.34-9.57,8.63-21.22
					c1.44-3.17,3.45-7.36,5.02-10.47c1.55-3.07,3.75-7.09,5.36-10.12c1.65-3.11,4.07-7.13,5.9-10.13c1.8-2.96,4.34-6.81,6.2-9.73
					c1.92-3.01,4.73-6.84,6.79-9.76c5.82-8.27,17.25-22.01,23.6-28.54c10.6-10.88,10.6-10.88,16.84-16.52
					c2.54-2.29,5.97-5.28,8.6-7.47c2.82-2.35,6.65-5.39,9.56-7.63c2.66-2.06,6.29-4.71,9.04-6.64c3.07-2.15,7.26-4.9,10.39-6.98
					c3.38-2.25,8.03-5.04,11.56-7.02c5.38-3.02,12.62-6.94,18.18-9.6c3.79-1.81,8.9-4.1,12.76-5.78c2.4-1.04,5.64-2.33,8.07-3.28
					c9.19-3.57,17.2-6.22,27.65-9.13c4.84-1.35,14.75-3.93,26.73-6.04c7.08-1.25,12.66-1.95,12.71-1.95
					c7.5-0.93,9.68-1.15,16.86-1.71c6.03-0.46,12.44-0.62,14.85-0.69c3.44-0.09,4.1-0.08,12.13,0c5.21,0.05,11.53,0.48,15.31,0.74
					c3.31,0.22,7.71,0.65,11.01,1.04c11.64,1.38,18.93,2.71,28.32,4.68c6.38,1.34,14.83,3.48,21.05,5.44c3.18,1,7.45,2.28,10.59,3.4
					C395.59,26.23,402.47,28.73,407.53,30.86z"/>
			</g>
			<g class="st0">
				<defs>
					<path id="SVGID_7_" class="st0" d="M468.22,65.19c9.92,7.16,22.3,17.88,27.2,22.68c2.51,2.46,5.91,5.7,8.37,8.21
						c2.41,2.46,5.54,5.8,7.85,8.35c7.34,8.13,12.49,14.78,14.71,17.67c11.35,14.75,19.21,28.47,19.21,28.47
						c1.67,2.96,3.96,6.88,5.57,9.88c1.63,3.03,3.72,7.11,5.22,10.21c5.63,11.58,9.12,20.83,9.16,20.92
						c1.19,3.21,2.82,7.46,3.94,10.7c1.13,3.27,2.55,7.66,3.55,10.97c2.21,7.35,4.15,14.87,5.77,22.34
						c1.65,7.65,2.96,15.15,4.01,22.93c0.93,6.89,1.66,16.15,2.17,23.08c0.63,8.5,0.53,26.17-0.19,34.6
						c-0.29,3.44-0.62,8.03-0.99,11.47c-0.36,3.39-0.93,7.91-1.43,11.29c-1.85,12.59-4.2,22.34-4.22,22.44
						c-2.49,10.27-3.6,14.43-6.01,22.03c-1.5,4.73-3.94,12.11-7.79,21.54c-2.05,5.02-4.99,11.94-9.55,20.96
						c-3.77,7.46-3.77,7.46-11.31,20.3c-1.81,3.08-4.43,7.05-6.41,10.02c-1.94,2.9-4.66,6.67-6.65,9.53
						c-2.09,2.99-5.03,6.86-7.35,9.67c-4.44,5.38-10.4,12.53-15.16,17.63c-6.76,7.25-10.57,10.8-16.87,16.69
						c-2.75,2.57-6.57,5.83-9.45,8.25c-2.6,2.18-6.18,4.96-8.83,7.08c-3.08,2.46-7.33,5.54-10.58,7.76
						c-10.03,6.84-11.66,7.82-21.46,13.62c-4.62,2.73-10.95,6.08-15.78,8.41c-4.92,2.36-11.03,5.31-18.03,8.12
						c-4.32,1.74-11.55,4.65-21.72,7.89c-19.99,6.36-35.93,8.98-41.94,9.97c-6.28,1.03-13.31,1.9-20.89,2.58
						c-8.75,0.78-16.84,0.97-19.49,1.03c-7.48,0.17-14.64-0.05-19.33-0.27c-1.62-0.08-10.14-0.51-18.78-1.51
						c-5.58-0.65-13-1.75-18.54-2.73c-4.92-0.87-11.45-2.19-16.28-3.44c-6.38-1.65-14.86-3.95-21.13-6
						c-6.43-2.1-14.84-5.35-21.14-7.82c-19.09-7.93-37.34-18.27-54.42-30.94C75.09,488.61,37.52,423.61,27.45,348.73
						s8.56-150.69,52.46-213.46C123.81,72.51,187.73,30.3,259.89,16.42C187.73,30.3,123.81,72.51,79.91,135.27
						c-43.91,62.77-62.54,138.57-52.46,213.46s47.64,139.89,105.78,183.02c17.08,12.67,35.33,23.01,54.42,30.94
						c-3-1.31-7.02-3-9.99-4.37c-3.3-1.53-7.67-3.65-10.91-5.31c-6.16-3.16-14.15-7.82-20.11-11.35
						c-7.96-4.72-22.6-15.11-29.2-20.61c-2.68-2.23-6.3-5.16-8.93-7.45c-2.67-2.32-6.17-5.49-8.75-7.92
						c-7.39-6.96-12.55-12.51-16.22-16.57c-6.84-7.56-11.67-13.71-14.71-17.67c-6.63-8.65-11.17-15.62-13.17-18.7
						c-5.61-8.64-13.9-22.62-21.58-40.17c-3.06-6.98-5.83-14.07-8.33-21.31c-1.13-3.27-2.55-7.66-3.55-10.97
						c-0.99-3.29-2.16-7.73-3.09-11.04c-2.28-8.17-5.69-25.52-6.68-34.23c-0.79-6.91-1.8-16.14-2.17-23.08
						c-0.19-3.48-0.35-8.12-0.4-11.61c-0.05-3.44,0.01-8.03,0.06-11.47c0.01-0.41,0.16-10.23,1.5-22.88
						c0.8-7.54,1.91-15.14,3.31-22.6c1.42-7.55,3.1-14.87,5.15-22.37c1.79-6.57,4.66-15.2,6.85-21.64
						c0.03-0.09,3.36-9.61,8.65-21.24c1.45-3.18,3.46-7.38,5.04-10.5c1.55-3.07,3.76-7.09,5.37-10.12c1.66-3.12,4.1-7.16,5.94-10.18
						c1.8-2.96,4.35-6.81,6.21-9.73c1.93-3.03,4.77-6.89,6.85-9.82c6.82-9.6,18.26-23.03,23.81-28.69c2.42-2.47,5.59-5.8,8.07-8.22
						c2.66-2.6,6.28-6,9.04-8.48c2.54-2.28,5.98-5.26,8.62-7.44c2.97-2.45,7-5.62,10.05-7.96c2.67-2.04,6.3-4.67,9.07-6.58
						c3.38-2.33,7.98-5.32,11.43-7.55c4.07-2.64,9.68-5.85,13.92-8.19c11.57-6.39,23.87-12.08,36.56-16.89
						c0.78-0.3,7.8-2.95,14.13-4.93c9.01-2.83,14.8-4.33,17.45-4.98c3.29-0.8,7.67-1.85,10.98-2.56c3.19-0.68,3.8-0.8,9.68-1.88
						c3.93-0.72,11.79-1.91,16.81-2.46c5.84-0.64,6.59-0.72,12.77-1.2c2.88-0.22,5.52-0.34,9.52-0.53
						c3.63-0.17,7.77-0.19,11.11-0.22c2.18-0.02,5.1,0.06,7.28,0.09c0.3,0,7.44,0.11,17.24,0.95c5.12,0.43,11.92,1.27,17.01,1.96
						c5.87,0.8,13.63,2.29,19.42,3.52c5.15,1.1,11.96,2.87,17.04,4.27c6.44,1.78,14.87,4.71,21.18,6.9
						c3.21,1.12,7.41,2.84,10.55,4.14c3.43,1.42,8,3.36,11.33,5c3.27,1.6,7.65,3.69,10.88,5.36c3.07,1.59,7.1,3.81,10.11,5.51
						c5.79,3.27,13.24,8.09,18.82,11.72C461.61,60.36,465.38,63.14,468.22,65.19z"/>
				</defs>
				<clipPath id="SVGID_8_">
					<use xlink:href="#SVGID_7_"  style="overflow:visible;"/>
				</clipPath>
				<g class="st8">
					<g>
						<path class="st2" d="M259.89,16.42C187.73,30.3,123.81,72.51,79.91,135.27c35.66,14.82,150.09,10.38,255.58-9.91
							C311.13,65.25,284.28,26.56,259.89,16.42z"/>
						<path class="st2" d="M190.91,39.46c13.12,5.45,55.2,3.82,94-3.64"/>
						<path class="st2" d="M130.05,79.65c25.17,10.46,105.96,7.33,180.44-6.99"/>
						<path class="st2" d="M259.89,16.42c-50,17.1-93.08,62.34-121.31,127.38"/>
						<path class="st2" d="M259.89,16.42c-15.36,15.75-25.88,59.73-29.62,123.82"/>
					</g>
					<g>
						<path class="st2" d="M259.89,16.42c24.39,10.13,51.24,48.83,75.61,108.94C441,105.07,497.61,76.62,461.95,61.8
							C403.81,18.66,332.05,2.54,259.89,16.42z"/>
						<path class="st2" d="M284.92,35.81c38.8-7.46,59.62-17.93,46.51-23.38"/>
						<path class="st2" d="M310.49,72.65c74.48-14.32,114.45-34.41,89.27-44.87"/>
						<path class="st2" d="M259.89,16.42c57.48,1.75,115.44,32.56,163.2,86.74"/>
						<path class="st2" d="M259.89,16.42c74.62-6.87,148.69,15.84,208.57,63.94"/>
					</g>
					<g>
						<path class="st2" d="M259.89,16.42c72.16-13.88,143.92,2.24,202.06,45.38c-35.66-14.82-150.09-10.38-255.58,9.91
							C216.49,25.93,235.5,6.29,259.89,16.42z"/>
						<path class="st2" d="M331.43,12.43c-13.12-5.45-55.2-3.82-94,3.64"/>
						<path class="st2" d="M399.76,27.78c-25.17-10.46-105.96-7.33-180.44,6.99"/>
						<path class="st2" d="M259.89,16.42c50-17.1,100.92-4,143.4,36.85"/>
						<path class="st2" d="M259.89,16.42c15.36-15.75,33.72-1.4,51.7,40.41"/>
					</g>
					<g>
						<path class="st2" d="M259.89,16.42c-24.39-10.13-43.4,9.5-53.52,55.29C100.87,92,44.26,120.45,79.91,135.27
							C123.81,72.51,187.73,30.3,259.89,16.42z"/>
						<path class="st2" d="M237.42,16.08c-38.8,7.46-59.62,17.93-46.51,23.38"/>
						<path class="st2" d="M219.32,34.77c-74.48,14.32-114.45,34.41-89.27,44.87"/>
						<path class="st2" d="M259.89,16.42c-57.48-1.75-107.6,25.78-141.12,77.49"/>
						<path class="st2" d="M259.89,16.42c-74.62,6.87-140.85,42.49-186.48,100.29"/>
					</g>
					<g>
						<path class="st2" d="M79.91,135.27c-43.91,62.77-62.54,138.57-52.46,213.46c50.43,20.95,212.26,14.68,361.45-14.01
							c-10.07-74.89-29.03-149.23-53.4-209.35C230,145.65,115.57,150.09,79.91,135.27z"/>
						<path class="st2" d="M44.56,201.87c43.72,18.17,184.03,12.73,313.38-12.15"/>
						<path class="st2" d="M26.82,274.05c48.72,20.24,205.05,14.18,349.18-13.54"/>
						<path class="st2" d="M138.58,143.8c-28.23,65.05-38.23,142.1-28.16,216.99"/>
						<path class="st2" d="M230.27,140.24c-3.74,64.1-0.25,140.63,9.82,215.51"/>
					</g>
					<g>
						<path class="st2" d="M335.5,125.36c24.37,60.12,43.33,134.46,53.4,209.35c149.2-28.69,229.26-68.94,178.83-89.89
							C557.67,169.94,520.1,104.94,461.95,61.8C497.61,76.62,441,105.07,335.5,125.36z"/>
						<path class="st2" d="M357.94,189.72c129.35-24.88,198.77-59.77,155.05-77.94"/>
						<path class="st2" d="M376,260.52c144.13-27.72,221.48-66.6,172.76-86.84"/>
						<path class="st2" d="M423.1,103.16c47.77,54.19,79.62,125.27,89.69,200.15"/>
						<path class="st2" d="M468.46,80.36c59.89,48.1,98.41,115.82,108.48,190.71"/>
					</g>
					<g>
						<path class="st2" d="M461.95,61.8c58.15,43.14,95.71,108.14,105.78,183.02c-50.43-20.95-212.26-14.68-361.45,14.01
							c-10.07-74.89-10.04-141.34,0.08-187.13C311.87,51.42,426.29,46.98,461.95,61.8z"/>
						<path class="st2" d="M512.98,111.78c-43.72-18.17-184.03-12.73-313.38,12.15"/>
						<path class="st2" d="M548.76,173.68c-48.72-20.24-205.05-14.18-349.18,13.54"/>
						<path class="st2" d="M403.29,53.28c42.48,40.87,71.41,104.6,81.48,179.49"/>
						<path class="st2" d="M311.59,56.83c17.98,41.82,33.43,106.08,43.5,180.96"/>
					</g>
					<g>
						<path class="st2" d="M206.37,71.71c-10.13,45.79-10.16,112.24-0.08,187.13c-149.2,28.69-229.26,68.94-178.83,89.89
							c-10.07-74.89,8.56-150.69,52.46-213.46C44.26,120.45,100.87,92,206.37,71.71z"/>
						<path class="st2" d="M199.61,123.93C70.26,148.81,0.84,183.7,44.56,201.87"/>
						<path class="st2" d="M199.58,187.21C55.45,214.93-21.9,253.81,26.82,274.05"/>
						<path class="st2" d="M118.77,93.91C85.25,145.63,72.33,215.35,82.4,290.24"/>
						<path class="st2" d="M73.41,116.72C27.76,174.53,8.18,247.6,18.25,322.48"/>
					</g>
					<g>
						<path class="st2" d="M27.45,348.73c10.07,74.89,47.64,139.89,105.78,183.02c35.66,14.82,150.09,10.38,255.58-9.91
							c10.13-45.78,10.16-112.24,0.08-187.13C239.71,363.41,77.88,369.68,27.45,348.73z"/>
						<path class="st2" d="M46.43,419.87c48.72,20.24,205.05,14.18,349.18-13.54"/>
						<path class="st2" d="M82.2,481.77c43.72,18.17,184.03,12.73,313.38-12.15"/>
						<path class="st2" d="M110.42,360.78c10.07,74.89,39.01,138.63,81.48,179.49"/>
						<path class="st2" d="M240.09,355.76c10.07,74.89,25.52,139.16,43.5,180.96"/>
					</g>
					<g>
						<path class="st2" d="M388.9,334.71c10.07,74.89,10.04,141.35-0.08,187.13c105.5-20.29,162.11-48.75,126.45-63.56
							c43.91-62.76,62.54-138.57,52.46-213.46C618.17,265.78,538.1,306.02,388.9,334.71z"/>
						<path class="st2" d="M395.61,406.34c144.13-27.72,221.48-66.6,172.76-86.84"/>
						<path class="st2" d="M395.58,469.62c129.35-24.88,198.77-59.77,155.05-77.94"/>
						<path class="st2" d="M512.78,303.31c10.07,74.89-2.84,144.61-36.37,196.32"/>
						<path class="st2" d="M576.94,271.06c10.07,74.89-9.51,147.96-55.16,205.77"/>
					</g>
					<g>
						<path class="st2" d="M567.74,244.82c10.07,74.89-8.56,150.69-52.46,213.46c-35.66-14.82-150.09-10.38-255.58,9.91
							c-24.37-60.11-43.33-134.46-53.4-209.35C355.48,230.14,517.31,223.87,567.74,244.82z"/>
						<path class="st2" d="M568.37,319.5c-48.72-20.24-205.05-14.18-349.18,13.54"/>
						<path class="st2" d="M550.63,391.69c-43.72-18.17-184.03-12.73-313.38,12.15"/>
						<path class="st2" d="M484.77,232.77c10.07,74.89,0.07,151.95-28.16,216.99"/>
						<path class="st2" d="M355.1,237.79c10.07,74.89,13.56,151.43,9.82,215.51"/>
					</g>
					<g>
						<path class="st2" d="M206.28,258.83c10.07,74.89,29.04,149.24,53.4,209.35c-105.5,20.29-162.11,48.75-126.45,63.56
							C75.09,488.61,37.52,423.61,27.45,348.73C-22.98,327.77,57.09,287.53,206.28,258.83z"/>
						<path class="st2" d="M219.19,333.04C75.06,360.75-2.29,399.63,46.43,419.87"/>
						<path class="st2" d="M237.25,403.83C107.9,428.71,38.48,463.6,82.2,481.77"/>
						<path class="st2" d="M82.4,290.24c10.07,74.89,41.92,145.97,89.69,200.15"/>
						<path class="st2" d="M18.25,322.48c10.07,74.89,48.59,142.62,108.48,190.71"/>
					</g>
					<g>
						<path class="st2" d="M133.23,531.75c58.14,43.14,129.9,59.26,202.06,45.38c24.39,10.13,43.4-9.5,53.52-55.29
							C283.32,542.13,168.89,546.57,133.23,531.75z"/>
						<path class="st2" d="M195.43,565.77c25.17,10.46,105.96,7.33,180.44-6.99"/>
						<path class="st2" d="M263.76,581.12c13.12,5.45,55.2,3.82,94-3.64"/>
						<path class="st2" d="M191.9,540.27c42.47,40.86,93.4,53.95,143.4,36.85"/>
						<path class="st2" d="M283.59,536.72c17.98,41.81,36.34,56.16,51.7,40.41"/>
					</g>
					<g>
						<path class="st2" d="M388.82,521.84c-10.12,45.78-29.13,65.42-53.52,55.29c72.16-13.88,136.08-56.09,179.98-118.85
							C550.93,473.09,494.32,501.55,388.82,521.84z"/>
						<path class="st2" d="M375.86,558.77c74.48-14.32,114.45-34.41,89.27-44.87"/>
						<path class="st2" d="M357.76,577.47c38.8-7.46,59.62-17.93,46.51-23.38"/>
						<path class="st2" d="M476.42,499.64c-33.52,51.71-83.64,79.24-141.12,77.49"/>
						<path class="st2" d="M521.78,476.83c-45.64,57.8-111.87,93.43-186.48,100.29"/>
					</g>
					<g>
						<path class="st2" d="M515.27,458.28c-43.9,62.76-107.82,104.97-179.98,118.85c-24.39-10.13-51.24-48.83-75.61-108.94
							C365.19,447.9,479.61,443.46,515.27,458.28z"/>
						<path class="st2" d="M465.14,513.9c-25.17-10.46-105.96-7.33-180.44,6.99"/>
						<path class="st2" d="M404.27,554.09c-13.12-5.45-55.2-3.82-94,3.64"/>
						<path class="st2" d="M456.61,449.75c-28.23,65.04-71.31,110.28-121.31,127.38"/>
						<path class="st2" d="M364.91,453.31c-3.74,64.09-14.26,108.07-29.62,123.82"/>
					</g>
					<g>
						<path class="st2" d="M259.69,468.19c24.37,60.11,51.22,98.81,75.61,108.94c-72.16,13.88-143.92-2.24-202.06-45.38
							C97.58,516.93,154.19,488.47,259.69,468.19z"/>
						<path class="st2" d="M284.7,520.9c-74.48,14.32-114.45,34.41-89.27,44.87"/>
						<path class="st2" d="M310.27,557.74c-38.8,7.46-59.62,17.93-46.51,23.38"/>
						<path class="st2" d="M172.09,490.39c47.76,54.18,105.72,84.99,163.2,86.74"/>
						<path class="st2" d="M126.73,513.19c59.88,48.09,133.95,70.8,208.57,63.94"/>
					</g>
				</g>
				<path class="st9" d="M468.22,65.19c9.92,7.16,22.3,17.88,27.2,22.68c2.51,2.46,5.91,5.7,8.37,8.21c2.41,2.46,5.54,5.8,7.85,8.35
					c7.34,8.13,12.49,14.78,14.71,17.67c11.35,14.75,19.21,28.47,19.21,28.47c1.67,2.96,3.96,6.88,5.57,9.88
					c1.63,3.03,3.72,7.11,5.22,10.21c5.63,11.58,9.12,20.83,9.16,20.92c1.19,3.21,2.82,7.46,3.94,10.7
					c1.13,3.27,2.55,7.66,3.55,10.97c2.21,7.35,4.15,14.87,5.77,22.34c1.65,7.65,2.96,15.15,4.01,22.93
					c0.93,6.89,1.66,16.15,2.17,23.08c0.63,8.5,0.53,26.17-0.19,34.6c-0.29,3.44-0.62,8.03-0.99,11.47
					c-0.36,3.39-0.93,7.91-1.43,11.29c-1.85,12.59-4.2,22.34-4.22,22.44c-2.49,10.27-3.6,14.43-6.01,22.03
					c-1.5,4.73-3.94,12.11-7.79,21.54c-2.05,5.02-4.99,11.94-9.55,20.96c-3.77,7.46-3.77,7.46-11.31,20.3
					c-1.81,3.08-4.43,7.05-6.41,10.02c-1.94,2.9-4.66,6.67-6.65,9.53c-2.09,2.99-5.03,6.86-7.35,9.67
					c-4.44,5.38-10.4,12.53-15.16,17.63c-6.76,7.25-10.57,10.8-16.87,16.69c-2.75,2.57-6.57,5.83-9.45,8.25
					c-2.6,2.18-6.18,4.96-8.83,7.08c-3.08,2.46-7.33,5.54-10.58,7.76c-10.03,6.84-11.66,7.82-21.46,13.62
					c-4.62,2.73-10.95,6.08-15.78,8.41c-4.92,2.36-11.03,5.31-18.03,8.12c-4.32,1.74-11.55,4.65-21.72,7.89
					c-19.99,6.36-35.93,8.98-41.94,9.97c-6.28,1.03-13.31,1.9-20.89,2.58c-8.75,0.78-16.84,0.97-19.49,1.03
					c-7.48,0.17-14.64-0.05-19.33-0.27c-1.62-0.08-10.14-0.51-18.78-1.51c-5.58-0.65-13-1.75-18.54-2.73
					c-4.92-0.87-11.45-2.19-16.28-3.44c-6.38-1.65-14.86-3.95-21.13-6c-6.43-2.1-14.84-5.35-21.14-7.82
					c-19.09-7.93-37.34-18.27-54.42-30.94C75.09,488.61,37.52,423.61,27.45,348.73s8.56-150.69,52.46-213.46
					C123.81,72.51,187.73,30.3,259.89,16.42C187.73,30.3,123.81,72.51,79.91,135.27c-43.91,62.77-62.54,138.57-52.46,213.46
					s47.64,139.89,105.78,183.02c17.08,12.67,35.33,23.01,54.42,30.94c-3-1.31-7.02-3-9.99-4.37c-3.3-1.53-7.67-3.65-10.91-5.31
					c-6.16-3.16-14.15-7.82-20.11-11.35c-7.96-4.72-22.6-15.11-29.2-20.61c-2.68-2.23-6.3-5.16-8.93-7.45
					c-2.67-2.32-6.17-5.49-8.75-7.92c-7.39-6.96-12.55-12.51-16.22-16.57c-6.84-7.56-11.67-13.71-14.71-17.67
					c-6.63-8.65-11.17-15.62-13.17-18.7c-5.61-8.64-13.9-22.62-21.58-40.17c-3.06-6.98-5.83-14.07-8.33-21.31
					c-1.13-3.27-2.55-7.66-3.55-10.97c-0.99-3.29-2.16-7.73-3.09-11.04c-2.28-8.17-5.69-25.52-6.68-34.23
					c-0.79-6.91-1.8-16.14-2.17-23.08c-0.19-3.48-0.35-8.12-0.4-11.61c-0.05-3.44,0.01-8.03,0.06-11.47
					c0.01-0.41,0.16-10.23,1.5-22.88c0.8-7.54,1.91-15.14,3.31-22.6c1.42-7.55,3.1-14.87,5.15-22.37c1.79-6.57,4.66-15.2,6.85-21.64
					c0.03-0.09,3.36-9.61,8.65-21.24c1.45-3.18,3.46-7.38,5.04-10.5c1.55-3.07,3.76-7.09,5.37-10.12c1.66-3.12,4.1-7.16,5.94-10.18
					c1.8-2.96,4.35-6.81,6.21-9.73c1.93-3.03,4.77-6.89,6.85-9.82c6.82-9.6,18.26-23.03,23.81-28.69c2.42-2.47,5.59-5.8,8.07-8.22
					c2.66-2.6,6.28-6,9.04-8.48c2.54-2.28,5.98-5.26,8.62-7.44c2.97-2.45,7-5.62,10.05-7.96c2.67-2.04,6.3-4.67,9.07-6.58
					c3.38-2.33,7.98-5.32,11.43-7.55c4.07-2.64,9.68-5.85,13.92-8.19c11.57-6.39,23.87-12.08,36.56-16.89
					c0.78-0.3,7.8-2.95,14.13-4.93c9.01-2.83,14.8-4.33,17.45-4.98c3.29-0.8,7.67-1.85,10.98-2.56c3.19-0.68,3.8-0.8,9.68-1.88
					c3.93-0.72,11.79-1.91,16.81-2.46c5.84-0.64,6.59-0.72,12.77-1.2c2.88-0.22,5.52-0.34,9.52-0.53c3.63-0.17,7.77-0.19,11.11-0.22
					c2.18-0.02,5.1,0.06,7.28,0.09c0.3,0,7.44,0.11,17.24,0.95c5.12,0.43,11.92,1.27,17.01,1.96c5.87,0.8,13.63,2.29,19.42,3.52
					c5.15,1.1,11.96,2.87,17.04,4.27c6.44,1.78,14.87,4.71,21.18,6.9c3.21,1.12,7.41,2.84,10.55,4.14c3.43,1.42,8,3.36,11.33,5
					c3.27,1.6,7.65,3.69,10.88,5.36c3.07,1.59,7.1,3.81,10.11,5.51c5.79,3.27,13.24,8.09,18.82,11.72
					C461.61,60.36,465.38,63.14,468.22,65.19z"/>
			</g>
			<g class="st0">
				<defs>
					<path id="SVGID_9_" class="st0" d="M188.43,560.65c44.55,18.51,94.92,24.47,146.61,14.53
						C283.35,585.12,232.97,579.16,188.43,560.65c-7.09-3.02-16.4-7.39-23.26-10.91c-5.49-2.82-12.62-6.96-17.87-10.21
						c-12.56-7.76-24.86-16.79-36.57-26.86c-7.75-6.67-19.55-17.64-31.71-32.06c-4.47-5.3-10.15-12.61-14.19-18.25
						c-3.87-5.39-8.55-12.91-12.15-18.48c-3.78-5.85-8.07-14.11-11.16-20.35c-3.11-6.27-6.9-14.8-9.5-21.29
						c-5.08-12.74-9.95-30.44-13.41-43.71c-1.82-6.98-2.95-16.58-4.2-23.69c-0.04-0.25-0.09-0.59-0.11-0.84
						c-1.3-13.84-2.41-32.39-2.32-46.29c0.05-7.08,0.63-16.55,1.72-23.55c1.03-6.66,2.14-15.59,3.45-22.21
						c1.36-6.86,3.27-16.02,5.43-22.67c2.05-6.31,4.54-14.8,6.85-21.01c2.44-6.56,6.02-15.18,8.97-21.53
						c10.31-22.14,21.2-37.88,22.41-39.6c3.7-5.27,8.65-12.3,12.68-17.33c4.66-5.83,11.12-13.42,16.26-18.84
						c4.3-4.53,10.16-10.47,14.81-14.64c6.25-5.6,14.97-12.63,21.51-17.91c4.44-3.58,10.77-7.84,15.57-10.94
						c5.67-3.65,13.41-8.23,19.29-11.54c3.75-2.11,8.86-4.73,12.75-6.56c5.43-2.55,12.72-5.85,18.3-8.05
						c17.14-6.76,32.48-10.8,40.09-12.6c3.57-0.85,10.21-2.42,20.26-4.04c9.87-1.59,18.22-2.34,20.55-2.54
						c2.51-0.21,5.35-0.44,8.93-0.63c1.68-0.09,5.63-0.3,10.17-0.38c11.71-0.21,19.69,0.28,20.03,0.31
						c2.63,0.17,6.13,0.35,8.75,0.58c3.71,0.33,8.65,0.79,12.34,1.28c7.51,1,17.48,2.69,24.89,4.27c9.77,2.08,22.68,5.54,32.05,8.98
						c5.99,2.2,13.99,5.12,19.85,7.66c6.54,2.84,15.19,6.82,21.43,10.27c10.77,5.97,21.92,12.14,37.24,23.61
						c15.08,11.29,26.53,22.16,33.48,29.3c6.82,7.01,17.22,18.2,28.72,34.36c7.72,10.85,16.48,26.36,22.81,38.07
						c3.33,6.16,6.93,14.82,9.52,21.32c2.53,6.33,5.29,15.01,7.55,21.44c2.37,6.75,4.75,16.03,6.06,23.07
						c2.15,11.56,4.97,27.04,5.73,38.78c0.45,6.93,0.91,16.18,0.89,23.12c-0.02,7.11-0.36,16.59-1.04,23.67
						c-1.2,12.52-2.89,26.49-7.61,45.23c-4.98,19.76-11.22,35.11-14.62,43c-2.83,6.56-6.77,15.28-10.35,21.47
						c-6.48,11.21-15.79,25.77-23.14,36.43c-4.19,6.07-10.67,13.52-15.53,19.06c-4.15,4.73-10.01,10.76-14.5,15.17
						c-5.82,5.72-14.04,12.85-20.36,18.01c-5.26,4.29-12.5,9.74-18.18,13.46c-7.87,5.16-18.58,11.75-26.87,16.2
						c-4.02,2.16-9.48,4.83-13.61,6.76c-3.46,1.62-8.14,3.61-11.67,5.05c-4.35,1.77-10.23,3.94-14.67,5.47
						c-4.26,1.47-10,3.26-14.32,4.55c-3.98,1.19-9.35,2.6-13.39,3.58c-3.55,0.87-8.31,1.9-11.9,2.6c-2.12,0.42-6.6,1.25-12.86,2.17
						c-6.21,0.91-12.15,1.5-12.21,1.51c-2.55,0.24-5.95,0.54-8.5,0.74c-1.39,0.11-3.25,0.22-4.64,0.29
						c-3.35,0.17-8.95,0.45-15.93,0.44c-15.41-0.03-25.83-1.15-32.05-1.82c-4.7-0.51-10.94-1.45-15.61-2.22
						c-3.79-0.63-8.81-1.69-12.58-2.44c-9.79-1.96-22.53-5.98-32.05-8.98C200.02,565.38,193.44,562.56,188.43,560.65z"/>
				</defs>
				<clipPath id="SVGID_10_">
					<use xlink:href="#SVGID_9_"  style="overflow:visible;"/>
				</clipPath>
				<g class="st10">
					<g>
						<path class="st2" d="M335.04,575.18c-147.92,28.45-285.06-73.3-305.71-226.82c50.08,20.81,210.78,14.58,358.94-13.91
							C408.91,487.96,385.03,595.96,335.04,575.18z"/>
						<path class="st2" d="M194.62,563.13c25.26,10.49,106.3,7.35,181.02-7.02"/>
						<path class="st2" d="M84.89,481.72c43.23,17.96,181.96,12.59,309.87-12.01"/>
						<path class="st2" d="M335.04,575.18c-102.49,35.05-202.67-61.33-223.32-214.84"/>
						<path class="st2" d="M335.04,575.18c-31.49,32.3-73.9-66.32-94.55-219.83"/>
					</g>
					<g>
						<path class="st2" d="M335.04,575.18c50,20.77,73.88-87.22,53.23-240.73c148.16-28.49,227.67-68.46,177.59-89.27
							C586.51,398.69,482.95,546.73,335.04,575.18z"/>
						<path class="st2" d="M375.65,556.12c74.72-14.37,114.82-34.53,89.56-45.02"/>
						<path class="st2" d="M394.75,469.71c127.9-24.6,196.54-59.1,153.31-77.06"/>
						<path class="st2" d="M335.04,575.18c117.83,3.58,196.9-118.4,176.25-271.91"/>
						<path class="st2" d="M335.04,575.18C487.99,561.1,595.65,424.75,575,271.24"/>
					</g>
					<g>
						<path class="st2" d="M335.04,575.18c147.92-28.45,251.47-176.49,230.83-330c-50.08-20.81-210.78-14.58-358.94,13.91
							C227.56,412.61,285.04,554.41,335.04,575.18z"/>
						<path class="st2" d="M465.21,511.1c-25.26-10.49-106.3-7.35-181.02,7.02"/>
						<path class="st2" d="M548.06,392.64c-43.23-17.96-181.96-12.59-309.87,12.01"/>
						<path class="st2" d="M335.04,575.18c102.49-35.05,169.08-188.46,148.43-341.97"/>
						<path class="st2" d="M335.04,575.18c31.49-32.3,40.31-183.47,19.66-336.98"/>
					</g>
					<g>
						<path class="st2" d="M335.04,575.18c-50-20.77-107.47-162.57-128.12-316.08C58.76,287.59-20.75,327.56,29.33,348.37
							C49.97,501.88,187.12,603.63,335.04,575.18z"/>
						<path class="st2" d="M284.19,518.11c-74.72,14.37-114.82,34.53-89.56,45.02"/>
						<path class="st2" d="M238.2,404.66c-127.9,24.6-196.54,59.1-153.31,77.06"/>
						<path class="st2" d="M335.04,575.18C217.21,571.6,104.54,443.79,83.9,290.28"/>
						<path class="st2" d="M335.04,575.18c-152.96,14.08-294.2-99.36-314.85-252.87"/>
					</g>
					<g>
						<path class="st2" d="M29.33,348.37C8.68,194.86,112.23,46.82,260.15,18.38c50,20.77,107.47,162.56,128.12,316.07
							C240.11,362.94,79.41,369.17,29.33,348.37z"/>
						<path class="st2" d="M47.12,200.91c43.23,17.96,181.96,12.59,309.87-12.01"/>
						<path class="st2" d="M129.98,82.46c25.26,10.49,106.3,7.35,181.02-7.02"/>
						<path class="st2" d="M111.72,360.34C91.07,206.83,157.66,53.43,260.15,18.38"/>
						<path class="st2" d="M240.49,355.35c-20.64-153.51-11.82-304.67,19.66-336.97"/>
					</g>
					<g>
						<path class="st2" d="M388.27,334.45c-20.64-153.51-78.12-295.3-128.12-316.07c147.92-28.45,285.06,73.3,305.71,226.81
							C615.94,265.99,536.43,305.96,388.27,334.45z"/>
						<path class="st2" d="M356.99,188.9c127.9-24.6,196.54-59.1,153.31-77.06"/>
						<path class="st2" d="M311,75.44c74.72-14.37,114.82-34.53,89.56-45.02"/>
						<path class="st2" d="M511.29,303.27C490.64,149.76,377.98,21.96,260.15,18.38"/>
						<path class="st2" d="M575,271.24C554.36,117.73,413.11,4.3,260.15,18.38"/>
					</g>
					<g>
						<path class="st2" d="M565.86,245.18C545.22,91.67,408.07-10.07,260.15,18.38c-50-20.77-73.88,87.21-53.24,240.72
							C355.08,230.61,515.78,224.38,565.86,245.18z"/>
						<path class="st2" d="M510.3,111.83c-43.23-17.96-181.96-12.59-309.87,12.01"/>
						<path class="st2" d="M400.57,30.42c-25.26-10.49-106.3-7.35-181.02,7.02"/>
						<path class="st2" d="M483.47,233.21C462.82,79.7,362.64-16.67,260.15,18.38"/>
						<path class="st2" d="M354.7,238.2C334.05,84.69,291.64-13.92,260.15,18.38"/>
					</g>
					<g>
						<path class="st2" d="M206.92,259.1c-20.64-153.51,3.24-261.5,53.24-240.72C112.23,46.82,8.68,194.86,29.33,348.37
							C-20.75,327.56,58.76,287.59,206.92,259.1z"/>
						<path class="st2" d="M200.43,123.85c-127.9,24.6-196.54,59.1-153.31,77.06"/>
						<path class="st2" d="M219.54,37.44c-74.72,14.37-114.82,34.53-89.56,45.02"/>
						<path class="st2" d="M83.9,290.28C63.25,136.77,142.32,14.8,260.15,18.38"/>
						<path class="st2" d="M20.19,322.31C-0.46,168.8,107.19,32.45,260.15,18.38"/>
					</g>
				</g>
				<path class="st11" d="M188.43,560.65c44.55,18.51,94.92,24.47,146.61,14.53C283.35,585.12,232.97,579.16,188.43,560.65
					c-7.09-3.02-16.4-7.39-23.26-10.91c-5.49-2.82-12.62-6.96-17.87-10.21c-12.56-7.76-24.86-16.79-36.57-26.86
					c-7.75-6.67-19.55-17.64-31.71-32.06c-4.47-5.3-10.15-12.61-14.19-18.25c-3.87-5.39-8.55-12.91-12.15-18.48
					c-3.78-5.85-8.07-14.11-11.16-20.35c-3.11-6.27-6.9-14.8-9.5-21.29c-5.08-12.74-9.95-30.44-13.41-43.71
					c-1.82-6.98-2.95-16.58-4.2-23.69c-0.04-0.25-0.09-0.59-0.11-0.84c-1.3-13.84-2.41-32.39-2.32-46.29
					c0.05-7.08,0.63-16.55,1.72-23.55c1.03-6.66,2.14-15.59,3.45-22.21c1.36-6.86,3.27-16.02,5.43-22.67
					c2.05-6.31,4.54-14.8,6.85-21.01c2.44-6.56,6.02-15.18,8.97-21.53c10.31-22.14,21.2-37.88,22.41-39.6
					c3.7-5.27,8.65-12.3,12.68-17.33c4.66-5.83,11.12-13.42,16.26-18.84c4.3-4.53,10.16-10.47,14.81-14.64
					c6.25-5.6,14.97-12.63,21.51-17.91c4.44-3.58,10.77-7.84,15.57-10.94c5.67-3.65,13.41-8.23,19.29-11.54
					c3.75-2.11,8.86-4.73,12.75-6.56c5.43-2.55,12.72-5.85,18.3-8.05c17.14-6.76,32.48-10.8,40.09-12.6
					c3.57-0.85,10.21-2.42,20.26-4.04c9.87-1.59,18.22-2.34,20.55-2.54c2.51-0.21,5.35-0.44,8.93-0.63
					c1.68-0.09,5.63-0.3,10.17-0.38c11.71-0.21,19.69,0.28,20.03,0.31c2.63,0.17,6.13,0.35,8.75,0.58
					c3.71,0.33,8.65,0.79,12.34,1.28c7.51,1,17.48,2.69,24.89,4.27c9.77,2.08,22.68,5.54,32.05,8.98c5.99,2.2,13.99,5.12,19.85,7.66
					c6.54,2.84,15.19,6.82,21.43,10.27c10.77,5.97,21.92,12.14,37.24,23.61c15.08,11.29,26.53,22.16,33.48,29.3
					c6.82,7.01,17.22,18.2,28.72,34.36c7.72,10.85,16.48,26.36,22.81,38.07c3.33,6.16,6.93,14.82,9.52,21.32
					c2.53,6.33,5.29,15.01,7.55,21.44c2.37,6.75,4.75,16.03,6.06,23.07c2.15,11.56,4.97,27.04,5.73,38.78
					c0.45,6.93,0.91,16.18,0.89,23.12c-0.02,7.11-0.36,16.59-1.04,23.67c-1.2,12.52-2.89,26.49-7.61,45.23
					c-4.98,19.76-11.22,35.11-14.62,43c-2.83,6.56-6.77,15.28-10.35,21.47c-6.48,11.21-15.79,25.77-23.14,36.43
					c-4.19,6.07-10.67,13.52-15.53,19.06c-4.15,4.73-10.01,10.76-14.5,15.17c-5.82,5.72-14.04,12.85-20.36,18.01
					c-5.26,4.29-12.5,9.74-18.18,13.46c-7.87,5.16-18.58,11.75-26.87,16.2c-4.02,2.16-9.48,4.83-13.61,6.76
					c-3.46,1.62-8.14,3.61-11.67,5.05c-4.35,1.77-10.23,3.94-14.67,5.47c-4.26,1.47-10,3.26-14.32,4.55
					c-3.98,1.19-9.35,2.6-13.39,3.58c-3.55,0.87-8.31,1.9-11.9,2.6c-2.12,0.42-6.6,1.25-12.86,2.17c-6.21,0.91-12.15,1.5-12.21,1.51
					c-2.55,0.24-5.95,0.54-8.5,0.74c-1.39,0.11-3.25,0.22-4.64,0.29c-3.35,0.17-8.95,0.45-15.93,0.44
					c-15.41-0.03-25.83-1.15-32.05-1.82c-4.7-0.51-10.94-1.45-15.61-2.22c-3.79-0.63-8.81-1.69-12.58-2.44
					c-9.79-1.96-22.53-5.98-32.05-8.98C200.02,565.38,193.44,562.56,188.43,560.65z"/>
			</g>
			<g class="st0">
				<defs>
					<path id="SVGID_11_" class="st0" d="M351.57,577.3c-14.19,2.73-28.23,4.34-42.92,4.93c-5.71,0.23-10.93,0.22-10.98,0.22
						c-4.03-0.02-9.4-0.17-13.43-0.31c-6.34-0.23-14.21-1.03-18-1.42c-10.41-1.06-21.06-3.14-25.61-4.03
						c-6.13-1.2-14.17-3.36-20.21-4.92c-9.84-2.54-22.51-7.49-32-11.12C105.49,526.2,42.76,448.23,29.33,348.37
						C8.68,194.86,112.23,46.82,260.15,18.38C112.23,46.82,8.68,194.86,29.33,348.37c13.43,99.87,76.17,177.83,159.1,212.29
						c0,0,0,0,0,0c-5.57-2.55-13.11-5.7-18.56-8.5c-6.9-3.54-15.97-8.54-22.57-12.62c-18.67-11.53-32.14-23.07-36.57-26.86
						c-7.57-6.49-19.21-17.31-31.71-32.06c-8.54-10.08-18.55-24.66-25.74-35.75c-3.82-5.9-8.19-14.22-11.34-20.5
						c-3.03-6.03-6.73-14.23-9.25-20.49c-2.65-6.58-5.84-15.51-7.95-22.28c-2.05-6.59-4.16-15.56-5.93-22.24
						c-0.07-0.25-0.14-0.58-0.18-0.83c-1.27-7.1-3.5-16.5-4.2-23.69c-1.34-13.85-2.76-32.4-2.45-46.31
						c0.18-8.21,1.07-25.07,5.03-45.72c4.11-21.43,9.91-37.52,12.09-43.57c3.36-9.32,9.31-23.94,18.6-40.7
						c3.34-6.03,8.14-13.87,11.94-19.62c3.55-5.38,8.78-12.21,12.56-17.43c4.06-5.62,10.25-12.52,14.91-17.64
						C91.31,99.22,97.19,93.3,101.73,89c5.05-4.79,12.11-10.84,17.51-15.24c4.45-3.62,10.68-8.08,15.32-11.46
						c5.65-4.12,13.65-8.92,19.64-12.53c3.73-2.25,8.86-4.97,12.72-6.97c10.64-5.52,21.8-10.39,33.16-14.48
						c8.75-3.15,22.61-7.64,38.97-11.13c8.83-1.89,17.35-3.09,17.44-3.1c4.96-0.69,6.31-0.87,12.2-1.51
						c1.59-0.17,5.86-0.56,8.51-0.74c2.78-0.19,11.23-0.76,20.34-0.73c10.64,0.03,16.35,0.44,22.4,0.87
						c2.97,0.21,6.93,0.6,9.89,0.95c3.67,0.43,8.56,1.12,12.22,1.66c4.82,0.71,11.21,1.92,15.97,3c10.22,2.31,23.74,5.96,33.59,9.51
						c4.59,1.65,10.7,3.88,15.18,5.8c6.49,2.79,15.17,6.51,21.36,9.92c5.51,3.04,12.94,6.97,18.29,10.29
						c6.31,3.91,14.56,9.41,20.54,13.8c5.21,3.83,11.97,9.19,16.86,13.42c5.37,4.64,12.42,10.99,17.3,16.14
						c9.51,10.02,17.72,18.68,29.06,34.49c7.76,10.81,16.57,26.29,22.93,37.98c3.37,6.19,7.02,14.89,9.66,21.43
						c2.55,6.32,5.34,14.98,7.62,21.41c2.4,6.76,4.79,16.05,6.14,23.1c1.36,7.13,3.25,16.64,4.23,23.84
						c0.94,6.95,1.7,16.28,2.18,23.28c0.78,11.49,0.48,26.92-0.57,38.39c-0.62,6.74-1.66,15.72-2.76,22.4
						c-1.13,6.87-3.01,15.97-4.68,22.72c-1.6,6.45-4.08,14.98-6.2,21.28c-2.19,6.54-5.45,15.15-8.15,21.49
						c-2.72,6.39-6.49,14.89-9.94,20.93c-6.42,11.25-15.21,26.18-22.9,36.61c-4.11,5.57-9.89,12.78-14.4,18.02
						c-4.11,4.78-10.03,10.75-14.33,15.36c-4.75,5.09-11.67,11.32-17.09,15.7c-4.57,3.69-10.61,8.69-15.37,12.14
						c-5.63,4.09-13.39,9.2-19.24,12.98c-7.78,5.03-18.77,10.78-27.13,14.78c-2.92,1.4-6.87,3.15-9.84,4.44
						c-2.17,0.94-5.11,2.1-7.3,2.98c-4.34,1.74-10.21,3.84-14.65,5.3C382.92,569.3,368.43,574.06,351.57,577.3z"/>
				</defs>
				<clipPath id="SVGID_12_">
					<use xlink:href="#SVGID_11_"  style="overflow:visible;"/>
				</clipPath>
				<g class="st12">
					<g>
						<path class="st2" d="M335.04,575.18c-147.92,28.45-285.06-73.3-305.71-226.82c50.08,20.81,210.78,14.58,358.94-13.91
							C408.91,487.96,385.03,595.96,335.04,575.18z"/>
						<path class="st2" d="M194.62,563.13c25.26,10.49,106.3,7.35,181.02-7.02"/>
						<path class="st2" d="M84.89,481.72c43.23,17.96,181.96,12.59,309.87-12.01"/>
						<path class="st2" d="M335.04,575.18c-102.49,35.05-202.67-61.33-223.32-214.84"/>
						<path class="st2" d="M335.04,575.18c-31.49,32.3-73.9-66.32-94.55-219.83"/>
					</g>
					<g>
						<path class="st2" d="M335.04,575.18c50,20.77,73.88-87.22,53.23-240.73c148.16-28.49,227.67-68.46,177.59-89.27
							C586.51,398.69,482.95,546.73,335.04,575.18z"/>
						<path class="st2" d="M375.65,556.12c74.72-14.37,114.82-34.53,89.56-45.02"/>
						<path class="st2" d="M394.75,469.71c127.9-24.6,196.54-59.1,153.31-77.06"/>
						<path class="st2" d="M335.04,575.18c117.83,3.58,196.9-118.4,176.25-271.91"/>
						<path class="st2" d="M335.04,575.18C487.99,561.1,595.65,424.75,575,271.24"/>
					</g>
					<g>
						<path class="st2" d="M335.04,575.18c147.92-28.45,251.47-176.49,230.83-330c-50.08-20.81-210.78-14.58-358.94,13.91
							C227.56,412.61,285.04,554.41,335.04,575.18z"/>
						<path class="st2" d="M465.21,511.1c-25.26-10.49-106.3-7.35-181.02,7.02"/>
						<path class="st2" d="M548.06,392.64c-43.23-17.96-181.96-12.59-309.87,12.01"/>
						<path class="st2" d="M335.04,575.18c102.49-35.05,169.08-188.46,148.43-341.97"/>
						<path class="st2" d="M335.04,575.18c31.49-32.3,40.31-183.47,19.66-336.98"/>
					</g>
					<g>
						<path class="st2" d="M335.04,575.18c-50-20.77-107.47-162.57-128.12-316.08C58.76,287.59-20.75,327.56,29.33,348.37
							C49.97,501.88,187.12,603.63,335.04,575.18z"/>
						<path class="st2" d="M284.19,518.11c-74.72,14.37-114.82,34.53-89.56,45.02"/>
						<path class="st2" d="M238.2,404.66c-127.9,24.6-196.54,59.1-153.31,77.06"/>
						<path class="st2" d="M335.04,575.18C217.21,571.6,104.54,443.79,83.9,290.28"/>
						<path class="st2" d="M335.04,575.18c-152.96,14.08-294.2-99.36-314.85-252.87"/>
					</g>
					<g>
						<path class="st2" d="M29.33,348.37C8.68,194.86,112.23,46.82,260.15,18.38c50,20.77,107.47,162.56,128.12,316.07
							C240.11,362.94,79.41,369.17,29.33,348.37z"/>
						<path class="st2" d="M47.12,200.91c43.23,17.96,181.96,12.59,309.87-12.01"/>
						<path class="st2" d="M129.98,82.46c25.26,10.49,106.3,7.35,181.02-7.02"/>
						<path class="st2" d="M111.72,360.34C91.07,206.83,157.66,53.43,260.15,18.38"/>
						<path class="st2" d="M240.49,355.35c-20.64-153.51-11.82-304.67,19.66-336.97"/>
					</g>
					<g>
						<path class="st2" d="M388.27,334.45c-20.64-153.51-78.12-295.3-128.12-316.07c147.92-28.45,285.06,73.3,305.71,226.81
							C615.94,265.99,536.43,305.96,388.27,334.45z"/>
						<path class="st2" d="M356.99,188.9c127.9-24.6,196.54-59.1,153.31-77.06"/>
						<path class="st2" d="M311,75.44c74.72-14.37,114.82-34.53,89.56-45.02"/>
						<path class="st2" d="M511.29,303.27C490.64,149.76,377.98,21.96,260.15,18.38"/>
						<path class="st2" d="M575,271.24C554.36,117.73,413.11,4.3,260.15,18.38"/>
					</g>
					<g>
						<path class="st2" d="M565.86,245.18C545.22,91.67,408.07-10.07,260.15,18.38c-50-20.77-73.88,87.21-53.24,240.72
							C355.08,230.61,515.78,224.38,565.86,245.18z"/>
						<path class="st2" d="M510.3,111.83c-43.23-17.96-181.96-12.59-309.87,12.01"/>
						<path class="st2" d="M400.57,30.42c-25.26-10.49-106.3-7.35-181.02,7.02"/>
						<path class="st2" d="M483.47,233.21C462.82,79.7,362.64-16.67,260.15,18.38"/>
						<path class="st2" d="M354.7,238.2C334.05,84.69,291.64-13.92,260.15,18.38"/>
					</g>
					<g>
						<path class="st2" d="M206.92,259.1c-20.64-153.51,3.24-261.5,53.24-240.72C112.23,46.82,8.68,194.86,29.33,348.37
							C-20.75,327.56,58.76,287.59,206.92,259.1z"/>
						<path class="st2" d="M200.43,123.85c-127.9,24.6-196.54,59.1-153.31,77.06"/>
						<path class="st2" d="M219.54,37.44c-74.72,14.37-114.82,34.53-89.56,45.02"/>
						<path class="st2" d="M83.9,290.28C63.25,136.77,142.32,14.8,260.15,18.38"/>
						<path class="st2" d="M20.19,322.31C-0.46,168.8,107.19,32.45,260.15,18.38"/>
					</g>
				</g>
				<path class="st13" d="M351.57,577.3c-14.19,2.73-28.23,4.34-42.92,4.93c-5.71,0.23-10.93,0.22-10.98,0.22
					c-4.03-0.02-9.4-0.17-13.43-0.31c-6.34-0.23-14.21-1.03-18-1.42c-10.41-1.06-21.06-3.14-25.61-4.03
					c-6.13-1.2-14.17-3.36-20.21-4.92c-9.84-2.54-22.51-7.49-32-11.12C105.49,526.2,42.76,448.23,29.33,348.37
					C8.68,194.86,112.23,46.82,260.15,18.38C112.23,46.82,8.68,194.86,29.33,348.37c13.43,99.87,76.17,177.83,159.1,212.29
					c0,0,0,0,0,0c-5.57-2.55-13.11-5.7-18.56-8.5c-6.9-3.54-15.97-8.54-22.57-12.62c-18.67-11.53-32.14-23.07-36.57-26.86
					c-7.57-6.49-19.21-17.31-31.71-32.06c-8.54-10.08-18.55-24.66-25.74-35.75c-3.82-5.9-8.19-14.22-11.34-20.5
					c-3.03-6.03-6.73-14.23-9.25-20.49c-2.65-6.58-5.84-15.51-7.95-22.28c-2.05-6.59-4.16-15.56-5.93-22.24
					c-0.07-0.25-0.14-0.58-0.18-0.83c-1.27-7.1-3.5-16.5-4.2-23.69c-1.34-13.85-2.76-32.4-2.45-46.31
					c0.18-8.21,1.07-25.07,5.03-45.72c4.11-21.43,9.91-37.52,12.09-43.57c3.36-9.32,9.31-23.94,18.6-40.7
					c3.34-6.03,8.14-13.87,11.94-19.62c3.55-5.38,8.78-12.21,12.56-17.43c4.06-5.62,10.25-12.52,14.91-17.64
					C91.31,99.22,97.19,93.3,101.73,89c5.05-4.79,12.11-10.84,17.51-15.24c4.45-3.62,10.68-8.08,15.32-11.46
					c5.65-4.12,13.65-8.92,19.64-12.53c3.73-2.25,8.86-4.97,12.72-6.97c10.64-5.52,21.8-10.39,33.16-14.48
					c8.75-3.15,22.61-7.64,38.97-11.13c8.83-1.89,17.35-3.09,17.44-3.1c4.96-0.69,6.31-0.87,12.2-1.51
					c1.59-0.17,5.86-0.56,8.51-0.74c2.78-0.19,11.23-0.76,20.34-0.73c10.64,0.03,16.35,0.44,22.4,0.87c2.97,0.21,6.93,0.6,9.89,0.95
					c3.67,0.43,8.56,1.12,12.22,1.66c4.82,0.71,11.21,1.92,15.97,3c10.22,2.31,23.74,5.96,33.59,9.51c4.59,1.65,10.7,3.88,15.18,5.8
					c6.49,2.79,15.17,6.51,21.36,9.92c5.51,3.04,12.94,6.97,18.29,10.29c6.31,3.91,14.56,9.41,20.54,13.8
					c5.21,3.83,11.97,9.19,16.86,13.42c5.37,4.64,12.42,10.99,17.3,16.14c9.51,10.02,17.72,18.68,29.06,34.49
					c7.76,10.81,16.57,26.29,22.93,37.98c3.37,6.19,7.02,14.89,9.66,21.43c2.55,6.32,5.34,14.98,7.62,21.41
					c2.4,6.76,4.79,16.05,6.14,23.1c1.36,7.13,3.25,16.64,4.23,23.84c0.94,6.95,1.7,16.28,2.18,23.28
					c0.78,11.49,0.48,26.92-0.57,38.39c-0.62,6.74-1.66,15.72-2.76,22.4c-1.13,6.87-3.01,15.97-4.68,22.72
					c-1.6,6.45-4.08,14.98-6.2,21.28c-2.19,6.54-5.45,15.15-8.15,21.49c-2.72,6.39-6.49,14.89-9.94,20.93
					c-6.42,11.25-15.21,26.18-22.9,36.61c-4.11,5.57-9.89,12.78-14.4,18.02c-4.11,4.78-10.03,10.75-14.33,15.36
					c-4.75,5.09-11.67,11.32-17.09,15.7c-4.57,3.69-10.61,8.69-15.37,12.14c-5.63,4.09-13.39,9.2-19.24,12.98
					c-7.78,5.03-18.77,10.78-27.13,14.78c-2.92,1.4-6.87,3.15-9.84,4.44c-2.17,0.94-5.11,2.1-7.3,2.98
					c-4.34,1.74-10.21,3.84-14.65,5.3C382.92,569.3,368.43,574.06,351.57,577.3z"/>
			</g>
		</g>
	</g>
</g>
</svg>
