<?xml version="1.0" encoding="UTF-8" standalone="no"?>
<!-- Created with Inkscape (http://www.inkscape.org/) -->

<svg
   xmlns:dc="http://purl.org/dc/elements/1.1/"
   xmlns:cc="http://creativecommons.org/ns#"
   xmlns:rdf="http://www.w3.org/1999/02/22-rdf-syntax-ns#"
   xmlns:svg="http://www.w3.org/2000/svg"
   xmlns="http://www.w3.org/2000/svg"
   xmlns:xlink="http://www.w3.org/1999/xlink"
   version="1.1"
   width="462.93692"
   height="462.93692"
   id="svg37252">
  <defs
     id="defs37254">
    <linearGradient
       id="linearGradient30160">
      <stop
         id="stop30162"
         style="stop-color:#ffffff;stop-opacity:1"
         offset="0" />
      <stop
         id="stop30164"
         style="stop-color:#ffffff;stop-opacity:0"
         offset="1" />
    </linearGradient>
    <linearGradient
       x1="2756.4155"
       y1="-552.84265"
       x2="2804.21"
       y2="-275.97195"
       id="linearGradient36391"
       xlink:href="#linearGradient30160"
       gradientUnits="userSpaceOnUse" />
    <radialGradient
       cx="2796.8335"
       cy="-319.19464"
       r="101.80878"
       fx="2796.8335"
       fy="-319.19464"
       id="radialGradient30282"
       xlink:href="#linearGradient30276"
       gradientUnits="userSpaceOnUse"
       gradientTransform="matrix(1.1380655,0.04462995,-0.03918503,0.99923198,-396.04036,-124.12594)" />
    <linearGradient
       id="linearGradient30276">
      <stop
         id="stop30278"
         style="stop-color:#0000ff;stop-opacity:1"
         offset="0" />
      <stop
         id="stop30280"
         style="stop-color:#0000ff;stop-opacity:0"
         offset="1" />
    </linearGradient>
    <filter
       color-interpolation-filters="sRGB"
       id="filter36206">
      <feGaussianBlur
         id="feGaussianBlur36208"
         stdDeviation="1" />
    </filter>
    <filter
       color-interpolation-filters="sRGB"
       id="filter29676">
      <feGaussianBlur
         stdDeviation="3"
         id="feGaussianBlur29678" />
    </filter>
    <linearGradient
       x1="2756.4155"
       y1="-552.84265"
       x2="2804.21"
       y2="-275.97195"
       id="linearGradient36347"
       xlink:href="#linearGradient30160-2"
       gradientUnits="userSpaceOnUse" />
    <linearGradient
       id="linearGradient30160-2">
      <stop
         id="stop30162-5"
         style="stop-color:#ffffff;stop-opacity:1"
         offset="0" />
      <stop
         id="stop30164-4"
         style="stop-color:#ffffff;stop-opacity:0"
         offset="1" />
    </linearGradient>
    <linearGradient
       x1="2756.4155"
       y1="-552.84265"
       x2="2804.21"
       y2="-275.97195"
       id="linearGradient30266"
       xlink:href="#linearGradient30160-2"
       gradientUnits="userSpaceOnUse" />
    <linearGradient
       x1="2756.4155"
       y1="-552.84265"
       x2="2804.21"
       y2="-275.97195"
       id="linearGradient37625"
       xlink:href="#linearGradient30160-2"
       gradientUnits="userSpaceOnUse" />
    <radialGradient
       cx="2814.8862"
       cy="-347.1741"
       r="101.80878"
       fx="2814.8862"
       fy="-347.1741"
       id="radialGradient36550"
       xlink:href="#linearGradient36395"
       gradientUnits="userSpaceOnUse"
       gradientTransform="matrix(1.1269506,-0.24306803,0.2108386,0.97752089,-286.28449,672.52822)" />
    <linearGradient
       id="linearGradient36395">
      <stop
         id="stop36397"
         style="stop-color:#ff00ff;stop-opacity:1"
         offset="0" />
      <stop
         id="stop36399"
         style="stop-color:#ff00ff;stop-opacity:0"
         offset="1" />
    </linearGradient>
    <filter
       color-interpolation-filters="sRGB"
       id="filter36475">
      <feGaussianBlur
         id="feGaussianBlur36477"
         stdDeviation="1.000001" />
    </filter>
    <linearGradient
       x1="2767.9263"
       y1="-463.63416"
       x2="2801.3323"
       y2="-266.37964"
       id="linearGradient36552"
       xlink:href="#linearGradient30160-1"
       gradientUnits="userSpaceOnUse" />
    <linearGradient
       id="linearGradient30160-1">
      <stop
         id="stop30162-8"
         style="stop-color:#ffffff;stop-opacity:1"
         offset="0" />
      <stop
         id="stop30164-9"
         style="stop-color:#ffffff;stop-opacity:0"
         offset="1" />
    </linearGradient>
    <filter
       x="-0.10842601"
       y="-0.10757733"
       width="1.2168519"
       height="1.2151546"
       color-interpolation-filters="sRGB"
       id="filter35574">
      <feGaussianBlur
         id="feGaussianBlur35576"
         stdDeviation="9.1989346" />
    </filter>
    <radialGradient
       cx="2797.1284"
       cy="-317.61786"
       r="101.80878"
       fx="2797.1284"
       fy="-317.61786"
       id="radialGradient35963"
       xlink:href="#linearGradient30490"
       gradientUnits="userSpaceOnUse"
       gradientTransform="matrix(0.71672824,0.22135036,-0.2208635,0.71515183,722.77385,-706.38549)" />
    <linearGradient
       id="linearGradient30490">
      <stop
         id="stop30492"
         style="stop-color:#ff0000;stop-opacity:1"
         offset="0" />
      <stop
         id="stop30494"
         style="stop-color:#ff0000;stop-opacity:0"
         offset="1" />
    </linearGradient>
    <radialGradient
       cx="2797.1284"
       cy="-317.61786"
       r="101.80878"
       fx="2797.1284"
       fy="-317.61786"
       id="radialGradient35965"
       xlink:href="#linearGradient30490"
       gradientUnits="userSpaceOnUse"
       gradientTransform="matrix(0.71672824,0.22135036,-0.2208635,0.71515183,722.77385,-706.38549)" />
    <filter
       color-interpolation-filters="sRGB"
       id="filter36058">
      <feGaussianBlur
         id="feGaussianBlur36060"
         stdDeviation="2" />
    </filter>
    <linearGradient
       x1="2756.4155"
       y1="-552.84265"
       x2="2804.21"
       y2="-275.97195"
       id="linearGradient36393"
       xlink:href="#linearGradient30160-3"
       gradientUnits="userSpaceOnUse" />
    <linearGradient
       id="linearGradient30160-3">
      <stop
         id="stop30162-87"
         style="stop-color:#ffffff;stop-opacity:1"
         offset="0" />
      <stop
         id="stop30164-0"
         style="stop-color:#ffffff;stop-opacity:0"
         offset="1" />
    </linearGradient>
    <linearGradient
       x1="2756.4155"
       y1="-552.84265"
       x2="2804.21"
       y2="-275.97195"
       id="linearGradient35982"
       xlink:href="#linearGradient30160-3"
       gradientUnits="userSpaceOnUse" />
    <linearGradient
       x1="2756.4155"
       y1="-552.84265"
       x2="2804.21"
       y2="-275.97195"
       id="linearGradient38473"
       xlink:href="#linearGradient30160-3"
       gradientUnits="userSpaceOnUse" />
  </defs>
  <metadata
     id="metadata37257">
    <rdf:RDF>
      <cc:Work
         rdf:about="">
        <dc:format>image/svg+xml</dc:format>
        <dc:type
           rdf:resource="http://purl.org/dc/dcmitype/StillImage" />
        <dc:title></dc:title>
      </cc:Work>
    </rdf:RDF>
  </metadata>
  <g
     transform="translate(-47.191985,-74.56026)"
     id="layer1">
    <g
       transform="matrix(2.093573,0,0,2.093573,271.75339,304.76991)"
       id="g27338"
       style="stroke:#0000ff">
      <g
         id="g27340"
         style="stroke:#0000ff">
        <path
           d="M 1.5313594e-7,100 C -3.1563713,100 -5.7151159,55.228478 -5.715116,2.6794897e-6 -5.7151161,-55.228472 -3.1563716,-99.999999 -1.5313595e-7,-100 c 8.8413244e-8,0 1.76826483e-7,0 2.6523972e-7,0"
           transform="matrix(0.99919663,0.04007615,-0.04007615,0.99919663,0,0)"
           id="path27342"
           style="fill:none;stroke:#0000ff;stroke-width:1" />
        <path
           d="M 7.1461938e-7,100 C -14.729423,100 -26.669981,55.228478 -26.669981,2.6794897e-6 -26.669981,-55.228472 -14.729425,-99.999999 -7.146194e-7,-100 c 4.1258645e-7,0 8.251729e-7,0 1.23775935e-6,0"
           transform="matrix(0.98104983,0.19375558,-0.19375558,0.98104983,0,0)"
           id="path27344"
           style="fill:none;stroke:#0000ff;stroke-width:1" />
        <path
           d="M 1.2274045e-6,100 C -25.298727,100 -45.807399,55.228478 -45.8074,2.6794897e-6 -45.8074,-55.228472 -25.29873,-99.999999 -1.2274046e-6,-100 c 7.0864367e-7,0 1.41728731e-6,0 2.12593095e-6,0"
           transform="matrix(0.93263546,0.36082005,-0.36082005,0.93263546,0,0)"
           id="path27346"
           style="fill:none;stroke:#0000ff;stroke-width:1" />
        <path
           d="M 1.6565459e-6,100 C -34.144003,100 -61.823188,55.228478 -61.823189,2.6794897e-6 -61.82319,-55.228472 -34.144006,-99.999999 -1.656546e-6,-100 c 9.5640902e-7,0 1.91281802e-6,0 2.869227e-6,0"
           transform="matrix(0.83467686,0.55074,-0.55074,0.83467686,0,0)"
           id="path27348"
           style="fill:none;stroke:#0000ff;stroke-width:1" />
        <path
           d="M 1.9727984e-6,100 C -40.66246,100 -73.625899,55.228478 -73.6259,2.6794897e-6 -73.625901,-55.228472 -40.662464,-99.999999 -1.9727984e-6,-100 c 1.13899774e-6,0 2.2779955e-6,0 3.4169933e-6,0"
           transform="matrix(0.64779693,0.76181306,-0.76181306,0.64779693,0,0)"
           id="path27350"
           style="fill:none;stroke:#0000ff;stroke-width:1" />
        <path
           d="M 2.1546096e-6,100 C -44.409874,100 -80.411193,55.228478 -80.411194,2.6794897e-6 -80.411195,-55.228472 -44.409878,-99.999999 -2.1546097e-6,-100 c 1.24396675e-6,0 2.48793348e-6,0 3.7319002e-6,0"
           transform="matrix(0.3209617,0.94709217,-0.94709217,0.3209617,0,0)"
           id="path27352"
           style="fill:none;stroke:#0000ff;stroke-width:1" />
        <path
           d="M 1.6028976e-6,-100 C 45.130866,-99.999999 81.71666,-55.228473 81.71666,1.961531e-6 81.716659,55.228475 45.130866,99.999998 2.7762813e-6,100"
           transform="matrix(0.12101765,-0.99265036,0.99265036,0.12101765,0,0)"
           id="path27354"
           style="fill:none;stroke:#0000ff;stroke-width:1" />
        <path
           d="M 1.5192714e-6,-100 C 42.776303,-99.999999 77.453347,-55.228473 77.453346,1.961531e-6 77.453345,55.228475 42.776303,99.999998 2.6314374e-6,100"
           transform="matrix(0.51469551,-0.85737304,0.85737304,0.51469551,0,0)"
           id="path27356"
           style="fill:none;stroke:#0000ff;stroke-width:1" />
        <path
           d="M 1.3321106e-6,-100 C 37.506642,-99.999999 67.911782,-55.228473 67.911781,1.961531e-6 67.911781,55.228475 37.506642,99.999998 2.3072677e-6,100"
           transform="matrix(0.7618032,-0.64780852,0.64780852,0.7618032,0,0)"
           id="path27358"
           style="fill:none;stroke:#0000ff;stroke-width:1" />
        <path
           d="M 1.0541701e-6,-100 C 29.681004,-99.999999 53.742211,-55.228473 53.74221,1.961531e-6 53.74221,55.228475 29.681004,99.999998 1.8258638e-6,100"
           transform="matrix(0.89492694,-0.44621271,0.44621271,0.89492694,0,0)"
           id="path27360"
           style="fill:none;stroke:#0000ff;stroke-width:1" />
        <path
           d="M 7.0439095e-7,-100 C 19.832691,-99.999999 35.910263,-55.228473 35.910263,1.961531e-6 35.910263,55.228475 19.832691,99.999998 1.2200326e-6,100"
           transform="matrix(0.96302603,-0.26940838,0.26940838,0.96302603,0,0)"
           id="path27362"
           style="fill:none;stroke:#0000ff;stroke-width:1" />
        <path
           d="M 3.0661001e-7,-100 C 8.6328504,-99.999999 15.631158,-55.228473 15.631158,1.961531e-6 15.631158,55.228475 8.6328503,99.999998 5.3106051e-7,100"
           transform="matrix(0.99384212,-0.11080541,0.11080541,0.99384212,0,0)"
           id="path27364"
           style="fill:none;stroke:#0000ff;stroke-width:1" />
      </g>
      <g
         id="g27366"
         style="stroke:#0000ff">
        <path
           d="m 15.681883,98.7637 c -10.2616164,1.62942 -21.1021464,1.62942 -31.363763,10e-7"
           id="path27368"
           style="fill:none;stroke:#0000ff;stroke-width:1" />
        <path
           d="m 50.483136,86.322501 c -27.344805,15.992319 -72.11422,16.241669 -99.995286,0.556949 -0.326797,-0.183843 -0.650474,-0.369501 -0.970986,-0.556949"
           id="path27370"
           style="fill:none;stroke:#0000ff;stroke-width:1" />
        <path
           d="M 69.650363,71.755838 C 46.919886,93.819981 -2.6903355,101.13716 -41.157169,88.099214 -52.906053,84.117048 -62.707816,78.494867 -69.650362,71.755838"
           id="path27372"
           style="fill:none;stroke:#0000ff;stroke-width:1" />
        <path
           d="M 83.23702,55.422364 C 65.680574,81.790497 14.181779,95.002614 -31.788758,84.932453 -55.477895,79.743185 -74.189987,69.01016 -83.237021,55.422363"
           id="path27374"
           style="fill:none;stroke:#0000ff;stroke-width:1" />
        <path
           d="M 92.61155,37.724237 C 80.661432,67.062032 29.510344,85.288399 -21.637603,78.433967 -56.869963,73.712413 -84.379919,57.933061 -92.611549,37.724239"
           id="path27376"
           style="fill:none;stroke:#0000ff;stroke-width:1" />
        <path
           d="M 98.159567,19.097233 C 92.110028,50.192526 43.258372,72.587304 -10.953659,69.11737 -56.828897,66.181046 -93.040335,45.410652 -98.159567,19.097232"
           id="path27378"
           style="fill:none;stroke:#0000ff;stroke-width:1" />
        <path
           d="M 100,0 C 100,31.678304 55.228475,57.358643 0,57.358643 -55.228475,57.358643 -100,31.678304 -100,0 c 0,-8.8734214e-7 0,-1.7746843e-6 0,-2.6620265e-6"
           id="path27380"
           style="fill:none;stroke:#0000ff;stroke-width:1" />
        <path
           d="M 98.159566,-19.097235 C 104.20911,11.998058 65.165693,40.018711 10.953662,43.488646 -43.25837,46.958581 -92.110026,24.563804 -98.159566,-6.5314883 c -0.812361,-4.1756217 -0.812361,-8.3901207 -10e-7,-12.5657427"
           id="path27382"
           style="fill:none;stroke:#0000ff;stroke-width:1" />
        <path
           d="M 92.61155,-37.724237 C 104.56167,-8.386442 72.785549,20.953155 21.637602,27.807586 -29.510344,34.662018 -80.661432,16.435651 -92.61155,-12.902144 c -3.325469,-8.164099 -3.325469,-16.657996 10e-7,-24.822095"
           id="path27384"
           style="fill:none;stroke:#0000ff;stroke-width:1" />
        <path
           d="M 83.237019,-55.422365 C 100.79347,-29.054233 77.759296,0.48484148 31.78876,10.555003 -14.181776,20.625165 -65.680572,7.4130489 -83.237019,-18.955084 c -7.81818,-11.74217 -7.818181,-24.725107 -2e-6,-36.467278"
           id="path27386"
           style="fill:none;stroke:#0000ff;stroke-width:1" />
        <path
           d="M 69.650364,-71.755837 C 92.380839,-49.691693 79.624,-21.235827 41.157166,-8.1978815 2.6903324,4.8400639 -46.919889,-2.4771158 -69.650364,-24.54126 c -15.001786,-14.562016 -15.001785,-32.652561 10e-7,-47.214578"
           id="path27388"
           style="fill:none;stroke:#0000ff;stroke-width:1" />
        <path
           d="m 50.483138,-86.3225 c 27.344804,15.992318 26.910077,41.671632 -0.97099,57.356354 -27.881068,15.684723 -72.650482,15.435367 -99.995286,-0.556951 -26.970052,-15.773147 -26.970054,-41.026252 -3e-6,-56.799401"
           id="path27390"
           style="fill:none;stroke:#0000ff;stroke-width:1" />
        <path
           d="m 15.681883,-98.7637 c 31.285816,4.967815 49.626962,23.542596 40.966098,41.487935 -8.660865,17.945339 -41.044048,28.4657 -72.329864,23.497885 -31.285816,-4.967815 -49.626962,-23.542597 -40.966098,-41.487935 5.510057,-11.416855 21.062001,-20.337349 40.966088,-23.497884"
           id="path27392"
           style="fill:none;stroke:#0000ff;stroke-width:1" />
        <path
           d="m 45.399052,-72.986984 c 0,14.38195 -20.325848,26.040825 -45.399052,26.040825 -25.073204,0 -45.399052,-11.658875 -45.399052,-26.040825 0,-14.381951 20.325848,-26.040825 45.399052,-26.040825 25.073204,0 45.399052,11.658874 45.399052,26.040825 z"
           id="path27394"
           style="fill:none;stroke:#0000ff;stroke-width:1" />
        <path
           d="m 30.901699,-77.905991 c 0,9.789516 -13.835162,17.725487 -30.901699,17.725487 -17.066537,0 -30.901699,-7.935971 -30.901699,-17.725487 0,-9.789516 13.835162,-17.725486 30.901699,-17.725486 17.066537,0 30.901699,7.93597 30.901699,17.725486 z"
           id="path27396"
           style="fill:none;stroke:#0000ff;stroke-width:1" />
        <path
           d="m 15.643447,-80.906693 c 0,4.956045 -7.0038098,8.973712 -15.643447,8.973712 -8.6396372,0 -15.643447,-4.017667 -15.643447,-8.973712 0,-4.956044 7.0038098,-8.973711 15.643447,-8.973711 8.6396372,0 15.643447,4.017667 15.643447,8.973711 z"
           id="path27398"
           style="fill:none;stroke:#0000ff;stroke-width:1" />
      </g>
      <path
         d="M 100,0 C 100,55.228475 55.228475,100 0,100 -55.228475,100 -100,55.228475 -100,0 c 0,-55.228475 44.771525,-100 100,-100 55.228475,0 100,44.771525 100,100 z"
         id="path27400"
         style="fill:none;stroke:#0000ff;stroke-width:1" />
    </g>
  </g>
</svg>
