<?xml version="1.0" encoding="utf-8"?>
<!-- Generator: Adobe Illustrator 23.0.1, SVG Export Plug-In . SVG Version: 6.00 Build 0)  -->
<svg version="1.1" id="Layer_1" xmlns="http://www.w3.org/2000/svg" xmlns:xlink="http://www.w3.org/1999/xlink" x="0px" y="0px"
	 viewBox="0 0 560 560" style="enable-background:new 0 0 560 560;" xml:space="preserve">
<style type="text/css">
	.st0{enable-background:new    ;}
	.st1{clip-path:url(#SVGID_1_);enable-background:new    ;}
	.st2{fill:none;stroke:#000000;stroke-width:0.25;stroke-miterlimit:10;}
	.st3{clip-path:url(#SVGID_1_);fill:none;stroke:#000000;stroke-width:0.25;stroke-miterlimit:10;}
	.st4{clip-path:url(#SVGID_2_);enable-background:new    ;}
	.st5{clip-path:url(#SVGID_2_);fill:none;stroke:#000000;stroke-width:0.25;stroke-miterlimit:10;}
	.st6{clip-path:url(#SVGID_3_);enable-background:new    ;}
	.st7{clip-path:url(#SVGID_3_);fill:none;stroke:#000000;stroke-width:0.25;stroke-miterlimit:10;}
	.st8{clip-path:url(#SVGID_4_);enable-background:new    ;}
	.st9{clip-path:url(#SVGID_4_);fill:none;stroke:#000000;stroke-width:0.25;stroke-miterlimit:10;}
	.st10{clip-path:url(#SVGID_5_);enable-background:new    ;}
	.st11{clip-path:url(#SVGID_5_);fill:none;stroke:#000000;stroke-width:0.25;stroke-miterlimit:10;}
	.st12{clip-path:url(#SVGID_6_);enable-background:new    ;}
	.st13{clip-path:url(#SVGID_6_);fill:none;stroke:#000000;stroke-width:0.25;stroke-miterlimit:10;}
	.st14{clip-path:url(#SVGID_7_);enable-background:new    ;}
	.st15{clip-path:url(#SVGID_7_);fill:none;stroke:#000000;stroke-width:0.25;stroke-miterlimit:10;}
	.st16{clip-path:url(#SVGID_8_);enable-background:new    ;}
	.st17{clip-path:url(#SVGID_8_);fill:none;stroke:#000000;stroke-width:0.25;stroke-miterlimit:10;}
	.st18{clip-path:url(#SVGID_9_);enable-background:new    ;}
	.st19{clip-path:url(#SVGID_9_);fill:none;stroke:#000000;stroke-width:0.25;stroke-miterlimit:10;}
	.st20{clip-path:url(#SVGID_10_);enable-background:new    ;}
	.st21{clip-path:url(#SVGID_10_);fill:none;stroke:#000000;stroke-width:0.25;stroke-miterlimit:10;}
	.st22{clip-path:url(#SVGID_11_);enable-background:new    ;}
	.st23{clip-path:url(#SVGID_11_);fill:none;stroke:#000000;stroke-width:0.25;stroke-miterlimit:10;}
	.st24{clip-path:url(#SVGID_12_);enable-background:new    ;}
	.st25{clip-path:url(#SVGID_12_);fill:none;stroke:#000000;stroke-width:0.25;stroke-miterlimit:10;}
	.st26{clip-path:url(#SVGID_13_);enable-background:new    ;}
	.st27{clip-path:url(#SVGID_13_);fill:none;stroke:#000000;stroke-width:0.25;stroke-miterlimit:10;}
	.st28{clip-path:url(#SVGID_14_);enable-background:new    ;}
	.st29{clip-path:url(#SVGID_14_);fill:none;stroke:#000000;stroke-width:0.25;stroke-miterlimit:10;}
	.st30{clip-path:url(#SVGID_15_);enable-background:new    ;}
	.st31{clip-path:url(#SVGID_15_);fill:none;stroke:#000000;stroke-width:0.25;stroke-miterlimit:10;}
	.st32{clip-path:url(#SVGID_16_);enable-background:new    ;}
	.st33{clip-path:url(#SVGID_16_);fill:none;stroke:#000000;stroke-width:0.25;stroke-miterlimit:10;}
	.st34{clip-path:url(#SVGID_17_);enable-background:new    ;}
	.st35{clip-path:url(#SVGID_17_);fill:none;stroke:#000000;stroke-width:0.25;stroke-miterlimit:10;}
	.st36{clip-path:url(#SVGID_18_);enable-background:new    ;}
	.st37{clip-path:url(#SVGID_18_);fill:none;stroke:#000000;stroke-width:0.25;stroke-miterlimit:10;}
	.st38{clip-path:url(#SVGID_19_);enable-background:new    ;}
	.st39{clip-path:url(#SVGID_19_);fill:none;stroke:#000000;stroke-width:0.25;stroke-miterlimit:10;}
	.st40{clip-path:url(#SVGID_20_);enable-background:new    ;}
	.st41{clip-path:url(#SVGID_20_);fill:none;stroke:#000000;stroke-width:0.25;stroke-miterlimit:10;}
	.st42{clip-path:url(#SVGID_21_);enable-background:new    ;}
	.st43{clip-path:url(#SVGID_21_);fill:none;stroke:#000000;stroke-width:0.25;stroke-miterlimit:10;}
	.st44{clip-path:url(#SVGID_22_);enable-background:new    ;}
	.st45{clip-path:url(#SVGID_22_);fill:none;stroke:#000000;stroke-width:0.25;stroke-miterlimit:10;}
	.st46{clip-path:url(#SVGID_23_);enable-background:new    ;}
	.st47{clip-path:url(#SVGID_23_);fill:none;stroke:#000000;stroke-width:0.25;stroke-miterlimit:10;}
	.st48{clip-path:url(#SVGID_24_);fill:none;stroke:#000000;stroke-width:0.25;stroke-miterlimit:10;}
	.st49{clip-path:url(#SVGID_25_);enable-background:new    ;}
	.st50{clip-path:url(#SVGID_25_);fill:none;stroke:#000000;stroke-width:0.25;stroke-miterlimit:10;}
	.st51{clip-path:url(#SVGID_26_);enable-background:new    ;}
	.st52{clip-path:url(#SVGID_26_);fill:none;stroke:#000000;stroke-width:0.25;stroke-miterlimit:10;}
	.st53{clip-path:url(#SVGID_27_);fill:none;stroke:#000000;stroke-width:0.25;stroke-miterlimit:10;}
</style>
<g>
	<g class="st0">
		<defs>
			<path id="SVGID_55_" class="st0" d="M392.91,491.51c-0.57,0.35-1.17,0.67-1.78,0.97c-2.38,1.14-5.11,1.82-7.87,1.85
				c-5.34,0.06-10.29-2.03-14.16-5.11c-3.98-3.11-7.2-7.15-10.11-11.84c-5.77-9.39-10.41-21.72-14.57-36.24
				c-8.27-29.04-14.39-66.99-19-104.91c-0.59-4.93-1.16-9.87-1.71-14.78l46.08-27.88c0.54,4.91,1.11,9.85,1.71,14.78
				c4.61,37.92,10.73,75.86,19,104.91c4.16,14.52,8.79,26.85,14.57,36.24c2.91,4.7,6.13,8.73,10.11,11.84
				c3.87,3.08,8.82,5.17,14.16,5.11c2.76-0.03,5.5-0.71,7.87-1.85c0.62-0.3,1.21-0.62,1.78-0.97
				C425.16,471.99,406.73,483.15,392.91,491.51z"/>
		</defs>
		<clipPath id="SVGID_1_">
			<use xlink:href="#SVGID_55_"  style="overflow:visible;"/>
		</clipPath>
		<g class="st1">
			<g>
				<path class="st2" d="M402.08,482.18l46.08-27.88c-2.86,4.34-6.27,8.02-10.95,10.3l-46.08,27.88
					C395.8,490.2,399.22,486.51,402.08,482.18z"/>
			</g>
			<g>
				<path class="st2" d="M391.12,492.48l46.08-27.88c-2.38,1.14-5.11,1.82-7.87,1.85l-46.08,27.88
					C386.01,494.3,388.75,493.62,391.12,492.48z"/>
				<line class="st2" x1="388.64" y1="493.46" x2="434.72" y2="465.58"/>
				<line class="st2" x1="385.99" y1="494.09" x2="432.07" y2="466.22"/>
			</g>
			<g>
				<path class="st2" d="M383.25,494.33l46.08-27.88c-5.34,0.06-10.29-2.03-14.16-5.11l-46.08,27.88
					C372.96,492.3,377.91,494.39,383.25,494.33z"/>
				<line class="st2" x1="378.07" y1="493.72" x2="424.14" y2="465.84"/>
				<line class="st2" x1="373.3" y1="491.93" x2="419.37" y2="464.05"/>
			</g>
			<g>
				<path class="st2" d="M369.09,489.22l46.08-27.88c-3.98-3.11-7.2-7.15-10.11-11.84l-46.08,27.88
					C361.89,482.07,365.11,486.11,369.09,489.22z"/>
				<line class="st2" x1="365.35" y1="485.81" x2="411.43" y2="457.93"/>
				<line class="st2" x1="362.01" y1="481.84" x2="408.09" y2="453.97"/>
			</g>
			<g>
				<path class="st2" d="M358.99,477.38l46.08-27.88c-5.77-9.39-10.41-21.72-14.57-36.24l-46.08,27.88
					C348.58,455.66,353.21,467.99,358.99,477.38z"/>
				<line class="st2" x1="353.57" y1="467.03" x2="399.65" y2="439.16"/>
				<line class="st2" x1="348.76" y1="454.9" x2="394.84" y2="427.02"/>
			</g>
			<g>
				<path class="st2" d="M344.42,441.14l46.08-27.88c-8.27-29.04-14.39-66.99-19-104.91l-46.08,27.88
					C330.03,374.15,336.15,412.1,344.42,441.14z"/>
				<line class="st2" x1="336.84" y1="409.46" x2="382.92" y2="381.58"/>
				<line class="st2" x1="330.55" y1="373.83" x2="376.63" y2="345.95"/>
			</g>
			<g>
				<path class="st2" d="M325.42,336.23l46.08-27.88c-0.59-4.93-1.16-9.87-1.71-14.78l-46.08,27.88
					C324.25,326.36,324.82,331.3,325.42,336.23z"/>
				<line class="st2" x1="324.83" y1="331.3" x2="370.91" y2="303.42"/>
				<line class="st2" x1="324.26" y1="326.37" x2="370.34" y2="298.49"/>
			</g>
		</g>
		<path class="st3" d="M392.91,491.51c-0.57,0.35-1.17,0.67-1.78,0.97c-2.38,1.14-5.11,1.82-7.87,1.85
			c-5.34,0.06-10.29-2.03-14.16-5.11c-3.98-3.11-7.2-7.15-10.11-11.84c-5.77-9.39-10.41-21.72-14.57-36.24
			c-8.27-29.04-14.39-66.99-19-104.91c-0.59-4.93-1.16-9.87-1.71-14.78l46.08-27.88c0.54,4.91,1.11,9.85,1.71,14.78
			c4.61,37.92,10.73,75.86,19,104.91c4.16,14.52,8.79,26.85,14.57,36.24c2.91,4.7,6.13,8.73,10.11,11.84
			c3.87,3.08,8.82,5.17,14.16,5.11c2.76-0.03,5.5-0.71,7.87-1.85c0.62-0.3,1.21-0.62,1.78-0.97
			C425.16,471.99,406.73,483.15,392.91,491.51z"/>
		<use xlink:href="#SVGID_55_"  style="overflow:visible;fill:none;stroke:#000000;stroke-miterlimit:10;"/>
	</g>
	<g class="st0">
		<defs>
			<path id="SVGID_57_" class="st0" d="M438.98,463.63l-46.08,27.88c3.79-2.29,6.69-5.57,9.17-9.33c5.28-8.24,9.01-19.31,12.2-32.88
				c5.51-23.73,8.96-55.06,11.2-89.02c6.58-101.8,1.74-226.89,1.74-227.04c-0.09-2.23-1.08-4.45-2.69-6
				c-1.65-1.56-3.84-2.46-6.03-2.43l46.08-27.88c2.19-0.02,4.38,0.87,6.03,2.43c1.61,1.56,2.61,3.78,2.69,6
				c0.01,0.15,4.84,125.24-1.74,227.04c-2.24,33.96-5.68,65.28-11.2,89.02c-3.18,13.56-6.92,24.63-12.2,32.88
				C445.67,458.06,442.77,461.34,438.98,463.63z"/>
		</defs>
		<clipPath id="SVGID_2_">
			<use xlink:href="#SVGID_57_"  style="overflow:visible;"/>
		</clipPath>
		<g class="st4">
			<g>
				<path class="st2" d="M418.48,124.81l46.08-27.88c2.19-0.02,4.38,0.87,6.03,2.43l-46.08,27.88
					C422.87,125.68,420.68,124.78,418.48,124.81z"/>
				<line class="st2" x1="420.66" y1="125.08" x2="466.73" y2="97.2"/>
				<line class="st2" x1="422.71" y1="125.91" x2="468.78" y2="98.03"/>
			</g>
			<g>
				<path class="st2" d="M424.52,127.24l46.08-27.88c1.61,1.56,2.61,3.78,2.69,6l-46.08,27.88
					C427.12,131.02,426.13,128.8,424.52,127.24z"/>
				<line class="st2" x1="425.91" y1="128.99" x2="471.99" y2="101.12"/>
				<line class="st2" x1="426.83" y1="131.04" x2="472.91" y2="103.17"/>
			</g>
			<g>
				<path class="st2" d="M427.21,133.24l46.08-27.88c0.01,0.15,4.84,125.24-1.74,227.04l-46.08,27.88
					C432.05,258.48,427.21,133.4,427.21,133.24z"/>
				<line class="st2" x1="428.22" y1="169.55" x2="474.3" y2="141.68"/>
				<line class="st2" x1="428.85" y1="256.21" x2="474.93" y2="228.33"/>
			</g>
			<g>
				<path class="st2" d="M425.47,360.28l46.08-27.88c-2.24,33.96-5.68,65.28-11.2,89.02l-46.08,27.88
					C419.79,425.57,423.23,394.24,425.47,360.28z"/>
				<line class="st2" x1="422.8" y1="393.18" x2="468.87" y2="365.3"/>
				<line class="st2" x1="419.13" y1="423.22" x2="465.21" y2="395.34"/>
			</g>
			<g>
				<path class="st2" d="M414.27,449.3l46.08-27.88c-3.18,13.56-6.92,24.63-12.2,32.88l-46.08,27.88
					C407.36,473.93,411.09,462.86,414.27,449.3z"/>
				<line class="st2" x1="410.87" y1="462.02" x2="456.95" y2="434.14"/>
				<line class="st2" x1="406.88" y1="473" x2="452.96" y2="445.13"/>
			</g>
			<g>
				<path class="st2" d="M402.08,482.18l46.08-27.88c-2.86,4.34-6.27,8.02-10.95,10.3l-46.08,27.88
					C395.8,490.2,399.22,486.51,402.08,482.18z"/>
				<line class="st2" x1="399.01" y1="486.27" x2="445.08" y2="458.39"/>
				<line class="st2" x1="395.41" y1="489.76" x2="441.49" y2="461.88"/>
			</g>
		</g>
		<path class="st5" d="M438.98,463.63l-46.08,27.88c3.79-2.29,6.69-5.57,9.17-9.33c5.28-8.24,9.01-19.31,12.2-32.88
			c5.51-23.73,8.96-55.06,11.2-89.02c6.58-101.8,1.74-226.89,1.74-227.04c-0.09-2.23-1.08-4.45-2.69-6
			c-1.65-1.56-3.84-2.46-6.03-2.43l46.08-27.88c2.19-0.02,4.38,0.87,6.03,2.43c1.61,1.56,2.61,3.78,2.69,6
			c0.01,0.15,4.84,125.24-1.74,227.04c-2.24,33.96-5.68,65.28-11.2,89.02c-3.18,13.56-6.92,24.63-12.2,32.88
			C445.67,458.06,442.77,461.34,438.98,463.63z"/>
		<use xlink:href="#SVGID_57_"  style="overflow:visible;fill:none;stroke:#000000;stroke-miterlimit:10;"/>
	</g>
	<g class="st0">
		<defs>
			<path id="SVGID_59_" class="st0" d="M293.49,391.14c-0.18,0.11-0.37,0.22-0.56,0.33c-3.74,2.12-8.04,3.35-12.54,3.4
				c-4.5,0.05-8.93-1.09-12.8-3.13c-3.9-2.03-7.3-4.88-10.3-8.19c-6.05-6.66-10.73-15.3-14.82-25.28
				c-8.11-19.9-13.75-45.39-17.91-70.87c-0.12-0.75-0.24-1.5-0.36-2.26l46.08-27.88c0.12,0.75,0.24,1.5,0.36,2.26
				c4.16,25.47,9.8,50.97,17.91,70.87c4.09,9.99,8.78,18.62,14.82,25.28c3,3.31,6.4,6.16,10.3,8.19c3.86,2.03,8.3,3.18,12.8,3.13
				c4.5-0.05,8.8-1.29,12.54-3.4c0.19-0.11,0.37-0.22,0.56-0.33C325.75,371.62,307.32,382.77,293.49,391.14z"/>
		</defs>
		<clipPath id="SVGID_3_">
			<use xlink:href="#SVGID_59_"  style="overflow:visible;"/>
		</clipPath>
		<g class="st6">
			<g>
				<path class="st2" d="M309.02,373.07l46.08-27.88c-4.09,7.81-9.09,14.36-16.09,18.39l-46.08,27.88
					C299.93,387.43,304.94,380.88,309.02,373.07z"/>
			</g>
			<g>
				<path class="st2" d="M292.94,391.46l46.08-27.88c-3.74,2.12-8.04,3.35-12.54,3.4l-46.08,27.88
					C284.89,394.82,289.2,393.58,292.94,391.46z"/>
				<line class="st2" x1="289.02" y1="393.28" x2="335.1" y2="365.4"/>
				<line class="st2" x1="284.82" y1="394.43" x2="330.89" y2="366.56"/>
			</g>
			<g>
				<path class="st2" d="M280.39,394.87l46.08-27.88c-4.5,0.05-8.93-1.09-12.8-3.13l-46.08,27.88
					C271.46,393.77,275.89,394.92,280.39,394.87z"/>
				<line class="st2" x1="275.94" y1="394.53" x2="322.01" y2="366.65"/>
				<line class="st2" x1="271.63" y1="393.46" x2="317.71" y2="365.59"/>
			</g>
			<g>
				<path class="st2" d="M267.6,391.74l46.08-27.88c-3.9-2.03-7.3-4.88-10.3-8.19l-46.08,27.88
					C260.3,386.86,263.7,389.7,267.6,391.74z"/>
				<line class="st2" x1="263.86" y1="389.45" x2="309.94" y2="361.57"/>
				<line class="st2" x1="260.43" y1="386.69" x2="306.51" y2="358.81"/>
			</g>
			<g>
				<path class="st2" d="M257.29,383.55l46.08-27.88c-6.05-6.66-10.73-15.3-14.82-25.28l-46.08,27.88
					C246.56,368.25,251.25,376.89,257.29,383.55z"/>
				<line class="st2" x1="251.67" y1="376.25" x2="297.75" y2="348.38"/>
				<line class="st2" x1="246.79" y1="367.78" x2="292.87" y2="339.9"/>
			</g>
			<g>
				<path class="st2" d="M242.47,358.27l46.08-27.88c-8.11-19.9-13.75-45.39-17.91-70.87l-46.08,27.88
					C228.72,312.87,234.36,338.37,242.47,358.27z"/>
				<line class="st2" x1="235.15" y1="336.71" x2="281.22" y2="308.83"/>
				<line class="st2" x1="229.25" y1="312.67" x2="275.33" y2="284.79"/>
			</g>
			<g>
				<path class="st2" d="M224.56,287.4l46.08-27.88c-0.12-0.75-0.24-1.5-0.36-2.26l-46.08,27.88
					C224.32,285.89,224.44,286.65,224.56,287.4z"/>
				<line class="st2" x1="224.44" y1="286.65" x2="270.51" y2="258.77"/>
				<line class="st2" x1="224.32" y1="285.89" x2="270.39" y2="258.02"/>
			</g>
		</g>
		<path class="st7" d="M293.49,391.14c-0.18,0.11-0.37,0.22-0.56,0.33c-3.74,2.12-8.04,3.35-12.54,3.4
			c-4.5,0.05-8.93-1.09-12.8-3.13c-3.9-2.03-7.3-4.88-10.3-8.19c-6.05-6.66-10.73-15.3-14.82-25.28
			c-8.11-19.9-13.75-45.39-17.91-70.87c-0.12-0.75-0.24-1.5-0.36-2.26l46.08-27.88c0.12,0.75,0.24,1.5,0.36,2.26
			c4.16,25.47,9.8,50.97,17.91,70.87c4.09,9.99,8.78,18.62,14.82,25.28c3,3.31,6.4,6.16,10.3,8.19c3.86,2.03,8.3,3.18,12.8,3.13
			c4.5-0.05,8.8-1.29,12.54-3.4c0.19-0.11,0.37-0.22,0.56-0.33C325.75,371.62,307.32,382.77,293.49,391.14z"/>
		<use xlink:href="#SVGID_59_"  style="overflow:visible;fill:none;stroke:#000000;stroke-miterlimit:10;"/>
	</g>
	<g class="st0">
		<defs>
			<path id="SVGID_61_" class="st0" d="M339.57,363.26l-46.08,27.88c6.7-4.06,11.55-10.46,15.53-18.06
				c7.03-13.6,11.49-31.72,14.69-51.63l46.08-27.88c-3.19,19.91-7.66,38.03-14.69,51.63C351.12,352.79,346.28,359.2,339.57,363.26z"
				/>
		</defs>
		<clipPath id="SVGID_4_">
			<use xlink:href="#SVGID_61_"  style="overflow:visible;"/>
		</clipPath>
		<g class="st8">
			<g>
				<path class="st2" d="M323.71,321.45l46.08-27.88c-3.19,19.91-7.66,38.03-14.69,51.63l-46.08,27.88
					C316.05,359.48,320.52,341.36,323.71,321.45z"/>
				<line class="st2" x1="320.05" y1="340.66" x2="366.12" y2="312.78"/>
				<line class="st2" x1="315.25" y1="358.07" x2="361.32" y2="330.19"/>
			</g>
			<g>
				<path class="st2" d="M309.02,373.07l46.08-27.88c-4.09,7.81-9.09,14.36-16.09,18.39l-46.08,27.88
					C299.93,387.43,304.94,380.88,309.02,373.07z"/>
				<line class="st2" x1="304.59" y1="380.41" x2="350.67" y2="352.54"/>
				<line class="st2" x1="299.31" y1="386.64" x2="345.39" y2="358.76"/>
			</g>
		</g>
		<path class="st9" d="M339.57,363.26l-46.08,27.88c6.7-4.06,11.55-10.46,15.53-18.06c7.03-13.6,11.49-31.72,14.69-51.63
			l46.08-27.88c-3.19,19.91-7.66,38.03-14.69,51.63C351.12,352.79,346.28,359.2,339.57,363.26z"/>
		<use xlink:href="#SVGID_61_"  style="overflow:visible;fill:none;stroke:#000000;stroke-miterlimit:10;"/>
	</g>
	<g class="st0">
		<defs>
			<path id="SVGID_63_" class="st0" d="M195.31,341.11c-1.31,0.79-2.68,1.5-4.12,2.11c-3.61,1.54-7.59,2.39-11.75,2.43
				c-4.12,0.04-8.16-0.72-11.89-2.18c-3.76-1.46-7.18-3.57-10.22-6.12c-6.14-5.12-10.98-11.91-15.1-19.59
				c-8.16-15.4-13.61-34.83-17.57-54.12c-7.81-38.5-9.24-76.46-9.25-76.73c-0.12-3.18,1.47-5.96,3.93-7.45l46.08-27.88
				c-2.47,1.49-4.06,4.27-3.93,7.45c0.01,0.27,1.44,38.22,9.25,76.73c3.96,19.29,9.4,38.72,17.57,54.12
				c4.12,7.68,8.96,14.47,15.1,19.59c3.05,2.54,6.46,4.66,10.22,6.12c3.73,1.46,7.77,2.22,11.89,2.18c4.16-0.04,8.14-0.9,11.75-2.43
				c1.43-0.61,2.81-1.31,4.12-2.11C227.56,321.6,209.13,332.75,195.31,341.11z"/>
		</defs>
		<clipPath id="SVGID_5_">
			<use xlink:href="#SVGID_63_"  style="overflow:visible;"/>
		</clipPath>
		<g class="st10">
			<g>
				<path class="st2" d="M207.71,329.13l46.08-27.88c-4.3,6.08-9.71,11.21-16.52,14.09l-46.08,27.88
					C198,340.34,203.4,335.21,207.71,329.13z"/>
			</g>
			<g>
				<path class="st2" d="M191.19,343.22l46.08-27.88c-3.61,1.54-7.59,2.39-11.75,2.43l-46.08,27.88
					C183.6,345.6,187.58,344.75,191.19,343.22z"/>
				<line class="st2" x1="187.46" y1="344.52" x2="233.54" y2="316.64"/>
				<line class="st2" x1="183.53" y1="345.34" x2="229.61" y2="317.46"/>
			</g>
			<g>
				<path class="st2" d="M179.44,345.65l46.08-27.88c-4.12,0.04-8.16-0.72-11.89-2.18l-46.08,27.88
					C171.28,344.93,175.32,345.69,179.44,345.65z"/>
				<line class="st2" x1="175.36" y1="345.43" x2="221.43" y2="317.55"/>
				<line class="st2" x1="171.38" y1="344.69" x2="217.45" y2="316.82"/>
			</g>
			<g>
				<path class="st2" d="M167.55,343.47l46.08-27.88c-3.76-1.46-7.18-3.57-10.22-6.12l-46.08,27.88
					C160.38,339.9,163.79,342.01,167.55,343.47z"/>
				<line class="st2" x1="163.91" y1="341.8" x2="209.99" y2="313.93"/>
				<line class="st2" x1="160.5" y1="339.75" x2="206.58" y2="311.87"/>
			</g>
			<g>
				<path class="st2" d="M157.33,337.36l46.08-27.88c-6.14-5.12-10.98-11.91-15.1-19.59l-46.08,27.88
					C146.35,325.45,151.19,332.23,157.33,337.36z"/>
				<line class="st2" x1="151.6" y1="331.71" x2="197.68" y2="303.83"/>
				<line class="st2" x1="146.61" y1="325.12" x2="192.69" y2="297.24"/>
			</g>
			<g>
				<path class="st2" d="M142.23,317.77l46.08-27.88c-8.16-15.4-13.61-34.83-17.57-54.12l-46.08,27.88
					C128.63,282.94,134.07,302.37,142.23,317.77z"/>
				<line class="st2" x1="134.93" y1="301.18" x2="181.01" y2="273.3"/>
				<line class="st2" x1="129.17" y1="282.83" x2="175.25" y2="254.95"/>
			</g>
			<g>
				<path class="st2" d="M124.67,263.65l46.08-27.88c-7.81-38.5-9.24-76.46-9.25-76.73l-46.08,27.88
					C115.43,187.19,116.86,225.15,124.67,263.65z"/>
				<line class="st2" x1="118.8" y1="226.71" x2="164.88" y2="198.83"/>
				<line class="st2" x1="116.09" y1="198.38" x2="162.16" y2="170.5"/>
			</g>
			<g>
				<path class="st2" d="M115.42,186.92l46.08-27.88c-0.18-4.73,3.41-8.57,8.07-8.62l-46.08,27.88
					C118.83,178.35,115.24,182.2,115.42,186.92z"/>
				<line class="st2" x1="116.39" y1="182.6" x2="162.47" y2="154.72"/>
				<line class="st2" x1="119.29" y1="179.51" x2="165.36" y2="151.63"/>
			</g>
		</g>
		<path class="st11" d="M195.31,341.11c-1.31,0.79-2.68,1.5-4.12,2.11c-3.61,1.54-7.59,2.39-11.75,2.43
			c-4.12,0.04-8.16-0.72-11.89-2.18c-3.76-1.46-7.18-3.57-10.22-6.12c-6.14-5.12-10.98-11.91-15.1-19.59
			c-8.16-15.4-13.61-34.83-17.57-54.12c-7.81-38.5-9.24-76.46-9.25-76.73c-0.12-3.18,1.47-5.96,3.93-7.45l46.08-27.88
			c-2.47,1.49-4.06,4.27-3.93,7.45c0.01,0.27,1.44,38.22,9.25,76.73c3.96,19.29,9.4,38.72,17.57,54.12
			c4.12,7.68,8.96,14.47,15.1,19.59c3.05,2.54,6.46,4.66,10.22,6.12c3.73,1.46,7.77,2.22,11.89,2.18c4.16-0.04,8.14-0.9,11.75-2.43
			c1.43-0.61,2.81-1.31,4.12-2.11C227.56,321.6,209.13,332.75,195.31,341.11z"/>
		<use xlink:href="#SVGID_63_"  style="overflow:visible;fill:none;stroke:#000000;stroke-miterlimit:10;"/>
	</g>
	<g class="st0">
		<defs>
			<path id="SVGID_65_" class="st0" d="M241.39,313.23l-46.08,27.88c4.92-2.98,9-7.18,12.4-11.98c7.49-10.77,12.24-24.84,15.66-40.1
				c0.29-1.29,0.56-2.58,0.83-3.88l46.08-27.88c-0.27,1.3-0.54,2.6-0.83,3.88c-3.42,15.26-8.17,29.34-15.66,40.1
				C250.39,306.05,246.31,310.26,241.39,313.23z"/>
		</defs>
		<clipPath id="SVGID_6_">
			<use xlink:href="#SVGID_65_"  style="overflow:visible;"/>
		</clipPath>
		<g class="st12">
			<g>
				<path class="st2" d="M224.2,285.14l46.08-27.88c-0.27,1.3-0.54,2.6-0.83,3.88l-46.08,27.88
					C223.66,287.74,223.93,286.44,224.2,285.14z"/>
				<line class="st2" x1="223.93" y1="286.44" x2="270.01" y2="258.56"/>
				<line class="st2" x1="223.65" y1="287.74" x2="269.73" y2="259.86"/>
			</g>
			<g>
				<path class="st2" d="M223.37,289.03l46.08-27.88c-3.42,15.26-8.17,29.34-15.66,40.1l-46.08,27.88
					C215.2,318.36,219.95,304.28,223.37,289.03z"/>
				<line class="st2" x1="219.46" y1="303.81" x2="265.53" y2="275.93"/>
				<line class="st2" x1="214.34" y1="317.33" x2="260.42" y2="289.46"/>
			</g>
			<g>
				<path class="st2" d="M207.71,329.13l46.08-27.88c-4.3,6.08-9.71,11.21-16.52,14.09l-46.08,27.88
					C198,340.34,203.4,335.21,207.71,329.13z"/>
				<line class="st2" x1="203.03" y1="334.84" x2="249.1" y2="306.96"/>
				<line class="st2" x1="197.54" y1="339.63" x2="243.62" y2="311.76"/>
			</g>
		</g>
		<path class="st13" d="M241.39,313.23l-46.08,27.88c4.92-2.98,9-7.18,12.4-11.98c7.49-10.77,12.24-24.84,15.66-40.1
			c0.29-1.29,0.56-2.58,0.83-3.88l46.08-27.88c-0.27,1.3-0.54,2.6-0.83,3.88c-3.42,15.26-8.17,29.34-15.66,40.1
			C250.39,306.05,246.31,310.26,241.39,313.23z"/>
		<use xlink:href="#SVGID_65_"  style="overflow:visible;fill:none;stroke:#000000;stroke-miterlimit:10;"/>
	</g>
	<g class="st0">
		<defs>
			<path id="SVGID_67_" class="st0" d="M119.35,179.47l46.08-27.88c1.2-0.73,2.61-1.15,4.13-1.17c4.65-0.05,8.54,3.71,8.73,8.44
				c0.04,1,0.06,1.61,0.13,2.42l-46.08,27.88c-0.07-0.81-0.09-1.42-0.13-2.42c-0.18-4.73-4.07-8.49-8.73-8.44
				C121.96,178.32,120.55,178.74,119.35,179.47z"/>
		</defs>
		<clipPath id="SVGID_7_">
			<use xlink:href="#SVGID_67_"  style="overflow:visible;"/>
		</clipPath>
		<g class="st14">
			<g>
				<path class="st2" d="M115.42,186.92l46.08-27.88c-0.18-4.73,3.41-8.57,8.07-8.62l-46.08,27.88
					C118.83,178.35,115.24,182.2,115.42,186.92z"/>
			</g>
			<g>
				<path class="st2" d="M123.48,178.3l46.08-27.88c4.65-0.05,8.54,3.71,8.73,8.44l-46.08,27.88
					C132.03,182.02,128.14,178.25,123.48,178.3z"/>
				<line class="st2" x1="127.77" y1="179.42" x2="173.85" y2="151.54"/>
				<line class="st2" x1="130.9" y1="182.44" x2="176.98" y2="154.57"/>
			</g>
			<g>
				<path class="st2" d="M132.21,186.74l46.08-27.88c0.04,1,0.06,1.61,0.13,2.42l-46.08,27.88
					C132.27,188.36,132.25,187.74,132.21,186.74z"/>
				<line class="st2" x1="132.25" y1="187.63" x2="178.32" y2="159.76"/>
				<line class="st2" x1="132.29" y1="188.4" x2="178.36" y2="160.52"/>
			</g>
		</g>
		<path class="st15" d="M119.35,179.47l46.08-27.88c1.2-0.73,2.61-1.15,4.13-1.17c4.65-0.05,8.54,3.71,8.73,8.44
			c0.04,1,0.06,1.61,0.13,2.42l-46.08,27.88c-0.07-0.81-0.09-1.42-0.13-2.42c-0.18-4.73-4.07-8.49-8.73-8.44
			C121.96,178.32,120.55,178.74,119.35,179.47z"/>
		<use xlink:href="#SVGID_67_"  style="overflow:visible;fill:none;stroke:#000000;stroke-miterlimit:10;"/>
	</g>
	<g class="st0">
		<defs>
			<path id="SVGID_69_" class="st0" d="M132.34,189.16l46.08-27.88c0.06,1.61,0.19,3.96,0.42,6.91c0.38,5.95,1.08,14.32,2.18,24.04
				c2.15,19.46,5.99,44.29,12.33,65.32c4.21,14.02,9.64,26.3,15.68,33.8c3.46,4.34,6.89,7.04,10.23,8.31l-46.08,27.88
				c-3.34-1.27-6.77-3.96-10.23-8.31c-6.04-7.51-11.47-19.78-15.68-33.8c-6.34-21.03-10.17-45.86-12.33-65.32
				c-1.09-9.71-1.8-18.08-2.18-24.04C132.53,193.12,132.4,190.78,132.34,189.16z"/>
		</defs>
		<clipPath id="SVGID_8_">
			<use xlink:href="#SVGID_69_"  style="overflow:visible;"/>
		</clipPath>
		<g class="st16">
			<g>
				<path class="st2" d="M132.34,189.16l46.08-27.88c0.06,1.61,0.19,3.96,0.42,6.91l-46.08,27.88
					C132.53,193.12,132.4,190.78,132.34,189.16z"/>
				<line class="st2" x1="132.43" y1="191.01" x2="178.5" y2="163.14"/>
				<line class="st2" x1="132.56" y1="193.33" x2="178.64" y2="165.45"/>
			</g>
			<g>
				<path class="st2" d="M132.76,196.08l46.08-27.88c0.38,5.95,1.08,14.32,2.18,24.04l-46.08,27.88
					C133.84,210.4,133.14,202.03,132.76,196.08z"/>
				<line class="st2" x1="133.25" y1="202.79" x2="179.33" y2="174.92"/>
				<line class="st2" x1="133.97" y1="210.89" x2="180.05" y2="183.01"/>
			</g>
			<g>
				<path class="st2" d="M134.94,220.11l46.08-27.88c2.15,19.46,5.99,44.29,12.33,65.32l-46.08,27.88
					C140.93,264.4,137.09,239.57,134.94,220.11z"/>
				<line class="st2" x1="137.68" y1="241.02" x2="183.76" y2="213.14"/>
				<line class="st2" x1="141.73" y1="263.47" x2="187.81" y2="235.59"/>
			</g>
			<g>
				<path class="st2" d="M147.26,285.43l46.08-27.88c4.21,14.02,9.64,26.3,15.68,33.8l-46.08,27.88
					C156.91,311.73,151.47,299.45,147.26,285.43z"/>
				<line class="st2" x1="151.86" y1="298.76" x2="197.94" y2="270.88"/>
				<line class="st2" x1="157.13" y1="310.25" x2="203.21" y2="282.37"/>
			</g>
			<g>
				<path class="st2" d="M162.95,319.23l46.08-27.88c3.46,4.34,6.89,7.04,10.23,8.31l-46.08,27.88
					C169.84,326.27,166.41,323.58,162.95,319.23z"/>
				<line class="st2" x1="166.4" y1="323.03" x2="212.47" y2="295.16"/>
				<line class="st2" x1="169.81" y1="325.79" x2="215.89" y2="297.91"/>
			</g>
		</g>
		<path class="st17" d="M132.34,189.16l46.08-27.88c0.06,1.61,0.19,3.96,0.42,6.91c0.38,5.95,1.08,14.32,2.18,24.04
			c2.15,19.46,5.99,44.29,12.33,65.32c4.21,14.02,9.64,26.3,15.68,33.8c3.46,4.34,6.89,7.04,10.23,8.31l-46.08,27.88
			c-3.34-1.27-6.77-3.96-10.23-8.31c-6.04-7.51-11.47-19.78-15.68-33.8c-6.34-21.03-10.17-45.86-12.33-65.32
			c-1.09-9.71-1.8-18.08-2.18-24.04C132.53,193.12,132.4,190.78,132.34,189.16z"/>
		<use xlink:href="#SVGID_69_"  style="overflow:visible;fill:none;stroke:#000000;stroke-miterlimit:10;"/>
	</g>
	<g class="st0">
		<defs>
			<path id="SVGID_71_" class="st0" d="M173.18,327.54l46.08-27.88c1.77,0.71,3.56,1.04,5.6,1.05l-46.08,27.88
				C176.74,328.58,174.95,328.25,173.18,327.54z"/>
		</defs>
		<clipPath id="SVGID_9_">
			<use xlink:href="#SVGID_71_"  style="overflow:visible;"/>
		</clipPath>
		<g class="st18">
			<path class="st2" d="M173.18,327.54l46.08-27.88c1.77,0.71,3.56,1.04,5.6,1.05l-46.08,27.88
				C176.74,328.58,174.95,328.25,173.18,327.54z"/>
			<line class="st2" x1="174.96" y1="328.12" x2="221.04" y2="300.25"/>
			<line class="st2" x1="176.82" y1="328.47" x2="222.89" y2="300.59"/>
		</g>
		<path class="st19" d="M173.18,327.54l46.08-27.88c1.77,0.71,3.56,1.04,5.6,1.05l-46.08,27.88
			C176.74,328.58,174.95,328.25,173.18,327.54z"/>
		<use xlink:href="#SVGID_71_"  style="overflow:visible;fill:none;stroke:#000000;stroke-miterlimit:10;"/>
	</g>
	<g class="st0">
		<defs>
			<path id="SVGID_73_" class="st0" d="M186.37,326.4c0.94-0.57,1.87-1.26,2.8-2.07c3.33-2.92,6.59-7.57,9.46-13.63
				c5.74-12.13,9.72-29.54,12.09-47.33c4.86-35.68,3.84-72.99,3.68-77.14c-0.1-2.65,0.72-4.85,2.21-6.44
				c0.5-0.55,1.07-1.01,1.69-1.39l46.08-27.88c-0.62,0.38-1.2,0.84-1.69,1.39c-1.49,1.59-2.31,3.79-2.21,6.44
				c0.16,4.15,1.19,41.46-3.68,77.14c-2.38,17.78-6.36,35.2-12.09,47.33c-2.87,6.06-6.13,10.71-9.46,13.63
				c-0.93,0.81-1.86,1.5-2.8,2.07C218.63,306.89,200.2,318.04,186.37,326.4z"/>
		</defs>
		<clipPath id="SVGID_10_">
			<use xlink:href="#SVGID_73_"  style="overflow:visible;"/>
		</clipPath>
		<g class="st20">
			<g>
				<path class="st2" d="M184.19,327.5l46.08-27.88c1.68-0.67,3.34-1.73,4.98-3.17l-46.08,27.88
					C187.53,325.77,185.87,326.83,184.19,327.5z"/>
				<line class="st2" x1="187.52" y1="325.64" x2="233.6" y2="297.76"/>
			</g>
			<g>
				<path class="st2" d="M189.17,324.33l46.08-27.88c3.33-2.92,6.59-7.57,9.46-13.63l-46.08,27.88
					C195.77,316.76,192.5,321.41,189.17,324.33z"/>
				<line class="st2" x1="192.47" y1="320.85" x2="238.55" y2="292.97"/>
				<line class="st2" x1="195.65" y1="316.28" x2="241.72" y2="288.4"/>
			</g>
			<g>
				<path class="st2" d="M198.63,310.7l46.08-27.88c5.74-12.13,9.72-29.54,12.09-47.33l-46.08,27.88
					C208.35,281.15,204.37,298.57,198.63,310.7z"/>
				<line class="st2" x1="203.79" y1="296.99" x2="249.87" y2="269.11"/>
				<line class="st2" x1="207.81" y1="280.85" x2="253.89" y2="252.97"/>
			</g>
			<g>
				<path class="st2" d="M210.73,263.37l46.08-27.88c4.86-35.68,3.84-72.99,3.68-77.14l-46.08,27.88
					C214.56,190.39,215.59,227.69,210.73,263.37z"/>
				<line class="st2" x1="213.88" y1="228.44" x2="259.95" y2="200.56"/>
				<line class="st2" x1="214.6" y1="200.15" x2="260.68" y2="172.27"/>
			</g>
			<g>
				<path class="st2" d="M214.4,186.24l46.08-27.88c-0.1-2.65,0.72-4.85,2.21-6.44l-46.08,27.88
					C215.12,181.39,214.3,183.59,214.4,186.24z"/>
				<line class="st2" x1="214.6" y1="183.74" x2="260.68" y2="155.87"/>
				<line class="st2" x1="215.35" y1="181.58" x2="261.43" y2="153.71"/>
			</g>
			<g>
				<path class="st2" d="M216.61,179.8l46.08-27.88c1.49-1.63,3.65-2.54,5.84-2.56l-46.08,27.88
					C220.26,177.26,218.1,178.17,216.61,179.8z"/>
				<line class="st2" x1="218.3" y1="178.41" x2="264.38" y2="150.54"/>
			</g>
		</g>
		<path class="st21" d="M186.37,326.4c0.94-0.57,1.87-1.26,2.8-2.07c3.33-2.92,6.59-7.57,9.46-13.63
			c5.74-12.13,9.72-29.54,12.09-47.33c4.86-35.68,3.84-72.99,3.68-77.14c-0.1-2.65,0.72-4.85,2.21-6.44
			c0.5-0.55,1.07-1.01,1.69-1.39l46.08-27.88c-0.62,0.38-1.2,0.84-1.69,1.39c-1.49,1.59-2.31,3.79-2.21,6.44
			c0.16,4.15,1.19,41.46-3.68,77.14c-2.38,17.78-6.36,35.2-12.09,47.33c-2.87,6.06-6.13,10.71-9.46,13.63
			c-0.93,0.81-1.86,1.5-2.8,2.07C218.63,306.89,200.2,318.04,186.37,326.4z"/>
		<use xlink:href="#SVGID_73_"  style="overflow:visible;fill:none;stroke:#000000;stroke-miterlimit:10;"/>
	</g>
	<g class="st0">
		<defs>
			<path id="SVGID_75_" class="st0" d="M232.45,298.52l-46.08,27.88c-0.73,0.44-1.45,0.8-2.18,1.1c-1.68,0.67-3.4,1.04-5.41,1.1
				l46.08-27.88c2-0.06,3.73-0.42,5.41-1.1C231,299.33,231.73,298.96,232.45,298.52z"/>
		</defs>
		<clipPath id="SVGID_11_">
			<use xlink:href="#SVGID_75_"  style="overflow:visible;"/>
		</clipPath>
		<g class="st22">
			<g>
				<path class="st2" d="M178.78,328.59l46.08-27.88c2-0.06,3.73-0.42,5.41-1.1l-46.08,27.88
					C182.51,328.17,180.79,328.53,178.78,328.59z"/>
				<line class="st2" x1="180.7" y1="328.43" x2="226.78" y2="300.55"/>
				<line class="st2" x1="182.49" y1="328.07" x2="228.56" y2="300.19"/>
			</g>
			<g>
				<path class="st2" d="M184.19,327.5l46.08-27.88c1.68-0.67,3.34-1.73,4.98-3.17l-46.08,27.88
					C187.53,325.77,185.87,326.83,184.19,327.5z"/>
				<line class="st2" x1="185.86" y1="326.7" x2="231.94" y2="298.82"/>
			</g>
		</g>
		<path class="st23" d="M232.45,298.52l-46.08,27.88c-0.73,0.44-1.45,0.8-2.18,1.1c-1.68,0.67-3.4,1.04-5.41,1.1l46.08-27.88
			c2-0.06,3.73-0.42,5.41-1.1C231,299.33,231.73,298.96,232.45,298.52z"/>
		<use xlink:href="#SVGID_75_"  style="overflow:visible;fill:none;stroke:#000000;stroke-miterlimit:10;"/>
	</g>
	<g class="st0">
		<defs>
			<path id="SVGID_77_" class="st0" d="M218.31,178.41l46.08-27.88c1.24-0.75,2.69-1.16,4.15-1.17c2.23-0.02,4.42,0.84,6.03,2.43
				l-46.08,27.88c-1.61-1.6-3.8-2.46-6.03-2.43C220.99,177.25,219.55,177.66,218.31,178.41z"/>
		</defs>
		<clipPath id="SVGID_12_">
			<use xlink:href="#SVGID_77_"  style="overflow:visible;"/>
		</clipPath>
		<g class="st24">
			<g>
				<path class="st2" d="M216.61,179.8l46.08-27.88c1.49-1.63,3.65-2.54,5.84-2.56l-46.08,27.88
					C220.26,177.26,218.1,178.17,216.61,179.8z"/>
				<line class="st2" x1="220.29" y1="177.55" x2="266.37" y2="149.67"/>
			</g>
			<g>
				<path class="st2" d="M222.45,177.23l46.08-27.88c2.23-0.02,4.42,0.84,6.03,2.43l-46.08,27.88
					C226.87,178.07,224.68,177.21,222.45,177.23z"/>
				<line class="st2" x1="224.65" y1="177.5" x2="270.73" y2="149.62"/>
				<line class="st2" x1="226.7" y1="178.32" x2="272.78" y2="150.44"/>
			</g>
		</g>
		<path class="st25" d="M218.31,178.41l46.08-27.88c1.24-0.75,2.69-1.16,4.15-1.17c2.23-0.02,4.42,0.84,6.03,2.43l-46.08,27.88
			c-1.61-1.6-3.8-2.46-6.03-2.43C220.99,177.25,219.55,177.66,218.31,178.41z"/>
		<use xlink:href="#SVGID_77_"  style="overflow:visible;fill:none;stroke:#000000;stroke-miterlimit:10;"/>
	</g>
	<g class="st0">
		<defs>
			<path id="SVGID_79_" class="st0" d="M228.49,179.67l46.08-27.88c1.65,1.56,2.6,3.74,2.69,6l-46.08,27.88
				C231.09,183.41,230.14,181.23,228.49,179.67z"/>
		</defs>
		<clipPath id="SVGID_13_">
			<use xlink:href="#SVGID_79_"  style="overflow:visible;"/>
		</clipPath>
		<g class="st26">
			<path class="st2" d="M228.49,179.67l46.08-27.88c1.65,1.56,2.6,3.74,2.69,6l-46.08,27.88
				C231.09,183.41,230.14,181.23,228.49,179.67z"/>
			<line class="st2" x1="229.9" y1="181.41" x2="275.98" y2="153.54"/>
			<line class="st2" x1="230.81" y1="183.45" x2="276.89" y2="155.58"/>
		</g>
		<path class="st27" d="M228.49,179.67l46.08-27.88c1.65,1.56,2.6,3.74,2.69,6l-46.08,27.88
			C231.09,183.41,230.14,181.23,228.49,179.67z"/>
		<use xlink:href="#SVGID_79_"  style="overflow:visible;fill:none;stroke:#000000;stroke-miterlimit:10;"/>
	</g>
	<g class="st0">
		<defs>
			<path id="SVGID_81_" class="st0" d="M231.18,185.67l46.08-27.88c0.09,1.38,0.12,2.19,0.17,3.3l-46.08,27.88
				C231.3,187.86,231.27,187.05,231.18,185.67z"/>
		</defs>
		<clipPath id="SVGID_14_">
			<use xlink:href="#SVGID_81_"  style="overflow:visible;"/>
		</clipPath>
		<g class="st28">
			<path class="st2" d="M231.18,185.67l46.08-27.88c0.09,1.38,0.12,2.19,0.17,3.3l-46.08,27.88
				C231.3,187.86,231.27,187.05,231.18,185.67z"/>
			<line class="st2" x1="231.25" y1="186.9" x2="277.33" y2="159.02"/>
			<line class="st2" x1="231.3" y1="187.93" x2="277.38" y2="160.05"/>
		</g>
		<path class="st29" d="M231.18,185.67l46.08-27.88c0.09,1.38,0.12,2.19,0.17,3.3l-46.08,27.88
			C231.3,187.86,231.27,187.05,231.18,185.67z"/>
		<use xlink:href="#SVGID_81_"  style="overflow:visible;fill:none;stroke:#000000;stroke-miterlimit:10;"/>
	</g>
	<g class="st0">
		<defs>
			<path id="SVGID_83_" class="st0" d="M231.34,188.98l46.08-27.88c0.12,2.15,0.28,5.3,0.51,9.3c0.5,7.99,1.27,19.24,2.5,32.29
				c2.45,26.07,6.61,59.46,13.35,87.98c4.44,19.01,10.17,35.94,16.67,46.55c3.64,6.11,7.46,9.91,10.55,11.49
				c1.66,0.83,3.11,1.2,4.81,1.18c1.59-0.02,2.9-0.38,4.42-1.12l-46.08,27.88c-1.52,0.75-2.83,1.11-4.42,1.12
				c-1.7,0.02-3.15-0.35-4.81-1.18c-3.09-1.58-6.9-5.38-10.55-11.49c-6.5-10.61-12.23-27.54-16.67-46.55
				c-6.74-28.52-10.91-61.91-13.35-87.98c-1.22-13.05-2-24.31-2.5-32.29C231.62,194.28,231.47,191.13,231.34,188.98z"/>
		</defs>
		<clipPath id="SVGID_15_">
			<use xlink:href="#SVGID_83_"  style="overflow:visible;"/>
		</clipPath>
		<g class="st30">
			<g>
				<path class="st2" d="M231.34,188.98l46.08-27.88c0.12,2.15,0.28,5.3,0.51,9.3l-46.08,27.88
					C231.62,194.28,231.47,191.13,231.34,188.98z"/>
				<line class="st2" x1="231.48" y1="191.45" x2="277.56" y2="163.58"/>
				<line class="st2" x1="231.65" y1="194.56" x2="277.72" y2="166.69"/>
			</g>
			<g>
				<path class="st2" d="M231.85,198.27l46.08-27.88c0.5,7.99,1.27,19.24,2.5,32.29l-46.08,27.88
					C233.13,217.51,232.35,206.26,231.85,198.27z"/>
				<line class="st2" x1="232.45" y1="207.29" x2="278.53" y2="179.42"/>
				<line class="st2" x1="233.27" y1="218.17" x2="279.35" y2="190.29"/>
			</g>
			<g>
				<path class="st2" d="M234.35,230.57l46.08-27.88c2.45,26.07,6.61,59.46,13.35,87.98l-46.08,27.88
					C240.97,290.03,236.8,256.63,234.35,230.57z"/>
				<line class="st2" x1="237.4" y1="258.62" x2="283.48" y2="230.75"/>
				<line class="st2" x1="241.79" y1="288.85" x2="287.87" y2="260.98"/>
			</g>
			<g>
				<path class="st2" d="M247.71,318.55l46.08-27.88c4.44,19.01,10.17,35.94,16.67,46.55l-46.08,27.88
					C257.87,354.49,252.15,337.56,247.71,318.55z"/>
				<line class="st2" x1="252.56" y1="336.71" x2="298.63" y2="308.83"/>
				<line class="st2" x1="258.15" y1="352.54" x2="304.23" y2="324.66"/>
			</g>
			<g>
				<path class="st2" d="M264.37,365.1l46.08-27.88c3.64,6.11,7.46,9.91,10.55,11.49l-46.08,27.88
					C271.83,375.01,268.02,371.21,264.37,365.1z"/>
				<line class="st2" x1="268.04" y1="370.44" x2="314.12" y2="342.57"/>
				<line class="st2" x1="271.62" y1="374.27" x2="317.7" y2="346.39"/>
			</g>
			<g>
				<path class="st2" d="M274.92,376.59L321,348.72c1.66,0.83,3.11,1.2,4.81,1.18l-46.08,27.88
					C278.03,377.79,276.58,377.42,274.92,376.59z"/>
				<line class="st2" x1="276.53" y1="377.27" x2="322.6" y2="349.39"/>
				<line class="st2" x1="278.1" y1="377.66" x2="324.17" y2="349.78"/>
			</g>
			<g>
				<path class="st2" d="M279.73,377.77l46.08-27.88c1.59-0.02,2.9-0.38,4.42-1.12l-46.08,27.88
					C282.63,377.39,281.32,377.75,279.73,377.77z"/>
				<line class="st2" x1="281.25" y1="377.64" x2="327.32" y2="349.76"/>
				<line class="st2" x1="282.68" y1="377.27" x2="328.76" y2="349.39"/>
			</g>
		</g>
		<path class="st31" d="M231.34,188.98l46.08-27.88c0.12,2.15,0.28,5.3,0.51,9.3c0.5,7.99,1.27,19.24,2.5,32.29
			c2.45,26.07,6.61,59.46,13.35,87.98c4.44,19.01,10.17,35.94,16.67,46.55c3.64,6.11,7.46,9.91,10.55,11.49
			c1.66,0.83,3.11,1.2,4.81,1.18c1.59-0.02,2.9-0.38,4.42-1.12l-46.08,27.88c-1.52,0.75-2.83,1.11-4.42,1.12
			c-1.7,0.02-3.15-0.35-4.81-1.18c-3.09-1.58-6.9-5.38-10.55-11.49c-6.5-10.61-12.23-27.54-16.67-46.55
			c-6.74-28.52-10.91-61.91-13.35-87.98c-1.22-13.05-2-24.31-2.5-32.29C231.62,194.28,231.47,191.13,231.34,188.98z"/>
		<use xlink:href="#SVGID_83_"  style="overflow:visible;fill:none;stroke:#000000;stroke-miterlimit:10;"/>
	</g>
	<g class="st0">
		<defs>
			<path id="SVGID_85_" class="st0" d="M284.68,376.35c1.31-0.79,2.73-1.96,4.17-3.63c3.3-3.73,6.65-9.91,9.49-17.78
				c5.74-15.82,9.57-38.19,11.89-61.31c4.68-46.32,3.56-95.81,3.21-106.65c-0.04-1.1-0.07-1.79-0.08-2.06
				c-0.09-2.4,0.73-4.6,2.22-6.19c0.51-0.55,1.09-1.01,1.71-1.39l46.08-27.88c-0.62,0.38-1.2,0.84-1.71,1.39
				c-1.49,1.59-2.31,3.79-2.22,6.19c0.01,0.27,0.04,0.96,0.08,2.06c0.34,10.83,1.46,60.32-3.21,106.65
				c-2.32,23.12-6.15,45.49-11.89,61.31c-2.84,7.87-6.19,14.06-9.49,17.78c-1.43,1.67-2.86,2.84-4.17,3.63
				C316.93,356.83,298.5,367.98,284.68,376.35z"/>
		</defs>
		<clipPath id="SVGID_16_">
			<use xlink:href="#SVGID_85_"  style="overflow:visible;"/>
		</clipPath>
		<g class="st32">
			<g>
				<path class="st2" d="M284.15,376.65l46.08-27.88c1.45-0.78,3.06-2.03,4.69-3.93l-46.08,27.88
					C287.22,374.62,285.6,375.86,284.15,376.65z"/>
				<line class="st2" x1="285.65" y1="375.7" x2="331.73" y2="347.82"/>
				<line class="st2" x1="287.23" y1="374.4" x2="333.3" y2="346.53"/>
			</g>
			<g>
				<path class="st2" d="M288.84,372.71l46.08-27.88c3.3-3.73,6.65-9.91,9.49-17.78l-46.08,27.88
					C295.5,362.8,292.14,368.99,288.84,372.71z"/>
				<line class="st2" x1="292.14" y1="368.2" x2="338.22" y2="340.32"/>
				<line class="st2" x1="295.35" y1="362.21" x2="341.42" y2="334.34"/>
			</g>
			<g>
				<path class="st2" d="M298.33,354.93l46.08-27.88c5.74-15.82,9.57-38.19,11.89-61.31l-46.08,27.88
					C307.9,316.74,304.08,339.11,298.33,354.93z"/>
				<line class="st2" x1="303.45" y1="337.14" x2="349.53" y2="309.27"/>
				<line class="st2" x1="307.39" y1="316.28" x2="353.46" y2="288.4"/>
			</g>
			<g>
				<path class="st2" d="M310.23,293.62l46.08-27.88c4.68-46.32,3.56-95.81,3.21-106.65l-46.08,27.88
					C313.78,197.81,314.9,247.3,310.23,293.62z"/>
				<line class="st2" x1="313.21" y1="247.79" x2="359.29" y2="219.91"/>
				<line class="st2" x1="313.8" y1="209.14" x2="359.88" y2="181.27"/>
			</g>
			<g>
				<path class="st2" d="M313.44,186.97l46.08-27.88c-0.04-1.1-0.07-1.79-0.08-2.06l-46.08,27.88
					C313.37,185.18,313.4,185.87,313.44,186.97z"/>
				<line class="st2" x1="313.4" y1="186.01" x2="359.48" y2="158.13"/>
				<line class="st2" x1="313.38" y1="185.32" x2="359.45" y2="157.45"/>
			</g>
			<g>
				<path class="st2" d="M313.36,184.92l46.08-27.88c-0.09-2.4,0.73-4.6,2.22-6.19l-46.08,27.88
					C314.09,180.32,313.27,182.52,313.36,184.92z"/>
				<line class="st2" x1="313.56" y1="182.6" x2="359.64" y2="154.72"/>
				<line class="st2" x1="314.32" y1="180.51" x2="360.4" y2="152.63"/>
			</g>
			<g>
				<path class="st2" d="M315.58,178.73l46.08-27.88c1.53-1.63,3.65-2.54,5.84-2.56l-46.08,27.88
					C319.23,176.19,317.11,177.1,315.58,178.73z"/>
				<line class="st2" x1="317.29" y1="177.34" x2="363.36" y2="149.47"/>
			</g>
		</g>
		<path class="st33" d="M284.68,376.35c1.31-0.79,2.73-1.96,4.17-3.63c3.3-3.73,6.65-9.91,9.49-17.78
			c5.74-15.82,9.57-38.19,11.89-61.31c4.68-46.32,3.56-95.81,3.21-106.65c-0.04-1.1-0.07-1.79-0.08-2.06
			c-0.09-2.4,0.73-4.6,2.22-6.19c0.51-0.55,1.09-1.01,1.71-1.39l46.08-27.88c-0.62,0.38-1.2,0.84-1.71,1.39
			c-1.49,1.59-2.31,3.79-2.22,6.19c0.01,0.27,0.04,0.96,0.08,2.06c0.34,10.83,1.46,60.32-3.21,106.65
			c-2.32,23.12-6.15,45.49-11.89,61.31c-2.84,7.87-6.19,14.06-9.49,17.78c-1.43,1.67-2.86,2.84-4.17,3.63
			C316.93,356.83,298.5,367.98,284.68,376.35z"/>
		<use xlink:href="#SVGID_85_"  style="overflow:visible;fill:none;stroke:#000000;stroke-miterlimit:10;"/>
	</g>
	<g class="st0">
		<defs>
			<path id="SVGID_87_" class="st0" d="M330.76,348.47l-46.08,27.88c-0.18,0.11-0.35,0.21-0.52,0.3l46.08-27.88
				C330.4,348.68,330.58,348.58,330.76,348.47z"/>
		</defs>
		<clipPath id="SVGID_17_">
			<use xlink:href="#SVGID_87_"  style="overflow:visible;"/>
		</clipPath>
		<g class="st34">
			<path class="st2" d="M284.15,376.65l46.08-27.88c1.45-0.78,3.06-2.03,4.69-3.93l-46.08,27.88
				C287.22,374.62,285.6,375.86,284.15,376.65z"/>
		</g>
		<path class="st35" d="M330.76,348.47l-46.08,27.88c-0.18,0.11-0.35,0.21-0.52,0.3l46.08-27.88
			C330.4,348.68,330.58,348.58,330.76,348.47z"/>
		<use xlink:href="#SVGID_87_"  style="overflow:visible;fill:none;stroke:#000000;stroke-miterlimit:10;"/>
	</g>
	<g class="st0">
		<defs>
			<path id="SVGID_89_" class="st0" d="M317.29,177.34l46.08-27.88c1.24-0.75,2.67-1.16,4.13-1.17c2.23-0.02,4.42,0.84,6.03,2.43
				l-46.08,27.88c-1.61-1.6-3.8-2.46-6.03-2.43C319.96,176.18,318.53,176.59,317.29,177.34z"/>
		</defs>
		<clipPath id="SVGID_18_">
			<use xlink:href="#SVGID_89_"  style="overflow:visible;"/>
		</clipPath>
		<g class="st36">
			<g>
				<path class="st2" d="M315.58,178.73l46.08-27.88c1.53-1.63,3.65-2.54,5.84-2.56l-46.08,27.88
					C319.23,176.19,317.11,177.1,315.58,178.73z"/>
				<line class="st2" x1="319.27" y1="176.48" x2="365.35" y2="148.6"/>
			</g>
			<g>
				<path class="st2" d="M321.42,176.16l46.08-27.88c2.23-0.02,4.42,0.84,6.03,2.43l-46.08,27.88
					C325.84,177,323.65,176.14,321.42,176.16z"/>
				<line class="st2" x1="323.62" y1="176.43" x2="369.7" y2="148.55"/>
				<line class="st2" x1="325.67" y1="177.25" x2="371.75" y2="149.37"/>
			</g>
		</g>
		<path class="st37" d="M317.29,177.34l46.08-27.88c1.24-0.75,2.67-1.16,4.13-1.17c2.23-0.02,4.42,0.84,6.03,2.43l-46.08,27.88
			c-1.61-1.6-3.8-2.46-6.03-2.43C319.96,176.18,318.53,176.59,317.29,177.34z"/>
		<use xlink:href="#SVGID_89_"  style="overflow:visible;fill:none;stroke:#000000;stroke-miterlimit:10;"/>
	</g>
	<g class="st0">
		<defs>
			<path id="SVGID_91_" class="st0" d="M327.46,178.6l46.08-27.88c1.65,1.56,2.64,3.74,2.73,6c0,0.08,0.06,1.54,0.17,4.42
				c0.15,2.88,0.35,7.11,0.59,12.45c0.57,10.72,1.45,25.85,2.75,43.63c2.55,35.52,6.72,81.67,13.03,123.73
				c4.22,28.01,9.44,54.24,15.65,74.04c3.5,11.3,7.41,20.48,11.2,26.4c2.01,3.17,3.95,5.34,5.47,6.51l-46.08,27.88
				c-1.52-1.17-3.46-3.34-5.47-6.51c-3.79-5.92-7.7-15.1-11.2-26.4c-6.21-19.8-11.43-46.03-15.65-74.04
				c-6.32-42.05-10.49-88.2-13.03-123.73c-1.29-17.78-2.18-32.91-2.75-43.63c-0.24-5.34-0.45-9.56-0.59-12.45
				c-0.11-2.88-0.17-4.34-0.17-4.42C330.1,182.34,329.11,180.16,327.46,178.6z"/>
		</defs>
		<clipPath id="SVGID_19_">
			<use xlink:href="#SVGID_91_"  style="overflow:visible;"/>
		</clipPath>
		<g class="st38">
			<g>
				<path class="st2" d="M327.46,178.6l46.08-27.88c1.65,1.56,2.64,3.74,2.73,6l-46.08,27.88
					C330.1,182.34,329.11,180.16,327.46,178.6z"/>
				<line class="st2" x1="328.88" y1="180.34" x2="374.95" y2="152.47"/>
				<line class="st2" x1="329.81" y1="182.38" x2="375.88" y2="154.51"/>
			</g>
			<g>
				<path class="st2" d="M330.19,184.6l46.08-27.88c0,0.08,0.06,1.54,0.17,4.42l-46.08,27.88
					C330.24,186.14,330.19,184.68,330.19,184.6z"/>
				<line class="st2" x1="330.21" y1="185.14" x2="376.28" y2="157.26"/>
				<line class="st2" x1="330.26" y1="186.61" x2="376.34" y2="158.73"/>
			</g>
			<g>
				<path class="st2" d="M330.36,189.02l46.08-27.88c0.15,2.88,0.35,7.11,0.59,12.45l-46.08,27.88
					C330.71,196.13,330.51,191.9,330.36,189.02z"/>
				<line class="st2" x1="330.52" y1="192.34" x2="376.6" y2="164.46"/>
				<line class="st2" x1="330.72" y1="196.51" x2="376.8" y2="168.63"/>
			</g>
			<g>
				<path class="st2" d="M330.95,201.47l46.08-27.88c0.57,10.72,1.45,25.85,2.75,43.63L333.7,245.1
					C332.4,227.31,331.52,212.18,330.95,201.47z"/>
				<line class="st2" x1="331.63" y1="213.59" x2="377.7" y2="185.71"/>
				<line class="st2" x1="332.54" y1="228.26" x2="378.61" y2="200.39"/>
			</g>
			<g>
				<path class="st2" d="M333.7,245.1l46.08-27.88c2.55,35.52,6.72,81.67,13.03,123.73l-46.08,27.88
					C340.41,326.77,336.24,280.62,333.7,245.1z"/>
				<line class="st2" x1="336.8" y1="283.62" x2="382.88" y2="255.74"/>
				<line class="st2" x1="341.11" y1="325.95" x2="387.19" y2="298.07"/>
			</g>
			<g>
				<path class="st2" d="M346.73,368.82l46.08-27.88c4.22,28.01,9.44,54.24,15.65,74.04l-46.08,27.88
					C356.17,423.06,350.95,396.83,346.73,368.82z"/>
				<line class="st2" x1="351.28" y1="396.07" x2="397.36" y2="368.19"/>
				<line class="st2" x1="356.5" y1="421.09" x2="402.58" y2="393.22"/>
			</g>
			<g>
				<path class="st2" d="M362.38,442.87l46.08-27.88c3.5,11.3,7.41,20.48,11.2,26.4l-46.08,27.88
					C369.79,463.35,365.88,454.17,362.38,442.87z"/>
				<line class="st2" x1="366" y1="453.42" x2="412.08" y2="425.54"/>
				<line class="st2" x1="369.77" y1="462.3" x2="415.85" y2="434.42"/>
			</g>
			<g>
				<path class="st2" d="M373.58,469.26l46.08-27.88c2.01,3.17,3.95,5.34,5.47,6.51l-46.08,27.88
					C377.53,474.6,375.59,472.43,373.58,469.26z"/>
				<line class="st2" x1="375.56" y1="472.1" x2="421.63" y2="444.22"/>
				<line class="st2" x1="377.41" y1="474.27" x2="423.48" y2="446.39"/>
			</g>
		</g>
		<path class="st39" d="M327.46,178.6l46.08-27.88c1.65,1.56,2.64,3.74,2.73,6c0,0.08,0.06,1.54,0.17,4.42
			c0.15,2.88,0.35,7.11,0.59,12.45c0.57,10.72,1.45,25.85,2.75,43.63c2.55,35.52,6.72,81.67,13.03,123.73
			c4.22,28.01,9.44,54.24,15.65,74.04c3.5,11.3,7.41,20.48,11.2,26.4c2.01,3.17,3.95,5.34,5.47,6.51l-46.08,27.88
			c-1.52-1.17-3.46-3.34-5.47-6.51c-3.79-5.92-7.7-15.1-11.2-26.4c-6.21-19.8-11.43-46.03-15.65-74.04
			c-6.32-42.05-10.49-88.2-13.03-123.73c-1.29-17.78-2.18-32.91-2.75-43.63c-0.24-5.34-0.45-9.56-0.59-12.45
			c-0.11-2.88-0.17-4.34-0.17-4.42C330.1,182.34,329.11,180.16,327.46,178.6z"/>
		<use xlink:href="#SVGID_91_"  style="overflow:visible;fill:none;stroke:#000000;stroke-miterlimit:10;"/>
	</g>
	<g class="st0">
		<defs>
			<path id="SVGID_93_" class="st0" d="M379.05,475.78l46.08-27.88c1.71,1.25,2.59,1.47,3.54,1.46l-46.08,27.88
				C381.64,477.25,380.77,477.03,379.05,475.78z"/>
		</defs>
		<clipPath id="SVGID_20_">
			<use xlink:href="#SVGID_93_"  style="overflow:visible;"/>
		</clipPath>
		<g class="st40">
			<path class="st2" d="M379.05,475.78l46.08-27.88c1.71,1.25,2.59,1.47,3.54,1.46l-46.08,27.88
				C381.64,477.25,380.77,477.03,379.05,475.78z"/>
			<line class="st2" x1="380.52" y1="476.71" x2="426.6" y2="448.84"/>
			<line class="st2" x1="381.63" y1="477.14" x2="427.71" y2="449.26"/>
		</g>
		<path class="st41" d="M379.05,475.78l46.08-27.88c1.71,1.25,2.59,1.47,3.54,1.46l-46.08,27.88
			C381.64,477.25,380.77,477.03,379.05,475.78z"/>
		<use xlink:href="#SVGID_93_"  style="overflow:visible;fill:none;stroke:#000000;stroke-miterlimit:10;"/>
	</g>
	<g class="st0">
		<defs>
			<path id="SVGID_95_" class="st0" d="M384.32,476.53c0.33-0.2,0.6-0.42,0.9-0.71l46.08-27.88c-0.3,0.28-0.57,0.51-0.9,0.71
				C416.57,457.02,398.14,468.17,384.32,476.53z"/>
		</defs>
		<clipPath id="SVGID_21_">
			<use xlink:href="#SVGID_95_"  style="overflow:visible;"/>
		</clipPath>
		<g class="st42">
			<path class="st2" d="M382.59,477.24l46.08-27.88c1.35-0.4,1.94-0.75,2.63-1.41l-46.08,27.88
				C384.53,476.49,383.94,476.84,382.59,477.24z"/>
			<line class="st2" x1="384.53" y1="476.4" x2="430.61" y2="448.52"/>
		</g>
		<path class="st43" d="M384.32,476.53c0.33-0.2,0.6-0.42,0.9-0.71l46.08-27.88c-0.3,0.28-0.57,0.51-0.9,0.71
			C416.57,457.02,398.14,468.17,384.32,476.53z"/>
		<use xlink:href="#SVGID_95_"  style="overflow:visible;fill:none;stroke:#000000;stroke-miterlimit:10;"/>
	</g>
	<g class="st0">
		<defs>
			<path id="SVGID_97_" class="st0" d="M430.4,448.65l-46.08,27.88c-0.44,0.26-0.96,0.48-1.73,0.71l46.08-27.88
				C429.44,449.13,429.96,448.92,430.4,448.65z"/>
		</defs>
		<clipPath id="SVGID_22_">
			<use xlink:href="#SVGID_97_"  style="overflow:visible;"/>
		</clipPath>
		<g class="st44">
			<path class="st2" d="M382.59,477.24l46.08-27.88c1.35-0.4,1.94-0.75,2.63-1.41l-46.08,27.88
				C384.53,476.49,383.94,476.84,382.59,477.24z"/>
			<line class="st2" x1="383.72" y1="476.84" x2="429.79" y2="448.96"/>
		</g>
		<path class="st45" d="M430.4,448.65l-46.08,27.88c-0.44,0.26-0.96,0.48-1.73,0.71l46.08-27.88
			C429.44,449.13,429.96,448.92,430.4,448.65z"/>
		<use xlink:href="#SVGID_97_"  style="overflow:visible;fill:none;stroke:#000000;stroke-miterlimit:10;"/>
	</g>
	<g class="st0">
		<defs>
			<path id="SVGID_99_" class="st0" d="M385.22,475.83c1.43-1.28,3.26-3.84,5.08-7.55c3.61-7.38,7.02-19.14,9.75-33.58
				c5.5-28.88,8.7-68.54,10.37-109.45c3.12-76.48,1.09-157.36,0.26-183.29l46.08-27.88c0.82,25.92,2.86,106.81-0.26,183.29
				c-1.67,40.91-4.87,80.57-10.37,109.45c-2.73,14.44-6.14,26.2-9.75,33.58c-1.82,3.71-3.65,6.27-5.08,7.55L385.22,475.83z"/>
		</defs>
		<clipPath id="SVGID_23_">
			<use xlink:href="#SVGID_99_"  style="overflow:visible;"/>
		</clipPath>
		<g class="st46">
			<g>
				<path class="st2" d="M385.22,475.83l46.08-27.88c1.43-1.28,3.26-3.84,5.08-7.55l-46.08,27.88
					C388.48,471.99,386.65,474.54,385.22,475.83z"/>
				<line class="st2" x1="386.77" y1="474.12" x2="432.84" y2="446.24"/>
				<line class="st2" x1="388.49" y1="471.6" x2="434.57" y2="443.72"/>
			</g>
			<g>
				<path class="st2" d="M390.3,468.28l46.08-27.88c3.61-7.38,7.02-19.14,9.75-33.58l-46.08,27.88
					C397.32,449.14,393.91,460.9,390.3,468.28z"/>
				<line class="st2" x1="393.83" y1="459.5" x2="439.9" y2="431.62"/>
				<line class="st2" x1="397.11" y1="448.18" x2="443.19" y2="420.3"/>
			</g>
			<g>
				<path class="st2" d="M400.05,434.7l46.08-27.88c5.5-28.88,8.7-68.54,10.37-109.45l-46.08,27.88
					C408.75,366.15,405.55,405.81,400.05,434.7z"/>
				<line class="st2" x1="404.81" y1="402.57" x2="450.89" y2="374.7"/>
				<line class="st2" x1="408.21" y1="365.38" x2="454.29" y2="337.51"/>
			</g>
			<g>
				<path class="st2" d="M410.42,325.24l46.08-27.88c3.12-76.48,1.09-157.36,0.26-183.29l-46.08,27.88
					C411.51,167.88,413.55,248.77,410.42,325.24z"/>
				<line class="st2" x1="412.06" y1="249.5" x2="458.14" y2="221.62"/>
				<line class="st2" x1="411.68" y1="184" x2="457.75" y2="156.12"/>
			</g>
		</g>
		<path class="st47" d="M385.22,475.83c1.43-1.28,3.26-3.84,5.08-7.55c3.61-7.38,7.02-19.14,9.75-33.58
			c5.5-28.88,8.7-68.54,10.37-109.45c3.12-76.48,1.09-157.36,0.26-183.29l46.08-27.88c0.82,25.92,2.86,106.81-0.26,183.29
			c-1.67,40.91-4.87,80.57-10.37,109.45c-2.73,14.44-6.14,26.2-9.75,33.58c-1.82,3.71-3.65,6.27-5.08,7.55L385.22,475.83z"/>
		<use xlink:href="#SVGID_99_"  style="overflow:visible;fill:none;stroke:#000000;stroke-miterlimit:10;"/>
	</g>
	<g class="st0">
		<defs>
			<polygon id="SVGID_101_" class="st0" points="410.68,141.95 72.7,145.57 118.77,117.95 456.76,114.33 			"/>
		</defs>
		<clipPath id="SVGID_24_">
			<use xlink:href="#SVGID_101_"  style="overflow:visible;"/>
		</clipPath>
		<polygon class="st48" points="410.68,141.95 72.7,145.57 118.77,117.95 456.76,114.33 		"/>
		<use xlink:href="#SVGID_101_"  style="overflow:visible;fill:none;stroke:#000000;stroke-miterlimit:10;"/>
	</g>
	<g class="st0">
		<defs>
			<path id="SVGID_103_" class="st0" d="M67.91,129.72l46.08-27.88c1.2-0.73,2.61-1.15,4.13-1.17l-46.08,27.88
				C70.51,128.57,69.11,128.99,67.91,129.72z"/>
		</defs>
		<clipPath id="SVGID_25_">
			<use xlink:href="#SVGID_103_"  style="overflow:visible;"/>
		</clipPath>
		<g class="st49">
			<path class="st2" d="M63.97,137.17l46.08-27.88c-0.18-4.73,3.41-8.57,8.07-8.62l-46.08,27.88
				C67.38,128.6,63.79,132.45,63.97,137.17z"/>
		</g>
		<path class="st50" d="M67.91,129.72l46.08-27.88c1.2-0.73,2.61-1.15,4.13-1.17l-46.08,27.88
			C70.51,128.57,69.11,128.99,67.91,129.72z"/>
		<use xlink:href="#SVGID_103_"  style="overflow:visible;fill:none;stroke:#000000;stroke-miterlimit:10;"/>
	</g>
	<g class="st0">
		<defs>
			<path id="SVGID_105_" class="st0" d="M113.98,101.84c-2.47,1.49-4.06,4.27-3.94,7.45c0.18,4.73,4.07,8.49,8.73,8.44L72.7,145.61
				c-4.65,0.05-8.54-3.71-8.73-8.44c-0.12-3.18,1.47-5.96,3.94-7.45C81.73,121.35,100.16,110.2,113.98,101.84z"/>
		</defs>
		<clipPath id="SVGID_26_">
			<use xlink:href="#SVGID_105_"  style="overflow:visible;"/>
		</clipPath>
		<g class="st51">
			<g>
				<path class="st2" d="M72.7,145.61l46.08-27.88c-4.65,0.05-8.54-3.71-8.73-8.44l-46.08,27.88
					C64.15,141.9,68.04,145.66,72.7,145.61z"/>
				<line class="st2" x1="68.41" y1="144.49" x2="114.48" y2="116.62"/>
				<line class="st2" x1="65.28" y1="141.47" x2="111.36" y2="113.59"/>
			</g>
			<g>
				<path class="st2" d="M63.97,137.17l46.08-27.88c-0.18-4.73,3.41-8.57,8.07-8.62l-46.08,27.88
					C67.38,128.6,63.79,132.45,63.97,137.17z"/>
				<line class="st2" x1="64.95" y1="132.85" x2="111.02" y2="104.97"/>
				<line class="st2" x1="67.84" y1="129.76" x2="113.91" y2="101.88"/>
			</g>
		</g>
		<path class="st52" d="M113.98,101.84c-2.47,1.49-4.06,4.27-3.94,7.45c0.18,4.73,4.07,8.49,8.73,8.44L72.7,145.61
			c-4.65,0.05-8.54-3.71-8.73-8.44c-0.12-3.18,1.47-5.96,3.94-7.45C81.73,121.35,100.16,110.2,113.98,101.84z"/>
		<use xlink:href="#SVGID_105_"  style="overflow:visible;fill:none;stroke:#000000;stroke-miterlimit:10;"/>
	</g>
	<g class="st0">
		<defs>
			<polygon id="SVGID_107_" class="st0" points="72.04,128.16 118.11,100.44 464.56,96.72 418.48,124.44 			"/>
		</defs>
		<clipPath id="SVGID_27_">
			<use xlink:href="#SVGID_107_"  style="overflow:visible;"/>
		</clipPath>
		<polygon class="st53" points="72.04,128.16 118.11,100.44 464.56,96.72 418.48,124.44 		"/>
		<use xlink:href="#SVGID_107_"  style="overflow:visible;fill:none;stroke:#000000;stroke-miterlimit:10;"/>
	</g>
</g>
</svg>
